G04 #@! TF.GenerationSoftware,KiCad,Pcbnew,5.1.0-rc2-unknown-036be7d~80~ubuntu16.04.1*
G04 #@! TF.CreationDate,2023-03-31T11:14:17+03:00*
G04 #@! TF.ProjectId,ESP32-C6-EVB_Rev_A,45535033-322d-4433-962d-4556425f5265,A*
G04 #@! TF.SameCoordinates,Original*
G04 #@! TF.FileFunction,Paste,Top*
G04 #@! TF.FilePolarity,Positive*
%FSLAX46Y46*%
G04 Gerber Fmt 4.6, Leading zero omitted, Abs format (unit mm)*
G04 Created by KiCad (PCBNEW 5.1.0-rc2-unknown-036be7d~80~ubuntu16.04.1) date 2023-03-31 11:14:17*
%MOMM*%
%LPD*%
G04 APERTURE LIST*
%ADD10R,0.800000X0.800000*%
%ADD11R,1.001600X1.601600*%
%ADD12R,1.200000X1.800000*%
%ADD13R,0.500000X1.550000*%
%ADD14R,0.500000X0.550000*%
%ADD15R,1.778000X1.524000*%
%ADD16R,1.016000X1.016000*%
%ADD17R,0.904000X1.304000*%
%ADD18R,0.550000X0.500000*%
%ADD19R,2.000000X1.700000*%
%ADD20R,1.000000X1.400000*%
%ADD21R,1.700000X2.000000*%
%ADD22R,1.400000X1.000000*%
%ADD23R,2.700000X3.400000*%
%ADD24R,1.600000X3.000000*%
%ADD25R,1.524000X1.778000*%
%ADD26R,3.500000X2.600000*%
%ADD27R,0.600000X1.400000*%
%ADD28R,1.200000X0.550000*%
%ADD29C,1.700000*%
%ADD30C,0.100000*%
%ADD31R,0.280000X1.130000*%
%ADD32R,0.230000X1.130000*%
G04 APERTURE END LIST*
D10*
X175040000Y-105250000D03*
X177540000Y-105250000D03*
X175040000Y-102750000D03*
X177540000Y-104000000D03*
D11*
X182010000Y-96750000D03*
X180740000Y-96750000D03*
X179470000Y-96750000D03*
X178200000Y-96750000D03*
X176930000Y-96750000D03*
X175660000Y-96750000D03*
X174390000Y-96750000D03*
X173120000Y-96750000D03*
X171850000Y-96750000D03*
X170580000Y-96750000D03*
X169310000Y-96750000D03*
X168040000Y-96750000D03*
X166770000Y-96750000D03*
X165500000Y-96750000D03*
X165500000Y-114250000D03*
X166770000Y-114250000D03*
X168040000Y-114250000D03*
X169310000Y-114250000D03*
X170580000Y-114250000D03*
X171850000Y-114250000D03*
X173120000Y-114250000D03*
X174390000Y-114250000D03*
X175660000Y-114250000D03*
X176930000Y-114250000D03*
X178200000Y-114250000D03*
X179470000Y-114250000D03*
X180740000Y-114250000D03*
X182010000Y-114250000D03*
D10*
X177540000Y-102750000D03*
X175040000Y-104000000D03*
X176290000Y-102750000D03*
X176290000Y-105250000D03*
D12*
X174200000Y-123575000D03*
X162600000Y-123575000D03*
D13*
X172900000Y-119700000D03*
X171900000Y-119700000D03*
X170900000Y-119700000D03*
X169900000Y-119700000D03*
X168900000Y-119700000D03*
X167900000Y-119700000D03*
X166900000Y-119700000D03*
X165900000Y-119700000D03*
X164900000Y-119700000D03*
X163900000Y-119700000D03*
D14*
X144018000Y-101092000D03*
X145034000Y-101092000D03*
D15*
X117221000Y-111887000D03*
X119761000Y-111887000D03*
X119761000Y-102997000D03*
X117221000Y-102997000D03*
D16*
X126111000Y-95885000D03*
X126111000Y-97663000D03*
X124460000Y-97663000D03*
X124460000Y-95885000D03*
D17*
X93575000Y-112925000D03*
X93575000Y-117075000D03*
X91425000Y-112925000D03*
X91425000Y-117075000D03*
D16*
X91694000Y-78867000D03*
X93472000Y-78867000D03*
X112776000Y-94107000D03*
X112776000Y-95885000D03*
X98425000Y-84709000D03*
X98425000Y-82931000D03*
D18*
X93599000Y-90424000D03*
X93599000Y-89408000D03*
D16*
X180467000Y-93853000D03*
X182245000Y-93853000D03*
D14*
X181356000Y-92329000D03*
X182372000Y-92329000D03*
D16*
X179070000Y-93853000D03*
X177292000Y-93853000D03*
D19*
X108037000Y-72390000D03*
X103037000Y-72390000D03*
D20*
X111257000Y-107569000D03*
X115057000Y-107569000D03*
X124211000Y-107569000D03*
X128011000Y-107569000D03*
X141092000Y-107569000D03*
X137292000Y-107569000D03*
X150246000Y-107569000D03*
X154046000Y-107569000D03*
D21*
X100965000Y-85558000D03*
X100965000Y-80558000D03*
D19*
X112990000Y-89916000D03*
X107990000Y-89916000D03*
D20*
X121163000Y-88138000D03*
X124963000Y-88138000D03*
X137038000Y-88138000D03*
X140838000Y-88138000D03*
X158872000Y-88138000D03*
X155072000Y-88138000D03*
X171709000Y-88138000D03*
X175509000Y-88138000D03*
D22*
X110835440Y-94167960D03*
X110835440Y-92265500D03*
X108625640Y-93220540D03*
D23*
X107950000Y-75803000D03*
X107950000Y-86503000D03*
D24*
X122358000Y-95377000D03*
X119958000Y-95377000D03*
D10*
X114300000Y-111760000D03*
X114300000Y-110236000D03*
X127254000Y-111760000D03*
X127254000Y-110236000D03*
X140335000Y-110236000D03*
X140335000Y-111760000D03*
X153289000Y-111760000D03*
X153289000Y-110236000D03*
X121158000Y-90170000D03*
X122682000Y-90170000D03*
X138557000Y-90170000D03*
X137033000Y-90170000D03*
X156591000Y-90170000D03*
X155067000Y-90170000D03*
X173228000Y-90170000D03*
X171704000Y-90170000D03*
D15*
X130175000Y-102997000D03*
X132715000Y-102997000D03*
X132715000Y-111887000D03*
X130175000Y-111887000D03*
X143256000Y-111887000D03*
X145796000Y-111887000D03*
X145796000Y-102997000D03*
X143256000Y-102997000D03*
X156210000Y-102997000D03*
X158750000Y-102997000D03*
X158750000Y-111887000D03*
X156210000Y-111887000D03*
D10*
X99000000Y-58762000D03*
X99000000Y-57238000D03*
D16*
X106299000Y-111887000D03*
X106299000Y-113665000D03*
X102108000Y-111887000D03*
X102108000Y-113665000D03*
D18*
X99000000Y-61492000D03*
X99000000Y-62508000D03*
D25*
X97917000Y-78867000D03*
X95123000Y-78867000D03*
D15*
X111633000Y-109601000D03*
X111633000Y-112395000D03*
X124587000Y-112395000D03*
X124587000Y-109601000D03*
X137668000Y-109601000D03*
X137668000Y-112395000D03*
X150622000Y-112395000D03*
X150622000Y-109601000D03*
D14*
X104267000Y-107823000D03*
X103251000Y-107823000D03*
X103251000Y-103759000D03*
X104267000Y-103759000D03*
X104267000Y-101219000D03*
X103251000Y-101219000D03*
D18*
X98425000Y-86360000D03*
X98425000Y-87376000D03*
X92202000Y-89408000D03*
X92202000Y-90424000D03*
D14*
X104267000Y-95123000D03*
X103251000Y-95123000D03*
X103251000Y-102489000D03*
X104267000Y-102489000D03*
X103251000Y-105029000D03*
X104267000Y-105029000D03*
D18*
X94996000Y-90424000D03*
X94996000Y-89408000D03*
D14*
X104267000Y-106553000D03*
X103251000Y-106553000D03*
D18*
X111887000Y-97282000D03*
X111887000Y-98298000D03*
X113030000Y-97282000D03*
X113030000Y-98298000D03*
D14*
X117983000Y-101092000D03*
X118999000Y-101092000D03*
D18*
X130683000Y-100076000D03*
X130683000Y-101092000D03*
X156464000Y-100076000D03*
X156464000Y-101092000D03*
D14*
X180340000Y-92329000D03*
X179324000Y-92329000D03*
D18*
X180086000Y-121031000D03*
X180086000Y-120015000D03*
X181229000Y-121031000D03*
X181229000Y-120015000D03*
D14*
X123952000Y-90170000D03*
X124968000Y-90170000D03*
X139827000Y-90170000D03*
X140843000Y-90170000D03*
X157861000Y-90170000D03*
X158877000Y-90170000D03*
X175514000Y-90170000D03*
X174498000Y-90170000D03*
X96774000Y-113157000D03*
X97790000Y-113157000D03*
D17*
X93575000Y-62925000D03*
X93575000Y-67075000D03*
X91425000Y-62925000D03*
X91425000Y-67075000D03*
D22*
X117129560Y-89220040D03*
X117129560Y-91122500D03*
X119339360Y-90167460D03*
X133004560Y-89220040D03*
X133004560Y-91122500D03*
X135214360Y-90167460D03*
X153248360Y-90167460D03*
X151038560Y-91122500D03*
X151038560Y-89220040D03*
X169885360Y-90167460D03*
X167675560Y-91122500D03*
X167675560Y-89220040D03*
D26*
X94107000Y-84963000D03*
D27*
X96012000Y-87763000D03*
X94742000Y-87763000D03*
X93472000Y-87763000D03*
X92202000Y-87763000D03*
X92202000Y-82163000D03*
X93472000Y-82163000D03*
X94742000Y-82163000D03*
X96012000Y-82163000D03*
D28*
X117251000Y-96708000D03*
X117251000Y-95758000D03*
X117251000Y-94808000D03*
X114651000Y-96708000D03*
X114651000Y-94808000D03*
D29*
X92875000Y-101500000D03*
D30*
G36*
X95150000Y-102350000D02*
G01*
X90600000Y-102350000D01*
X90600000Y-100650000D01*
X95150000Y-100650000D01*
X95150000Y-102350000D01*
X95150000Y-102350000D01*
G37*
D29*
X92875000Y-104040000D03*
D30*
G36*
X95150000Y-104890000D02*
G01*
X90600000Y-104890000D01*
X90600000Y-103190000D01*
X95150000Y-103190000D01*
X95150000Y-104890000D01*
X95150000Y-104890000D01*
G37*
D29*
X92875000Y-106580000D03*
D30*
G36*
X95150000Y-107430000D02*
G01*
X90600000Y-107430000D01*
X90600000Y-105730000D01*
X95150000Y-105730000D01*
X95150000Y-107430000D01*
X95150000Y-107430000D01*
G37*
D29*
X92875000Y-98960000D03*
D30*
G36*
X95150000Y-99810000D02*
G01*
X90600000Y-99810000D01*
X90600000Y-98110000D01*
X95150000Y-98110000D01*
X95150000Y-99810000D01*
X95150000Y-99810000D01*
G37*
D29*
X92875000Y-96420000D03*
D30*
G36*
X95150000Y-97270000D02*
G01*
X90600000Y-97270000D01*
X90600000Y-95570000D01*
X95150000Y-95570000D01*
X95150000Y-97270000D01*
X95150000Y-97270000D01*
G37*
D29*
X99125000Y-96420000D03*
D30*
G36*
X101400000Y-97270000D02*
G01*
X96850000Y-97270000D01*
X96850000Y-95570000D01*
X101400000Y-95570000D01*
X101400000Y-97270000D01*
X101400000Y-97270000D01*
G37*
D29*
X99125000Y-98960000D03*
D30*
G36*
X101400000Y-99810000D02*
G01*
X96850000Y-99810000D01*
X96850000Y-98110000D01*
X101400000Y-98110000D01*
X101400000Y-99810000D01*
X101400000Y-99810000D01*
G37*
D29*
X99125000Y-101500000D03*
D30*
G36*
X101400000Y-102350000D02*
G01*
X96850000Y-102350000D01*
X96850000Y-100650000D01*
X101400000Y-100650000D01*
X101400000Y-102350000D01*
X101400000Y-102350000D01*
G37*
D29*
X99125000Y-104040000D03*
D30*
G36*
X101400000Y-104890000D02*
G01*
X96850000Y-104890000D01*
X96850000Y-103190000D01*
X101400000Y-103190000D01*
X101400000Y-104890000D01*
X101400000Y-104890000D01*
G37*
D29*
X99125000Y-106580000D03*
D30*
G36*
X101400000Y-107430000D02*
G01*
X96850000Y-107430000D01*
X96850000Y-105730000D01*
X101400000Y-105730000D01*
X101400000Y-107430000D01*
X101400000Y-107430000D01*
G37*
D31*
X106325000Y-116568000D03*
X99675000Y-116568000D03*
X106075000Y-116568000D03*
X99925000Y-116568000D03*
X105525000Y-116568000D03*
X100475000Y-116568000D03*
X105275000Y-116568000D03*
X100725000Y-116568000D03*
D32*
X102750000Y-116568000D03*
X103750000Y-116568000D03*
X104250000Y-116568000D03*
X103250000Y-116568000D03*
X104750000Y-116568000D03*
X102250000Y-116568000D03*
X101750000Y-116568000D03*
X101250000Y-116568000D03*
D10*
X179738000Y-122500000D03*
X181262000Y-122500000D03*
D18*
X167767000Y-116586000D03*
X167767000Y-117602000D03*
X168910000Y-117602000D03*
X168910000Y-116586000D03*
M02*
