G04 #@! TF.GenerationSoftware,KiCad,Pcbnew,5.1.0-rc2-unknown-036be7d~80~ubuntu16.04.1*
G04 #@! TF.CreationDate,2023-03-31T11:14:17+03:00*
G04 #@! TF.ProjectId,ESP32-C6-EVB_Rev_A,45535033-322d-4433-962d-4556425f5265,A*
G04 #@! TF.SameCoordinates,Original*
G04 #@! TF.FileFunction,Soldermask,Bot*
G04 #@! TF.FilePolarity,Negative*
%FSLAX46Y46*%
G04 Gerber Fmt 4.6, Leading zero omitted, Abs format (unit mm)*
G04 Created by KiCad (PCBNEW 5.1.0-rc2-unknown-036be7d~80~ubuntu16.04.1) date 2023-03-31 11:14:17*
%MOMM*%
%LPD*%
G04 APERTURE LIST*
%ADD10C,1.901600*%
%ADD11C,2.641600*%
%ADD12R,3.149600X3.149600*%
%ADD13C,3.149600*%
%ADD14O,2.101600X5.101600*%
%ADD15O,5.101600X2.101600*%
%ADD16O,1.101600X1.601600*%
%ADD17R,1.879600X1.879600*%
%ADD18C,1.625600*%
%ADD19R,1.625600X1.625600*%
%ADD20C,1.879600*%
%ADD21C,3.401601*%
%ADD22C,1.301600*%
%ADD23O,1.301600X2.301600*%
%ADD24C,0.701600*%
%ADD25O,1.401600X2.101600*%
G04 APERTURE END LIST*
D10*
X176290000Y-104000000D03*
D11*
X121000000Y-83300000D03*
X127000000Y-69300000D03*
X115000000Y-69300000D03*
X115000000Y-81300000D03*
X127000000Y-81300000D03*
X139000000Y-83300000D03*
X145000000Y-69300000D03*
X133000000Y-69300000D03*
X133000000Y-81300000D03*
X145000000Y-81300000D03*
X157000000Y-83300000D03*
X163000000Y-69300000D03*
X151000000Y-69300000D03*
X151000000Y-81300000D03*
X163000000Y-81300000D03*
X175000000Y-83300000D03*
X181000000Y-69300000D03*
X169000000Y-69300000D03*
X169000000Y-81300000D03*
X181000000Y-81300000D03*
D12*
X108000000Y-59500000D03*
D13*
X103000000Y-59500000D03*
D14*
X100975000Y-65700000D03*
D15*
X105425000Y-62500000D03*
X105425000Y-69000000D03*
D16*
X175407000Y-117983000D03*
X176657000Y-117983000D03*
X177907000Y-117983000D03*
X179157000Y-117983000D03*
X180407000Y-117983000D03*
X181657000Y-117983000D03*
D17*
X176530000Y-123571000D03*
D18*
X99020000Y-72390000D03*
D19*
X94020000Y-72390000D03*
D18*
X104628000Y-89789000D03*
D19*
X102128000Y-89789000D03*
D13*
X121000000Y-59500000D03*
D12*
X126000000Y-59500000D03*
D13*
X116000000Y-59500000D03*
X139000000Y-59500000D03*
D12*
X144000000Y-59500000D03*
D13*
X134000000Y-59500000D03*
X152000000Y-59500000D03*
D12*
X162000000Y-59500000D03*
D13*
X157000000Y-59500000D03*
X170000000Y-59500000D03*
D12*
X180000000Y-59500000D03*
D13*
X175000000Y-59500000D03*
D20*
X188500000Y-85680000D03*
X188500000Y-83140000D03*
X188500000Y-78060000D03*
X188500000Y-80600000D03*
X188500000Y-75520000D03*
X188500000Y-72980000D03*
D17*
X188500000Y-62820000D03*
D20*
X188500000Y-65360000D03*
X188500000Y-67900000D03*
X188500000Y-70440000D03*
D13*
X118500000Y-120500000D03*
D12*
X113500000Y-120500000D03*
X126500000Y-120500000D03*
D13*
X131500000Y-120500000D03*
D12*
X139500000Y-120500000D03*
D13*
X144500000Y-120500000D03*
X157500000Y-120500000D03*
D12*
X152500000Y-120500000D03*
D21*
X93500000Y-121500000D03*
X93500000Y-58500000D03*
X186500000Y-58500000D03*
X186500000Y-121500000D03*
D10*
X94107000Y-84963000D03*
D22*
X96000000Y-105310000D03*
X96000000Y-97690000D03*
D23*
X98680000Y-117470000D03*
D24*
X100110000Y-117970000D03*
D25*
X98680000Y-121650000D03*
X107320000Y-121650000D03*
D23*
X107320000Y-117470000D03*
D24*
X105890000Y-117970000D03*
M02*
