G04 #@! TF.GenerationSoftware,KiCad,Pcbnew,5.1.0-rc2-unknown-036be7d~80~ubuntu16.04.1*
G04 #@! TF.CreationDate,2023-03-31T11:14:17+03:00*
G04 #@! TF.ProjectId,ESP32-C6-EVB_Rev_A,45535033-322d-4433-962d-4556425f5265,A*
G04 #@! TF.SameCoordinates,Original*
G04 #@! TF.FileFunction,Legend,Top*
G04 #@! TF.FilePolarity,Positive*
%FSLAX46Y46*%
G04 Gerber Fmt 4.6, Leading zero omitted, Abs format (unit mm)*
G04 Created by KiCad (PCBNEW 5.1.0-rc2-unknown-036be7d~80~ubuntu16.04.1) date 2023-03-31 11:14:17*
%MOMM*%
%LPD*%
G04 APERTURE LIST*
%ADD10C,0.190500*%
%ADD11C,0.254000*%
%ADD12C,0.317500*%
%ADD13C,0.508000*%
%ADD14C,0.300000*%
%ADD15C,0.150000*%
%ADD16C,0.152400*%
%ADD17C,0.200000*%
%ADD18C,0.127000*%
%ADD19C,0.100000*%
%ADD20C,0.050000*%
G04 APERTURE END LIST*
D10*
X182970714Y-117057714D02*
X182535285Y-117057714D01*
X182753000Y-117057714D02*
X182753000Y-116295714D01*
X182680428Y-116404571D01*
X182607857Y-116477142D01*
X182535285Y-116513428D01*
D11*
X165354000Y-115443000D02*
X167005000Y-117094000D01*
X161290000Y-115443000D02*
X165354000Y-115443000D01*
X186641619Y-62574714D02*
X186641619Y-63155285D01*
X186641619Y-62865000D02*
X185625619Y-62865000D01*
X185770761Y-62961761D01*
X185867523Y-63058523D01*
X185915904Y-63155285D01*
X148583952Y-123897571D02*
X149358047Y-123897571D01*
X148971000Y-124284619D02*
X148971000Y-123510523D01*
X135502952Y-123897571D02*
X136277047Y-123897571D01*
X135890000Y-124284619D02*
X135890000Y-123510523D01*
X122548952Y-123897571D02*
X123323047Y-123897571D01*
X122936000Y-124284619D02*
X122936000Y-123510523D01*
X109594952Y-123897571D02*
X110369047Y-123897571D01*
X109982000Y-124284619D02*
X109982000Y-123510523D01*
D12*
X146902714Y-99102333D02*
X146842238Y-99041857D01*
X146721285Y-98860428D01*
X146660809Y-98739476D01*
X146600333Y-98558047D01*
X146539857Y-98255666D01*
X146539857Y-98013761D01*
X146600333Y-97711380D01*
X146660809Y-97529952D01*
X146721285Y-97409000D01*
X146842238Y-97227571D01*
X146902714Y-97167095D01*
X148112238Y-98497571D02*
X148051761Y-98558047D01*
X147870333Y-98618523D01*
X147749380Y-98618523D01*
X147567952Y-98558047D01*
X147447000Y-98437095D01*
X147386523Y-98316142D01*
X147326047Y-98074238D01*
X147326047Y-97892809D01*
X147386523Y-97650904D01*
X147447000Y-97529952D01*
X147567952Y-97409000D01*
X147749380Y-97348523D01*
X147870333Y-97348523D01*
X148051761Y-97409000D01*
X148112238Y-97469476D01*
X148535571Y-99102333D02*
X148596047Y-99041857D01*
X148717000Y-98860428D01*
X148777476Y-98739476D01*
X148837952Y-98558047D01*
X148898428Y-98255666D01*
X148898428Y-98013761D01*
X148837952Y-97711380D01*
X148777476Y-97529952D01*
X148717000Y-97409000D01*
X148596047Y-97227571D01*
X148535571Y-97167095D01*
X150410333Y-97469476D02*
X150470809Y-97409000D01*
X150591761Y-97348523D01*
X150894142Y-97348523D01*
X151015095Y-97409000D01*
X151075571Y-97469476D01*
X151136047Y-97590428D01*
X151136047Y-97711380D01*
X151075571Y-97892809D01*
X150349857Y-98618523D01*
X151136047Y-98618523D01*
X151922238Y-97348523D02*
X152043190Y-97348523D01*
X152164142Y-97409000D01*
X152224619Y-97469476D01*
X152285095Y-97590428D01*
X152345571Y-97832333D01*
X152345571Y-98134714D01*
X152285095Y-98376619D01*
X152224619Y-98497571D01*
X152164142Y-98558047D01*
X152043190Y-98618523D01*
X151922238Y-98618523D01*
X151801285Y-98558047D01*
X151740809Y-98497571D01*
X151680333Y-98376619D01*
X151619857Y-98134714D01*
X151619857Y-97832333D01*
X151680333Y-97590428D01*
X151740809Y-97469476D01*
X151801285Y-97409000D01*
X151922238Y-97348523D01*
X152829380Y-97469476D02*
X152889857Y-97409000D01*
X153010809Y-97348523D01*
X153313190Y-97348523D01*
X153434142Y-97409000D01*
X153494619Y-97469476D01*
X153555095Y-97590428D01*
X153555095Y-97711380D01*
X153494619Y-97892809D01*
X152768904Y-98618523D01*
X153555095Y-98618523D01*
X153978428Y-97348523D02*
X154764619Y-97348523D01*
X154341285Y-97832333D01*
X154522714Y-97832333D01*
X154643666Y-97892809D01*
X154704142Y-97953285D01*
X154764619Y-98074238D01*
X154764619Y-98376619D01*
X154704142Y-98497571D01*
X154643666Y-98558047D01*
X154522714Y-98618523D01*
X154159857Y-98618523D01*
X154038904Y-98558047D01*
X153978428Y-98497571D01*
X128693333Y-98618523D02*
X128270000Y-98013761D01*
X127967619Y-98618523D02*
X127967619Y-97348523D01*
X128451428Y-97348523D01*
X128572380Y-97409000D01*
X128632857Y-97469476D01*
X128693333Y-97590428D01*
X128693333Y-97771857D01*
X128632857Y-97892809D01*
X128572380Y-97953285D01*
X128451428Y-98013761D01*
X127967619Y-98013761D01*
X129721428Y-98558047D02*
X129600476Y-98618523D01*
X129358571Y-98618523D01*
X129237619Y-98558047D01*
X129177142Y-98437095D01*
X129177142Y-97953285D01*
X129237619Y-97832333D01*
X129358571Y-97771857D01*
X129600476Y-97771857D01*
X129721428Y-97832333D01*
X129781904Y-97953285D01*
X129781904Y-98074238D01*
X129177142Y-98195190D01*
X130205238Y-97771857D02*
X130507619Y-98618523D01*
X130810000Y-97771857D01*
X131293809Y-98497571D02*
X131354285Y-98558047D01*
X131293809Y-98618523D01*
X131233333Y-98558047D01*
X131293809Y-98497571D01*
X131293809Y-98618523D01*
X131838095Y-98255666D02*
X132442857Y-98255666D01*
X131717142Y-98618523D02*
X132140476Y-97348523D01*
X132563809Y-98618523D01*
D13*
X127919238Y-94941571D02*
X128765904Y-94941571D01*
X129128761Y-96272047D02*
X127919238Y-96272047D01*
X127919238Y-93732047D01*
X129128761Y-93732047D01*
X130096380Y-96151095D02*
X130459238Y-96272047D01*
X131064000Y-96272047D01*
X131305904Y-96151095D01*
X131426857Y-96030142D01*
X131547809Y-95788238D01*
X131547809Y-95546333D01*
X131426857Y-95304428D01*
X131305904Y-95183476D01*
X131064000Y-95062523D01*
X130580190Y-94941571D01*
X130338285Y-94820619D01*
X130217333Y-94699666D01*
X130096380Y-94457761D01*
X130096380Y-94215857D01*
X130217333Y-93973952D01*
X130338285Y-93853000D01*
X130580190Y-93732047D01*
X131184952Y-93732047D01*
X131547809Y-93853000D01*
X132636380Y-96272047D02*
X132636380Y-93732047D01*
X133604000Y-93732047D01*
X133845904Y-93853000D01*
X133966857Y-93973952D01*
X134087809Y-94215857D01*
X134087809Y-94578714D01*
X133966857Y-94820619D01*
X133845904Y-94941571D01*
X133604000Y-95062523D01*
X132636380Y-95062523D01*
X134934476Y-93732047D02*
X136506857Y-93732047D01*
X135660190Y-94699666D01*
X136023047Y-94699666D01*
X136264952Y-94820619D01*
X136385904Y-94941571D01*
X136506857Y-95183476D01*
X136506857Y-95788238D01*
X136385904Y-96030142D01*
X136264952Y-96151095D01*
X136023047Y-96272047D01*
X135297333Y-96272047D01*
X135055428Y-96151095D01*
X134934476Y-96030142D01*
X137474476Y-93973952D02*
X137595428Y-93853000D01*
X137837333Y-93732047D01*
X138442095Y-93732047D01*
X138684000Y-93853000D01*
X138804952Y-93973952D01*
X138925904Y-94215857D01*
X138925904Y-94457761D01*
X138804952Y-94820619D01*
X137353523Y-96272047D01*
X138925904Y-96272047D01*
X140014476Y-95304428D02*
X141949714Y-95304428D01*
X144610666Y-96030142D02*
X144489714Y-96151095D01*
X144126857Y-96272047D01*
X143884952Y-96272047D01*
X143522095Y-96151095D01*
X143280190Y-95909190D01*
X143159238Y-95667285D01*
X143038285Y-95183476D01*
X143038285Y-94820619D01*
X143159238Y-94336809D01*
X143280190Y-94094904D01*
X143522095Y-93853000D01*
X143884952Y-93732047D01*
X144126857Y-93732047D01*
X144489714Y-93853000D01*
X144610666Y-93973952D01*
X146787809Y-93732047D02*
X146304000Y-93732047D01*
X146062095Y-93853000D01*
X145941142Y-93973952D01*
X145699238Y-94336809D01*
X145578285Y-94820619D01*
X145578285Y-95788238D01*
X145699238Y-96030142D01*
X145820190Y-96151095D01*
X146062095Y-96272047D01*
X146545904Y-96272047D01*
X146787809Y-96151095D01*
X146908761Y-96030142D01*
X147029714Y-95788238D01*
X147029714Y-95183476D01*
X146908761Y-94941571D01*
X146787809Y-94820619D01*
X146545904Y-94699666D01*
X146062095Y-94699666D01*
X145820190Y-94820619D01*
X145699238Y-94941571D01*
X145578285Y-95183476D01*
X148118285Y-95304428D02*
X150053523Y-95304428D01*
X151263047Y-94941571D02*
X152109714Y-94941571D01*
X152472571Y-96272047D02*
X151263047Y-96272047D01*
X151263047Y-93732047D01*
X152472571Y-93732047D01*
X153198285Y-93732047D02*
X154044952Y-96272047D01*
X154891619Y-93732047D01*
X156584952Y-94941571D02*
X156947809Y-95062523D01*
X157068761Y-95183476D01*
X157189714Y-95425380D01*
X157189714Y-95788238D01*
X157068761Y-96030142D01*
X156947809Y-96151095D01*
X156705904Y-96272047D01*
X155738285Y-96272047D01*
X155738285Y-93732047D01*
X156584952Y-93732047D01*
X156826857Y-93853000D01*
X156947809Y-93973952D01*
X157068761Y-94215857D01*
X157068761Y-94457761D01*
X156947809Y-94699666D01*
X156826857Y-94820619D01*
X156584952Y-94941571D01*
X155738285Y-94941571D01*
D11*
X164000000Y-96500000D02*
X164000000Y-114500000D01*
X189500000Y-96500000D02*
X182880000Y-96500000D01*
X164000000Y-114500000D02*
X164750000Y-114500000D01*
X164000000Y-96500000D02*
X164750000Y-96500000D01*
X189500000Y-114500000D02*
X182880000Y-114500000D01*
X183500000Y-96500000D02*
X183500000Y-114500000D01*
X189500000Y-96500000D02*
X189500000Y-114500000D01*
D14*
X121000000Y-80300000D02*
G75*
G03X123000000Y-78300000I0J2000000D01*
G01*
X123000000Y-78000000D02*
G75*
G03X121000000Y-76000000I-2000000J0D01*
G01*
X121000000Y-69900000D02*
X119600000Y-68500000D01*
X121000000Y-76000000D02*
X121000000Y-70100000D01*
X121000000Y-70100000D02*
X121000000Y-69900000D01*
X117200000Y-69300000D02*
X120300000Y-69300000D01*
X124700000Y-69300000D02*
X121700000Y-69300000D01*
X123000000Y-77900000D02*
X123000000Y-78400000D01*
X121000000Y-81600000D02*
X121000000Y-80300000D01*
X120300000Y-76900000D02*
X121600000Y-79400000D01*
X120300000Y-76900000D02*
X120300000Y-79400000D01*
X120300000Y-79400000D02*
X121600000Y-79400000D01*
X121600000Y-79400000D02*
X121600000Y-76900000D01*
X121600000Y-76900000D02*
X120300000Y-76900000D01*
X115000000Y-78200000D02*
X120300000Y-78200000D01*
X127000000Y-78200000D02*
X121600000Y-78200000D01*
X115000000Y-78900000D02*
X115000000Y-78200000D01*
X127000000Y-78900000D02*
X127000000Y-78200000D01*
X119600000Y-84600000D02*
X113200000Y-84600000D01*
X128800000Y-84600000D02*
X122400000Y-84600000D01*
X113200000Y-65400000D02*
X113200000Y-84600000D01*
X128800000Y-84600000D02*
X128800000Y-65400000D01*
X128800000Y-65400000D02*
X113200000Y-65400000D01*
X139000000Y-80300000D02*
G75*
G03X141000000Y-78300000I0J2000000D01*
G01*
X141000000Y-78000000D02*
G75*
G03X139000000Y-76000000I-2000000J0D01*
G01*
X139000000Y-69900000D02*
X137600000Y-68500000D01*
X139000000Y-76000000D02*
X139000000Y-70100000D01*
X139000000Y-70100000D02*
X139000000Y-69900000D01*
X135200000Y-69300000D02*
X138300000Y-69300000D01*
X142700000Y-69300000D02*
X139700000Y-69300000D01*
X141000000Y-77900000D02*
X141000000Y-78400000D01*
X139000000Y-81600000D02*
X139000000Y-80300000D01*
X138300000Y-76900000D02*
X139600000Y-79400000D01*
X138300000Y-76900000D02*
X138300000Y-79400000D01*
X138300000Y-79400000D02*
X139600000Y-79400000D01*
X139600000Y-79400000D02*
X139600000Y-76900000D01*
X139600000Y-76900000D02*
X138300000Y-76900000D01*
X133000000Y-78200000D02*
X138300000Y-78200000D01*
X145000000Y-78200000D02*
X139600000Y-78200000D01*
X133000000Y-78900000D02*
X133000000Y-78200000D01*
X145000000Y-78900000D02*
X145000000Y-78200000D01*
X137600000Y-84600000D02*
X131200000Y-84600000D01*
X146800000Y-84600000D02*
X140400000Y-84600000D01*
X131200000Y-65400000D02*
X131200000Y-84600000D01*
X146800000Y-84600000D02*
X146800000Y-65400000D01*
X146800000Y-65400000D02*
X131200000Y-65400000D01*
X157000000Y-80300000D02*
G75*
G03X159000000Y-78300000I0J2000000D01*
G01*
X159000000Y-78000000D02*
G75*
G03X157000000Y-76000000I-2000000J0D01*
G01*
X157000000Y-69900000D02*
X155600000Y-68500000D01*
X157000000Y-76000000D02*
X157000000Y-70100000D01*
X157000000Y-70100000D02*
X157000000Y-69900000D01*
X153200000Y-69300000D02*
X156300000Y-69300000D01*
X160700000Y-69300000D02*
X157700000Y-69300000D01*
X159000000Y-77900000D02*
X159000000Y-78400000D01*
X157000000Y-81600000D02*
X157000000Y-80300000D01*
X156300000Y-76900000D02*
X157600000Y-79400000D01*
X156300000Y-76900000D02*
X156300000Y-79400000D01*
X156300000Y-79400000D02*
X157600000Y-79400000D01*
X157600000Y-79400000D02*
X157600000Y-76900000D01*
X157600000Y-76900000D02*
X156300000Y-76900000D01*
X151000000Y-78200000D02*
X156300000Y-78200000D01*
X163000000Y-78200000D02*
X157600000Y-78200000D01*
X151000000Y-78900000D02*
X151000000Y-78200000D01*
X163000000Y-78900000D02*
X163000000Y-78200000D01*
X155600000Y-84600000D02*
X149200000Y-84600000D01*
X164800000Y-84600000D02*
X158400000Y-84600000D01*
X149200000Y-65400000D02*
X149200000Y-84600000D01*
X164800000Y-84600000D02*
X164800000Y-65400000D01*
X164800000Y-65400000D02*
X149200000Y-65400000D01*
X175000000Y-80300000D02*
G75*
G03X177000000Y-78300000I0J2000000D01*
G01*
X177000000Y-78000000D02*
G75*
G03X175000000Y-76000000I-2000000J0D01*
G01*
X175000000Y-69900000D02*
X173600000Y-68500000D01*
X175000000Y-76000000D02*
X175000000Y-70100000D01*
X175000000Y-70100000D02*
X175000000Y-69900000D01*
X171200000Y-69300000D02*
X174300000Y-69300000D01*
X178700000Y-69300000D02*
X175700000Y-69300000D01*
X177000000Y-77900000D02*
X177000000Y-78400000D01*
X175000000Y-81600000D02*
X175000000Y-80300000D01*
X174300000Y-76900000D02*
X175600000Y-79400000D01*
X174300000Y-76900000D02*
X174300000Y-79400000D01*
X174300000Y-79400000D02*
X175600000Y-79400000D01*
X175600000Y-79400000D02*
X175600000Y-76900000D01*
X175600000Y-76900000D02*
X174300000Y-76900000D01*
X169000000Y-78200000D02*
X174300000Y-78200000D01*
X181000000Y-78200000D02*
X175600000Y-78200000D01*
X169000000Y-78900000D02*
X169000000Y-78200000D01*
X181000000Y-78900000D02*
X181000000Y-78200000D01*
X173600000Y-84600000D02*
X167200000Y-84600000D01*
X182800000Y-84600000D02*
X176400000Y-84600000D01*
X167200000Y-65400000D02*
X167200000Y-84600000D01*
X182800000Y-84600000D02*
X182800000Y-65400000D01*
X182800000Y-65400000D02*
X167200000Y-65400000D01*
D11*
X100670000Y-62800000D02*
X100670000Y-61700000D01*
X100850000Y-62800000D02*
X100850000Y-61710000D01*
X101100000Y-62800000D02*
X101100000Y-61700000D01*
X101100000Y-61700000D02*
X100500000Y-61700000D01*
X100500000Y-62800000D02*
X101100000Y-62800000D01*
X110750000Y-62800000D02*
X110750000Y-61700000D01*
X110990000Y-61700000D02*
X110510000Y-61700000D01*
X110990000Y-62800000D02*
X110990000Y-61700000D01*
X110510000Y-62800000D02*
X110990000Y-62800000D01*
X100500000Y-57700000D02*
X101990000Y-57700000D01*
X110510000Y-57700000D02*
X109020000Y-57700000D01*
X106970000Y-57700000D02*
X104030000Y-57700000D01*
X110510000Y-55310000D02*
X100500000Y-55300000D01*
X100500000Y-55300000D02*
X100497000Y-62735000D01*
X110511000Y-62805000D02*
X110510000Y-55310000D01*
X100975000Y-69000000D02*
X100975000Y-68619000D01*
X100975000Y-55500000D02*
X100975000Y-62777000D01*
X100974720Y-69000000D02*
X102453000Y-69000000D01*
X110027000Y-69000000D02*
X108422000Y-69000000D01*
X110027000Y-55500000D02*
X100975000Y-55500000D01*
X110027000Y-69000000D02*
X110027000Y-55500000D01*
X163460000Y-124385000D02*
X173340000Y-124385000D01*
X174510000Y-119915000D02*
X173460000Y-119915000D01*
X174510000Y-122415000D02*
X174510000Y-119915000D01*
X162290000Y-119915000D02*
X163340000Y-119915000D01*
X162290000Y-122415000D02*
X162290000Y-119915000D01*
X183382000Y-115883000D02*
X183382000Y-119083000D01*
X173682000Y-115883000D02*
X183382000Y-115883000D01*
X173682000Y-119083000D02*
X173682000Y-115883000D01*
X183382000Y-119083000D02*
X173682000Y-119083000D01*
X144526000Y-100647500D02*
X144272000Y-100647500D01*
X144526000Y-100647500D02*
X144780000Y-100647500D01*
X144526000Y-101536500D02*
X144780000Y-101536500D01*
X144526000Y-101536500D02*
X144272000Y-101536500D01*
X115951000Y-110744000D02*
X115951000Y-104140000D01*
X121031000Y-110744000D02*
X115951000Y-110744000D01*
X121031000Y-104140000D02*
X121031000Y-110744000D01*
X115951000Y-104140000D02*
X121031000Y-104140000D01*
X117072210Y-109982000D02*
G75*
G03X117072210Y-109982000I-359210J0D01*
G01*
X125349000Y-96266000D02*
X125349000Y-97282000D01*
X126873000Y-96266000D02*
X126873000Y-97282000D01*
X125222000Y-96266000D02*
X125222000Y-97282000D01*
X123698000Y-96266000D02*
X123698000Y-97282000D01*
X101520000Y-72390000D02*
G75*
G03X101520000Y-72390000I-5000000J0D01*
G01*
D15*
X176530000Y-120523000D02*
X177546000Y-120523000D01*
X176276000Y-119761000D02*
X176276000Y-120269000D01*
X177546000Y-119507000D02*
X176530000Y-119507000D01*
X177800000Y-120269000D02*
X177800000Y-119761000D01*
D16*
X177800000Y-119761000D02*
G75*
G03X177546000Y-119507000I-254000J0D01*
G01*
X176530000Y-119507000D02*
G75*
G03X176276000Y-119761000I0J-254000D01*
G01*
X176276000Y-120269000D02*
G75*
G03X176530000Y-120523000I254000J0D01*
G01*
X177546000Y-120523000D02*
G75*
G03X177800000Y-120269000I0J254000D01*
G01*
D11*
X92000000Y-112900000D02*
X93000000Y-112900000D01*
X92000000Y-117100000D02*
X93000000Y-117100000D01*
X90800000Y-117100000D02*
X90900000Y-117100000D01*
X90800000Y-112900000D02*
X90800000Y-117100000D01*
X90900000Y-112900000D02*
X90800000Y-112900000D01*
X94200000Y-112900000D02*
X94100000Y-112900000D01*
X94200000Y-117100000D02*
X94100000Y-117100000D01*
X94200000Y-112900000D02*
X94200000Y-117100000D01*
X93091000Y-79629000D02*
X92075000Y-79629000D01*
X93091000Y-78105000D02*
X92075000Y-78105000D01*
X112014000Y-94488000D02*
X112014000Y-95504000D01*
X113538000Y-94488000D02*
X113538000Y-95504000D01*
X99187000Y-83312000D02*
X99187000Y-84328000D01*
X97663000Y-83312000D02*
X97663000Y-84328000D01*
X93154500Y-89916000D02*
X93154500Y-90170000D01*
X93154500Y-89916000D02*
X93154500Y-89662000D01*
X94043500Y-89916000D02*
X94043500Y-89662000D01*
X94043500Y-89916000D02*
X94043500Y-90170000D01*
X106465021Y-89789000D02*
G75*
G03X106465021Y-89789000I-3087021J0D01*
G01*
X180848000Y-94615000D02*
X181864000Y-94615000D01*
X180848000Y-93091000D02*
X181864000Y-93091000D01*
X181864000Y-91884500D02*
X182118000Y-91884500D01*
X181864000Y-91884500D02*
X181610000Y-91884500D01*
X181864000Y-92773500D02*
X181610000Y-92773500D01*
X181864000Y-92773500D02*
X182118000Y-92773500D01*
X178689000Y-93091000D02*
X177673000Y-93091000D01*
X178689000Y-94615000D02*
X177673000Y-94615000D01*
X126523450Y-63000000D02*
G75*
G03X126523450Y-63000000I-523450J0D01*
G01*
X121533450Y-63010000D02*
G75*
G03X121533450Y-63010000I-523450J0D01*
G01*
X128990000Y-62800000D02*
X128990000Y-61700000D01*
X128750000Y-62800000D02*
X128750000Y-61700000D01*
X114100000Y-62800000D02*
X114100000Y-61700000D01*
X113850000Y-62800000D02*
X113850000Y-61710000D01*
X113670000Y-62800000D02*
X113670000Y-61700000D01*
X116543450Y-63010000D02*
G75*
G03X116543450Y-63010000I-523450J0D01*
G01*
X128540000Y-55310000D02*
X113440000Y-55310000D01*
X113440000Y-55310000D02*
X113450000Y-64590000D01*
X113450000Y-64590000D02*
X128550000Y-64590000D01*
X128550000Y-64590000D02*
X128540000Y-55310000D01*
X127640000Y-57700000D02*
X128540000Y-57700000D01*
X124380000Y-57700000D02*
X122520000Y-57700000D01*
X119450000Y-57700000D02*
X117630000Y-57700000D01*
X114630000Y-57700000D02*
X113440000Y-57700000D01*
X128550000Y-62800000D02*
X129250000Y-62800000D01*
X129250000Y-61700000D02*
X128550000Y-61700000D01*
X129250000Y-62800000D02*
X129250000Y-61700000D01*
X129120000Y-62760000D02*
X129120000Y-61700000D01*
X113450000Y-62800000D02*
X114150000Y-62800000D01*
X114150000Y-62800000D02*
X114150000Y-61700000D01*
X114150000Y-61700000D02*
X113450000Y-61700000D01*
X144523450Y-63000000D02*
G75*
G03X144523450Y-63000000I-523450J0D01*
G01*
X139533450Y-63010000D02*
G75*
G03X139533450Y-63010000I-523450J0D01*
G01*
X146990000Y-62800000D02*
X146990000Y-61700000D01*
X146750000Y-62800000D02*
X146750000Y-61700000D01*
X132100000Y-62800000D02*
X132100000Y-61700000D01*
X131850000Y-62800000D02*
X131850000Y-61710000D01*
X131670000Y-62800000D02*
X131670000Y-61700000D01*
X134543450Y-63010000D02*
G75*
G03X134543450Y-63010000I-523450J0D01*
G01*
X146540000Y-55310000D02*
X131440000Y-55310000D01*
X131440000Y-55310000D02*
X131450000Y-64590000D01*
X131450000Y-64590000D02*
X146550000Y-64590000D01*
X146550000Y-64590000D02*
X146540000Y-55310000D01*
X145640000Y-57700000D02*
X146540000Y-57700000D01*
X142380000Y-57700000D02*
X140520000Y-57700000D01*
X137450000Y-57700000D02*
X135630000Y-57700000D01*
X132630000Y-57700000D02*
X131440000Y-57700000D01*
X146550000Y-62800000D02*
X147250000Y-62800000D01*
X147250000Y-61700000D02*
X146550000Y-61700000D01*
X147250000Y-62800000D02*
X147250000Y-61700000D01*
X147120000Y-62760000D02*
X147120000Y-61700000D01*
X131450000Y-62800000D02*
X132150000Y-62800000D01*
X132150000Y-62800000D02*
X132150000Y-61700000D01*
X132150000Y-61700000D02*
X131450000Y-61700000D01*
X150150000Y-61700000D02*
X149450000Y-61700000D01*
X150150000Y-62800000D02*
X150150000Y-61700000D01*
X149450000Y-62800000D02*
X150150000Y-62800000D01*
X165120000Y-62760000D02*
X165120000Y-61700000D01*
X165250000Y-62800000D02*
X165250000Y-61700000D01*
X165250000Y-61700000D02*
X164550000Y-61700000D01*
X164550000Y-62800000D02*
X165250000Y-62800000D01*
X150630000Y-57700000D02*
X149440000Y-57700000D01*
X155450000Y-57700000D02*
X153630000Y-57700000D01*
X160380000Y-57700000D02*
X158520000Y-57700000D01*
X163640000Y-57700000D02*
X164540000Y-57700000D01*
X164550000Y-64590000D02*
X164540000Y-55310000D01*
X149450000Y-64590000D02*
X164550000Y-64590000D01*
X149440000Y-55310000D02*
X149450000Y-64590000D01*
X164540000Y-55310000D02*
X149440000Y-55310000D01*
X152543450Y-63010000D02*
G75*
G03X152543450Y-63010000I-523450J0D01*
G01*
X149670000Y-62800000D02*
X149670000Y-61700000D01*
X149850000Y-62800000D02*
X149850000Y-61710000D01*
X150100000Y-62800000D02*
X150100000Y-61700000D01*
X164750000Y-62800000D02*
X164750000Y-61700000D01*
X164990000Y-62800000D02*
X164990000Y-61700000D01*
X157533450Y-63010000D02*
G75*
G03X157533450Y-63010000I-523450J0D01*
G01*
X162523450Y-63000000D02*
G75*
G03X162523450Y-63000000I-523450J0D01*
G01*
X168150000Y-61700000D02*
X167450000Y-61700000D01*
X168150000Y-62800000D02*
X168150000Y-61700000D01*
X167450000Y-62800000D02*
X168150000Y-62800000D01*
X183120000Y-62760000D02*
X183120000Y-61700000D01*
X183250000Y-62800000D02*
X183250000Y-61700000D01*
X183250000Y-61700000D02*
X182550000Y-61700000D01*
X182550000Y-62800000D02*
X183250000Y-62800000D01*
X168630000Y-57700000D02*
X167440000Y-57700000D01*
X173450000Y-57700000D02*
X171630000Y-57700000D01*
X178380000Y-57700000D02*
X176520000Y-57700000D01*
X181640000Y-57700000D02*
X182540000Y-57700000D01*
X182550000Y-64590000D02*
X182540000Y-55310000D01*
X167450000Y-64590000D02*
X182550000Y-64590000D01*
X167440000Y-55310000D02*
X167450000Y-64590000D01*
X182540000Y-55310000D02*
X167440000Y-55310000D01*
X170543450Y-63010000D02*
G75*
G03X170543450Y-63010000I-523450J0D01*
G01*
X167670000Y-62800000D02*
X167670000Y-61700000D01*
X167850000Y-62800000D02*
X167850000Y-61710000D01*
X168100000Y-62800000D02*
X168100000Y-61700000D01*
X182750000Y-62800000D02*
X182750000Y-61700000D01*
X182990000Y-62800000D02*
X182990000Y-61700000D01*
X175533450Y-63010000D02*
G75*
G03X175533450Y-63010000I-523450J0D01*
G01*
X180523450Y-63000000D02*
G75*
G03X180523450Y-63000000I-523450J0D01*
G01*
X104847000Y-71040000D02*
X104847000Y-73740000D01*
X108037000Y-71040000D02*
X103037000Y-71040000D01*
X104407000Y-71040000D02*
X104407000Y-73740000D01*
X103037000Y-73740000D02*
X108037000Y-73740000D01*
X112903000Y-107696000D02*
X112903000Y-107315000D01*
X113030000Y-107823000D02*
X113030000Y-107188000D01*
X113157000Y-107950000D02*
X113157000Y-107188000D01*
X113284000Y-107950000D02*
X113284000Y-107061000D01*
X113411000Y-107061000D02*
X113411000Y-108204000D01*
X113538000Y-108204000D02*
X113538000Y-106934000D01*
X113665000Y-106807000D02*
X113665000Y-108331000D01*
X112445800Y-108508800D02*
X112268000Y-108508800D01*
X112445800Y-106603800D02*
X112268000Y-106603800D01*
X112268000Y-108508800D02*
X112268000Y-106603800D01*
X113817400Y-108508800D02*
X113817400Y-106603800D01*
X112445800Y-108508800D02*
X112445800Y-106603800D01*
X112445800Y-107594400D02*
X113817400Y-106603800D01*
X113817400Y-108508800D02*
X112445800Y-107594400D01*
X114401600Y-107556300D02*
X111925100Y-107556300D01*
X125857000Y-107696000D02*
X125857000Y-107315000D01*
X125984000Y-107823000D02*
X125984000Y-107188000D01*
X126111000Y-107950000D02*
X126111000Y-107188000D01*
X126238000Y-107950000D02*
X126238000Y-107061000D01*
X126365000Y-107061000D02*
X126365000Y-108204000D01*
X126492000Y-108204000D02*
X126492000Y-106934000D01*
X126619000Y-106807000D02*
X126619000Y-108331000D01*
X125399800Y-108508800D02*
X125222000Y-108508800D01*
X125399800Y-106603800D02*
X125222000Y-106603800D01*
X125222000Y-108508800D02*
X125222000Y-106603800D01*
X126771400Y-108508800D02*
X126771400Y-106603800D01*
X125399800Y-108508800D02*
X125399800Y-106603800D01*
X125399800Y-107594400D02*
X126771400Y-106603800D01*
X126771400Y-108508800D02*
X125399800Y-107594400D01*
X127355600Y-107556300D02*
X124879100Y-107556300D01*
X140436600Y-107556300D02*
X137960100Y-107556300D01*
X139852400Y-108508800D02*
X138480800Y-107594400D01*
X138480800Y-107594400D02*
X139852400Y-106603800D01*
X138480800Y-108508800D02*
X138480800Y-106603800D01*
X139852400Y-108508800D02*
X139852400Y-106603800D01*
X138303000Y-108508800D02*
X138303000Y-106603800D01*
X138480800Y-106603800D02*
X138303000Y-106603800D01*
X138480800Y-108508800D02*
X138303000Y-108508800D01*
X139700000Y-106807000D02*
X139700000Y-108331000D01*
X139573000Y-108204000D02*
X139573000Y-106934000D01*
X139446000Y-107061000D02*
X139446000Y-108204000D01*
X139319000Y-107950000D02*
X139319000Y-107061000D01*
X139192000Y-107950000D02*
X139192000Y-107188000D01*
X139065000Y-107823000D02*
X139065000Y-107188000D01*
X138938000Y-107696000D02*
X138938000Y-107315000D01*
X151892000Y-107696000D02*
X151892000Y-107315000D01*
X152019000Y-107823000D02*
X152019000Y-107188000D01*
X152146000Y-107950000D02*
X152146000Y-107188000D01*
X152273000Y-107950000D02*
X152273000Y-107061000D01*
X152400000Y-107061000D02*
X152400000Y-108204000D01*
X152527000Y-108204000D02*
X152527000Y-106934000D01*
X152654000Y-106807000D02*
X152654000Y-108331000D01*
X151434800Y-108508800D02*
X151257000Y-108508800D01*
X151434800Y-106603800D02*
X151257000Y-106603800D01*
X151257000Y-108508800D02*
X151257000Y-106603800D01*
X152806400Y-108508800D02*
X152806400Y-106603800D01*
X151434800Y-108508800D02*
X151434800Y-106603800D01*
X151434800Y-107594400D02*
X152806400Y-106603800D01*
X152806400Y-108508800D02*
X151434800Y-107594400D01*
X153390600Y-107556300D02*
X150914100Y-107556300D01*
X102315000Y-82368000D02*
X99615000Y-82368000D01*
X102315000Y-85558000D02*
X102315000Y-80558000D01*
X102315000Y-81928000D02*
X99615000Y-81928000D01*
X99615000Y-80558000D02*
X99615000Y-85558000D01*
X112990000Y-88566000D02*
X107990000Y-88566000D01*
X111620000Y-91266000D02*
X111620000Y-88566000D01*
X107990000Y-91266000D02*
X112990000Y-91266000D01*
X111180000Y-91266000D02*
X111180000Y-88566000D01*
X121818400Y-88150700D02*
X124294900Y-88150700D01*
X122402600Y-87198200D02*
X123774200Y-88112600D01*
X123774200Y-88112600D02*
X122402600Y-89103200D01*
X123774200Y-87198200D02*
X123774200Y-89103200D01*
X122402600Y-87198200D02*
X122402600Y-89103200D01*
X123952000Y-87198200D02*
X123952000Y-89103200D01*
X123774200Y-89103200D02*
X123952000Y-89103200D01*
X123774200Y-87198200D02*
X123952000Y-87198200D01*
X122555000Y-88900000D02*
X122555000Y-87376000D01*
X122682000Y-87503000D02*
X122682000Y-88773000D01*
X122809000Y-88646000D02*
X122809000Y-87503000D01*
X122936000Y-87757000D02*
X122936000Y-88646000D01*
X123063000Y-87757000D02*
X123063000Y-88519000D01*
X123190000Y-87884000D02*
X123190000Y-88519000D01*
X123317000Y-88011000D02*
X123317000Y-88392000D01*
X137693400Y-88150700D02*
X140169900Y-88150700D01*
X138277600Y-87198200D02*
X139649200Y-88112600D01*
X139649200Y-88112600D02*
X138277600Y-89103200D01*
X139649200Y-87198200D02*
X139649200Y-89103200D01*
X138277600Y-87198200D02*
X138277600Y-89103200D01*
X139827000Y-87198200D02*
X139827000Y-89103200D01*
X139649200Y-89103200D02*
X139827000Y-89103200D01*
X139649200Y-87198200D02*
X139827000Y-87198200D01*
X138430000Y-88900000D02*
X138430000Y-87376000D01*
X138557000Y-87503000D02*
X138557000Y-88773000D01*
X138684000Y-88646000D02*
X138684000Y-87503000D01*
X138811000Y-87757000D02*
X138811000Y-88646000D01*
X138938000Y-87757000D02*
X138938000Y-88519000D01*
X139065000Y-87884000D02*
X139065000Y-88519000D01*
X139192000Y-88011000D02*
X139192000Y-88392000D01*
X157226000Y-88011000D02*
X157226000Y-88392000D01*
X157099000Y-87884000D02*
X157099000Y-88519000D01*
X156972000Y-87757000D02*
X156972000Y-88519000D01*
X156845000Y-87757000D02*
X156845000Y-88646000D01*
X156718000Y-88646000D02*
X156718000Y-87503000D01*
X156591000Y-87503000D02*
X156591000Y-88773000D01*
X156464000Y-88900000D02*
X156464000Y-87376000D01*
X157683200Y-87198200D02*
X157861000Y-87198200D01*
X157683200Y-89103200D02*
X157861000Y-89103200D01*
X157861000Y-87198200D02*
X157861000Y-89103200D01*
X156311600Y-87198200D02*
X156311600Y-89103200D01*
X157683200Y-87198200D02*
X157683200Y-89103200D01*
X157683200Y-88112600D02*
X156311600Y-89103200D01*
X156311600Y-87198200D02*
X157683200Y-88112600D01*
X155727400Y-88150700D02*
X158203900Y-88150700D01*
X172364400Y-88150700D02*
X174840900Y-88150700D01*
X172948600Y-87198200D02*
X174320200Y-88112600D01*
X174320200Y-88112600D02*
X172948600Y-89103200D01*
X174320200Y-87198200D02*
X174320200Y-89103200D01*
X172948600Y-87198200D02*
X172948600Y-89103200D01*
X174498000Y-87198200D02*
X174498000Y-89103200D01*
X174320200Y-89103200D02*
X174498000Y-89103200D01*
X174320200Y-87198200D02*
X174498000Y-87198200D01*
X173101000Y-88900000D02*
X173101000Y-87376000D01*
X173228000Y-87503000D02*
X173228000Y-88773000D01*
X173355000Y-88646000D02*
X173355000Y-87503000D01*
X173482000Y-87757000D02*
X173482000Y-88646000D01*
X173609000Y-87757000D02*
X173609000Y-88519000D01*
X173736000Y-87884000D02*
X173736000Y-88519000D01*
X173863000Y-88011000D02*
X173863000Y-88392000D01*
X187230000Y-84664000D02*
X187484000Y-84410000D01*
X189516000Y-84410000D02*
X189770000Y-84664000D01*
X189770000Y-84664000D02*
X189770000Y-86696000D01*
X187230000Y-86696000D02*
X187230000Y-84664000D01*
X187484000Y-86950000D02*
X187230000Y-86696000D01*
X189770000Y-86696000D02*
X189516000Y-86950000D01*
X189770000Y-84156000D02*
X189516000Y-84410000D01*
X187230000Y-84664000D02*
X187484000Y-84410000D01*
X187484000Y-84410000D02*
X187230000Y-84156000D01*
X187230000Y-86696000D02*
X187230000Y-84664000D01*
X189516000Y-84410000D02*
X189770000Y-84664000D01*
X189770000Y-84664000D02*
X189770000Y-86696000D01*
X189516000Y-86950000D02*
X187484000Y-86950000D01*
X187484000Y-86950000D02*
X187230000Y-86696000D01*
X187230000Y-84156000D02*
X187230000Y-82124000D01*
X189770000Y-86696000D02*
X189516000Y-86950000D01*
X189770000Y-82124000D02*
X189770000Y-84156000D01*
X189516000Y-81870000D02*
X189770000Y-82124000D01*
X187230000Y-82124000D02*
X187484000Y-81870000D01*
X187230000Y-77044000D02*
X187484000Y-76790000D01*
X189516000Y-76790000D02*
X189770000Y-77044000D01*
X189770000Y-77044000D02*
X189770000Y-79076000D01*
X189770000Y-81616000D02*
X189516000Y-81870000D01*
X187230000Y-79076000D02*
X187230000Y-77044000D01*
X187484000Y-81870000D02*
X187230000Y-81616000D01*
X189770000Y-79584000D02*
X189770000Y-81616000D01*
X189516000Y-79330000D02*
X189770000Y-79584000D01*
X187230000Y-81616000D02*
X187230000Y-79584000D01*
X187484000Y-79330000D02*
X187230000Y-79076000D01*
X187230000Y-79584000D02*
X187484000Y-79330000D01*
X189770000Y-79076000D02*
X189516000Y-79330000D01*
X189770000Y-81616000D02*
X189516000Y-81870000D01*
X187484000Y-81870000D02*
X187230000Y-81616000D01*
X187230000Y-81616000D02*
X187230000Y-79584000D01*
X189770000Y-79584000D02*
X189770000Y-81616000D01*
X189516000Y-79330000D02*
X189770000Y-79584000D01*
X187230000Y-79584000D02*
X187484000Y-79330000D01*
X187230000Y-74504000D02*
X187484000Y-74250000D01*
X189516000Y-74250000D02*
X189770000Y-74504000D01*
X189770000Y-74504000D02*
X189770000Y-76536000D01*
X187230000Y-76536000D02*
X187230000Y-74504000D01*
X187484000Y-76790000D02*
X187230000Y-76536000D01*
X189770000Y-76536000D02*
X189516000Y-76790000D01*
X189770000Y-73996000D02*
X189516000Y-74250000D01*
X187230000Y-74504000D02*
X187484000Y-74250000D01*
X187484000Y-74250000D02*
X187230000Y-73996000D01*
X187230000Y-76536000D02*
X187230000Y-74504000D01*
X189516000Y-74250000D02*
X189770000Y-74504000D01*
X189770000Y-74504000D02*
X189770000Y-76536000D01*
X187484000Y-76790000D02*
X187230000Y-76536000D01*
X187230000Y-69424000D02*
X187484000Y-69170000D01*
X187230000Y-73996000D02*
X187230000Y-71964000D01*
X189770000Y-76536000D02*
X189516000Y-76790000D01*
X189770000Y-71964000D02*
X189770000Y-73996000D01*
X189516000Y-71710000D02*
X189770000Y-71964000D01*
X189770000Y-61550000D02*
X189770000Y-61804000D01*
X189770000Y-61804000D02*
X189770000Y-63836000D01*
X189770000Y-63836000D02*
X189516000Y-64090000D01*
X189516000Y-64090000D02*
X189770000Y-64344000D01*
X189770000Y-64344000D02*
X189770000Y-66376000D01*
X189770000Y-66376000D02*
X189516000Y-66630000D01*
X189516000Y-66630000D02*
X189770000Y-66884000D01*
X189770000Y-66884000D02*
X189770000Y-68916000D01*
X189770000Y-68916000D02*
X189516000Y-69170000D01*
X189516000Y-69170000D02*
X189770000Y-69424000D01*
X189770000Y-69424000D02*
X189770000Y-71456000D01*
X189770000Y-71456000D02*
X189516000Y-71710000D01*
X187484000Y-71710000D02*
X187230000Y-71456000D01*
X187230000Y-71456000D02*
X187230000Y-69424000D01*
X187230000Y-71964000D02*
X187484000Y-71710000D01*
X187484000Y-69170000D02*
X187230000Y-68916000D01*
X187230000Y-68916000D02*
X187230000Y-66884000D01*
X189516000Y-61550000D02*
X189770000Y-61804000D01*
X187230000Y-61804000D02*
X187484000Y-61550000D01*
X187230000Y-62058000D02*
X187230000Y-61550000D01*
X187230000Y-66376000D02*
X187230000Y-64344000D01*
X187230000Y-64344000D02*
X187484000Y-64090000D01*
X187484000Y-64090000D02*
X187230000Y-63836000D01*
X187230000Y-63836000D02*
X187230000Y-62058000D01*
X187230000Y-66376000D02*
X187484000Y-66630000D01*
X187484000Y-66630000D02*
X187230000Y-66884000D01*
X189770000Y-61550000D02*
X187230000Y-61550000D01*
X109093000Y-91795600D02*
X109093000Y-92506800D01*
X109931200Y-91795600D02*
X109093000Y-91795600D01*
X109931200Y-94640400D02*
X109093000Y-94640400D01*
X109093000Y-93929200D02*
X109093000Y-94640400D01*
X110990000Y-115600000D02*
X110990000Y-124690000D01*
X121000000Y-115600000D02*
X110990000Y-115600000D01*
X121000000Y-124700000D02*
X121000000Y-115600000D01*
X110990000Y-124690000D02*
X121000000Y-124700000D01*
X114530000Y-122300000D02*
X117470000Y-122300000D01*
X110990000Y-122300000D02*
X112480000Y-122300000D01*
X121000000Y-122300000D02*
X119510000Y-122300000D01*
X114023450Y-117000000D02*
G75*
G03X114023450Y-117000000I-523450J0D01*
G01*
X119013450Y-116990000D02*
G75*
G03X119013450Y-116990000I-523450J0D01*
G01*
X121000000Y-115410000D02*
X110990000Y-115410000D01*
X121000000Y-115840000D02*
X121000000Y-115410000D01*
X110990000Y-115780000D02*
X110990000Y-115410000D01*
X110990000Y-117200000D02*
X110510000Y-117200000D01*
X110510000Y-117200000D02*
X110510000Y-118300000D01*
X110510000Y-118300000D02*
X110990000Y-118300000D01*
X110750000Y-117200000D02*
X110750000Y-118300000D01*
X121000000Y-117200000D02*
X120400000Y-117200000D01*
X120400000Y-118300000D02*
X121000000Y-118300000D01*
X120400000Y-117200000D02*
X120400000Y-118300000D01*
X120650000Y-117200000D02*
X120650000Y-118290000D01*
X120830000Y-117200000D02*
X120830000Y-118300000D01*
X133830000Y-117200000D02*
X133830000Y-118300000D01*
X133650000Y-117200000D02*
X133650000Y-118290000D01*
X133400000Y-117200000D02*
X133400000Y-118300000D01*
X133400000Y-118300000D02*
X134000000Y-118300000D01*
X134000000Y-117200000D02*
X133400000Y-117200000D01*
X123750000Y-117200000D02*
X123750000Y-118300000D01*
X123510000Y-118300000D02*
X123990000Y-118300000D01*
X123510000Y-117200000D02*
X123510000Y-118300000D01*
X123990000Y-117200000D02*
X123510000Y-117200000D01*
X123990000Y-115780000D02*
X123990000Y-115410000D01*
X134000000Y-115840000D02*
X134000000Y-115410000D01*
X134000000Y-115410000D02*
X123990000Y-115410000D01*
X132013450Y-116990000D02*
G75*
G03X132013450Y-116990000I-523450J0D01*
G01*
X127023450Y-117000000D02*
G75*
G03X127023450Y-117000000I-523450J0D01*
G01*
X134000000Y-122300000D02*
X132510000Y-122300000D01*
X123990000Y-122300000D02*
X125480000Y-122300000D01*
X127530000Y-122300000D02*
X130470000Y-122300000D01*
X123990000Y-124690000D02*
X134000000Y-124700000D01*
X134000000Y-124700000D02*
X134000000Y-115600000D01*
X134000000Y-115600000D02*
X123990000Y-115600000D01*
X123990000Y-115600000D02*
X123990000Y-124690000D01*
X146830000Y-117200000D02*
X146830000Y-118300000D01*
X146650000Y-117200000D02*
X146650000Y-118290000D01*
X146400000Y-117200000D02*
X146400000Y-118300000D01*
X146400000Y-118300000D02*
X147000000Y-118300000D01*
X147000000Y-117200000D02*
X146400000Y-117200000D01*
X136750000Y-117200000D02*
X136750000Y-118300000D01*
X136510000Y-118300000D02*
X136990000Y-118300000D01*
X136510000Y-117200000D02*
X136510000Y-118300000D01*
X136990000Y-117200000D02*
X136510000Y-117200000D01*
X136990000Y-115780000D02*
X136990000Y-115410000D01*
X147000000Y-115840000D02*
X147000000Y-115410000D01*
X147000000Y-115410000D02*
X136990000Y-115410000D01*
X145013450Y-116990000D02*
G75*
G03X145013450Y-116990000I-523450J0D01*
G01*
X140023450Y-117000000D02*
G75*
G03X140023450Y-117000000I-523450J0D01*
G01*
X147000000Y-122300000D02*
X145510000Y-122300000D01*
X136990000Y-122300000D02*
X138480000Y-122300000D01*
X140530000Y-122300000D02*
X143470000Y-122300000D01*
X136990000Y-124690000D02*
X147000000Y-124700000D01*
X147000000Y-124700000D02*
X147000000Y-115600000D01*
X147000000Y-115600000D02*
X136990000Y-115600000D01*
X136990000Y-115600000D02*
X136990000Y-124690000D01*
X149990000Y-115600000D02*
X149990000Y-124690000D01*
X160000000Y-115600000D02*
X149990000Y-115600000D01*
X160000000Y-124700000D02*
X160000000Y-115600000D01*
X149990000Y-124690000D02*
X160000000Y-124700000D01*
X153530000Y-122300000D02*
X156470000Y-122300000D01*
X149990000Y-122300000D02*
X151480000Y-122300000D01*
X160000000Y-122300000D02*
X158510000Y-122300000D01*
X153023450Y-117000000D02*
G75*
G03X153023450Y-117000000I-523450J0D01*
G01*
X158013450Y-116990000D02*
G75*
G03X158013450Y-116990000I-523450J0D01*
G01*
X160000000Y-115410000D02*
X149990000Y-115410000D01*
X160000000Y-115840000D02*
X160000000Y-115410000D01*
X149990000Y-115780000D02*
X149990000Y-115410000D01*
X149990000Y-117200000D02*
X149510000Y-117200000D01*
X149510000Y-117200000D02*
X149510000Y-118300000D01*
X149510000Y-118300000D02*
X149990000Y-118300000D01*
X149750000Y-117200000D02*
X149750000Y-118300000D01*
X160000000Y-117200000D02*
X159400000Y-117200000D01*
X159400000Y-118300000D02*
X160000000Y-118300000D01*
X159400000Y-117200000D02*
X159400000Y-118300000D01*
X159650000Y-117200000D02*
X159650000Y-118290000D01*
X159830000Y-117200000D02*
X159830000Y-118300000D01*
X112750000Y-78153000D02*
X112750000Y-84153000D01*
X112750000Y-84153000D02*
X110050000Y-87653000D01*
X110050000Y-87653000D02*
X109550000Y-87653000D01*
X109550000Y-87653000D02*
X109550000Y-84553000D01*
X109550000Y-84553000D02*
X106350000Y-84553000D01*
X106350000Y-84553000D02*
X106350000Y-87653000D01*
X106350000Y-87653000D02*
X105850000Y-87653000D01*
X105850000Y-87653000D02*
X103150000Y-84153000D01*
X103150000Y-84153000D02*
X103150000Y-78153000D01*
X103150000Y-78153000D02*
X105850000Y-74653000D01*
X105850000Y-74653000D02*
X106350000Y-74653000D01*
X106350000Y-74653000D02*
X106350000Y-77753000D01*
X106350000Y-77753000D02*
X109550000Y-77753000D01*
X109550000Y-77753000D02*
X109550000Y-74653000D01*
X109550000Y-74653000D02*
X110050000Y-74653000D01*
X110050000Y-74653000D02*
X112750000Y-78153000D01*
X111061270Y-81153000D02*
G75*
G03X111061270Y-81153000I-3111270J0D01*
G01*
X107950000Y-79653000D02*
X107950000Y-78753000D01*
X107950000Y-83553000D02*
X107950000Y-82653000D01*
X107950000Y-80653000D02*
G75*
G02X107950000Y-81653000I0J-500000D01*
G01*
X107950000Y-81653000D02*
G75*
G02X107950000Y-82653000I0J-500000D01*
G01*
X107950000Y-79653000D02*
G75*
G02X107950000Y-80653000I0J-500000D01*
G01*
D17*
X121058000Y-95127000D02*
G75*
G02X121058000Y-95627000I0J-250000D01*
G01*
X121058000Y-94627000D02*
G75*
G02X121058000Y-95127000I0J-250000D01*
G01*
X121058000Y-95627000D02*
G75*
G02X121058000Y-96127000I0J-250000D01*
G01*
D11*
X120958000Y-96877000D02*
X121358000Y-96877000D01*
X120958000Y-93877000D02*
X121358000Y-93877000D01*
D17*
X121008000Y-94627000D02*
X121008000Y-94277000D01*
X121008000Y-96127000D02*
X121008000Y-96477000D01*
D18*
X113715800Y-112395000D02*
X113715800Y-111379000D01*
X114935000Y-111379000D02*
X114935000Y-112395000D01*
D19*
X114300000Y-110738000D02*
X114300000Y-111258000D01*
X114410000Y-110908000D02*
X114190000Y-110908000D01*
X114410000Y-110908000D02*
X114310000Y-111018000D01*
X114190000Y-110908000D02*
X114290000Y-111008000D01*
X114410000Y-111098000D02*
X114190000Y-111098000D01*
D20*
X114054400Y-111175800D02*
X113944400Y-111045800D01*
X113945400Y-111044200D02*
X113955400Y-111124200D01*
X113945400Y-111044200D02*
X114025400Y-111044200D01*
X113945400Y-110828800D02*
X114025400Y-110828800D01*
X113945400Y-110828800D02*
X113955400Y-110908800D01*
X114075400Y-110968800D02*
X113965400Y-110838800D01*
D11*
X114871500Y-112407700D02*
X114744500Y-112560100D01*
X113779300Y-112407700D02*
X113906300Y-112547400D01*
X114744500Y-112560100D02*
X113919000Y-112560100D01*
X113817400Y-112395000D02*
X114858800Y-112395000D01*
D18*
X126669800Y-112395000D02*
X126669800Y-111379000D01*
X127889000Y-111379000D02*
X127889000Y-112395000D01*
D19*
X127254000Y-110738000D02*
X127254000Y-111258000D01*
X127364000Y-110908000D02*
X127144000Y-110908000D01*
X127364000Y-110908000D02*
X127264000Y-111018000D01*
X127144000Y-110908000D02*
X127244000Y-111008000D01*
X127364000Y-111098000D02*
X127144000Y-111098000D01*
D20*
X127008400Y-111175800D02*
X126898400Y-111045800D01*
X126899400Y-111044200D02*
X126909400Y-111124200D01*
X126899400Y-111044200D02*
X126979400Y-111044200D01*
X126899400Y-110828800D02*
X126979400Y-110828800D01*
X126899400Y-110828800D02*
X126909400Y-110908800D01*
X127029400Y-110968800D02*
X126919400Y-110838800D01*
D11*
X127825500Y-112407700D02*
X127698500Y-112560100D01*
X126733300Y-112407700D02*
X126860300Y-112547400D01*
X127698500Y-112560100D02*
X126873000Y-112560100D01*
X126771400Y-112395000D02*
X127812800Y-112395000D01*
X139852400Y-112395000D02*
X140893800Y-112395000D01*
X140779500Y-112560100D02*
X139954000Y-112560100D01*
X139814300Y-112407700D02*
X139941300Y-112547400D01*
X140906500Y-112407700D02*
X140779500Y-112560100D01*
D20*
X140110400Y-110968800D02*
X140000400Y-110838800D01*
X139980400Y-110828800D02*
X139990400Y-110908800D01*
X139980400Y-110828800D02*
X140060400Y-110828800D01*
X139980400Y-111044200D02*
X140060400Y-111044200D01*
X139980400Y-111044200D02*
X139990400Y-111124200D01*
X140089400Y-111175800D02*
X139979400Y-111045800D01*
D19*
X140445000Y-111098000D02*
X140225000Y-111098000D01*
X140225000Y-110908000D02*
X140325000Y-111008000D01*
X140445000Y-110908000D02*
X140345000Y-111018000D01*
X140445000Y-110908000D02*
X140225000Y-110908000D01*
X140335000Y-110738000D02*
X140335000Y-111258000D01*
D18*
X140970000Y-111379000D02*
X140970000Y-112395000D01*
X139750800Y-112395000D02*
X139750800Y-111379000D01*
X152704800Y-112395000D02*
X152704800Y-111379000D01*
X153924000Y-111379000D02*
X153924000Y-112395000D01*
D19*
X153289000Y-110738000D02*
X153289000Y-111258000D01*
X153399000Y-110908000D02*
X153179000Y-110908000D01*
X153399000Y-110908000D02*
X153299000Y-111018000D01*
X153179000Y-110908000D02*
X153279000Y-111008000D01*
X153399000Y-111098000D02*
X153179000Y-111098000D01*
D20*
X153043400Y-111175800D02*
X152933400Y-111045800D01*
X152934400Y-111044200D02*
X152944400Y-111124200D01*
X152934400Y-111044200D02*
X153014400Y-111044200D01*
X152934400Y-110828800D02*
X153014400Y-110828800D01*
X152934400Y-110828800D02*
X152944400Y-110908800D01*
X153064400Y-110968800D02*
X152954400Y-110838800D01*
D11*
X153860500Y-112407700D02*
X153733500Y-112560100D01*
X152768300Y-112407700D02*
X152895300Y-112547400D01*
X153733500Y-112560100D02*
X152908000Y-112560100D01*
X152806400Y-112395000D02*
X153847800Y-112395000D01*
D18*
X120523000Y-89585800D02*
X121539000Y-89585800D01*
X121539000Y-90805000D02*
X120523000Y-90805000D01*
D19*
X122180000Y-90170000D02*
X121660000Y-90170000D01*
X122010000Y-90280000D02*
X122010000Y-90060000D01*
X122010000Y-90280000D02*
X121900000Y-90180000D01*
X122010000Y-90060000D02*
X121910000Y-90160000D01*
X121820000Y-90280000D02*
X121820000Y-90060000D01*
D20*
X121742200Y-89924400D02*
X121872200Y-89814400D01*
X121873800Y-89815400D02*
X121793800Y-89825400D01*
X121873800Y-89815400D02*
X121873800Y-89895400D01*
X122089200Y-89815400D02*
X122089200Y-89895400D01*
X122089200Y-89815400D02*
X122009200Y-89825400D01*
X121949200Y-89945400D02*
X122079200Y-89835400D01*
D11*
X120510300Y-90741500D02*
X120357900Y-90614500D01*
X120510300Y-89649300D02*
X120370600Y-89776300D01*
X120357900Y-90614500D02*
X120357900Y-89789000D01*
X120523000Y-89687400D02*
X120523000Y-90728800D01*
X136398000Y-89687400D02*
X136398000Y-90728800D01*
X136232900Y-90614500D02*
X136232900Y-89789000D01*
X136385300Y-89649300D02*
X136245600Y-89776300D01*
X136385300Y-90741500D02*
X136232900Y-90614500D01*
D20*
X137824200Y-89945400D02*
X137954200Y-89835400D01*
X137964200Y-89815400D02*
X137884200Y-89825400D01*
X137964200Y-89815400D02*
X137964200Y-89895400D01*
X137748800Y-89815400D02*
X137748800Y-89895400D01*
X137748800Y-89815400D02*
X137668800Y-89825400D01*
X137617200Y-89924400D02*
X137747200Y-89814400D01*
D19*
X137695000Y-90280000D02*
X137695000Y-90060000D01*
X137885000Y-90060000D02*
X137785000Y-90160000D01*
X137885000Y-90280000D02*
X137775000Y-90180000D01*
X137885000Y-90280000D02*
X137885000Y-90060000D01*
X138055000Y-90170000D02*
X137535000Y-90170000D01*
D18*
X137414000Y-90805000D02*
X136398000Y-90805000D01*
X136398000Y-89585800D02*
X137414000Y-89585800D01*
D11*
X154432000Y-89687400D02*
X154432000Y-90728800D01*
X154266900Y-90614500D02*
X154266900Y-89789000D01*
X154419300Y-89649300D02*
X154279600Y-89776300D01*
X154419300Y-90741500D02*
X154266900Y-90614500D01*
D20*
X155858200Y-89945400D02*
X155988200Y-89835400D01*
X155998200Y-89815400D02*
X155918200Y-89825400D01*
X155998200Y-89815400D02*
X155998200Y-89895400D01*
X155782800Y-89815400D02*
X155782800Y-89895400D01*
X155782800Y-89815400D02*
X155702800Y-89825400D01*
X155651200Y-89924400D02*
X155781200Y-89814400D01*
D19*
X155729000Y-90280000D02*
X155729000Y-90060000D01*
X155919000Y-90060000D02*
X155819000Y-90160000D01*
X155919000Y-90280000D02*
X155809000Y-90180000D01*
X155919000Y-90280000D02*
X155919000Y-90060000D01*
X156089000Y-90170000D02*
X155569000Y-90170000D01*
D18*
X155448000Y-90805000D02*
X154432000Y-90805000D01*
X154432000Y-89585800D02*
X155448000Y-89585800D01*
D11*
X171069000Y-89687400D02*
X171069000Y-90728800D01*
X170903900Y-90614500D02*
X170903900Y-89789000D01*
X171056300Y-89649300D02*
X170916600Y-89776300D01*
X171056300Y-90741500D02*
X170903900Y-90614500D01*
D20*
X172495200Y-89945400D02*
X172625200Y-89835400D01*
X172635200Y-89815400D02*
X172555200Y-89825400D01*
X172635200Y-89815400D02*
X172635200Y-89895400D01*
X172419800Y-89815400D02*
X172419800Y-89895400D01*
X172419800Y-89815400D02*
X172339800Y-89825400D01*
X172288200Y-89924400D02*
X172418200Y-89814400D01*
D19*
X172366000Y-90280000D02*
X172366000Y-90060000D01*
X172556000Y-90060000D02*
X172456000Y-90160000D01*
X172556000Y-90280000D02*
X172446000Y-90180000D01*
X172556000Y-90280000D02*
X172556000Y-90060000D01*
X172726000Y-90170000D02*
X172206000Y-90170000D01*
D18*
X172085000Y-90805000D02*
X171069000Y-90805000D01*
X171069000Y-89585800D02*
X172085000Y-89585800D01*
D11*
X130026210Y-109982000D02*
G75*
G03X130026210Y-109982000I-359210J0D01*
G01*
X128905000Y-104140000D02*
X133985000Y-104140000D01*
X133985000Y-104140000D02*
X133985000Y-110744000D01*
X133985000Y-110744000D02*
X128905000Y-110744000D01*
X128905000Y-110744000D02*
X128905000Y-104140000D01*
X141986000Y-110744000D02*
X141986000Y-104140000D01*
X147066000Y-110744000D02*
X141986000Y-110744000D01*
X147066000Y-104140000D02*
X147066000Y-110744000D01*
X141986000Y-104140000D02*
X147066000Y-104140000D01*
X143107210Y-109982000D02*
G75*
G03X143107210Y-109982000I-359210J0D01*
G01*
X156061210Y-109982000D02*
G75*
G03X156061210Y-109982000I-359210J0D01*
G01*
X154940000Y-104140000D02*
X160020000Y-104140000D01*
X160020000Y-104140000D02*
X160020000Y-110744000D01*
X160020000Y-110744000D02*
X154940000Y-110744000D01*
X154940000Y-110744000D02*
X154940000Y-104140000D01*
X99482600Y-56603000D02*
X98441200Y-56603000D01*
X98555500Y-56437900D02*
X99381000Y-56437900D01*
X99520700Y-56590300D02*
X99393700Y-56450600D01*
X98428500Y-56590300D02*
X98555500Y-56437900D01*
D20*
X99224600Y-58029200D02*
X99334600Y-58159200D01*
X99354600Y-58169200D02*
X99344600Y-58089200D01*
X99354600Y-58169200D02*
X99274600Y-58169200D01*
X99354600Y-57953800D02*
X99274600Y-57953800D01*
X99354600Y-57953800D02*
X99344600Y-57873800D01*
X99245600Y-57822200D02*
X99355600Y-57952200D01*
D19*
X98890000Y-57900000D02*
X99110000Y-57900000D01*
X99110000Y-58090000D02*
X99010000Y-57990000D01*
X98890000Y-58090000D02*
X98990000Y-57980000D01*
X98890000Y-58090000D02*
X99110000Y-58090000D01*
X99000000Y-58260000D02*
X99000000Y-57740000D01*
D18*
X98365000Y-57619000D02*
X98365000Y-56603000D01*
X99584200Y-56603000D02*
X99584200Y-57619000D01*
D11*
X105537000Y-112268000D02*
X105537000Y-113284000D01*
X107061000Y-112268000D02*
X107061000Y-113284000D01*
X101346000Y-112268000D02*
X101346000Y-113284000D01*
X102870000Y-112268000D02*
X102870000Y-113284000D01*
X99444500Y-62000000D02*
X99444500Y-61746000D01*
X99444500Y-62000000D02*
X99444500Y-62254000D01*
X98555500Y-62000000D02*
X98555500Y-62254000D01*
X98555500Y-62000000D02*
X98555500Y-61746000D01*
X95758000Y-77724000D02*
X97282000Y-77724000D01*
X95758000Y-80010000D02*
X97282000Y-80010000D01*
X110490000Y-110236000D02*
X110490000Y-111760000D01*
X112776000Y-110236000D02*
X112776000Y-111760000D01*
X125730000Y-110236000D02*
X125730000Y-111760000D01*
X123444000Y-110236000D02*
X123444000Y-111760000D01*
X136525000Y-110236000D02*
X136525000Y-111760000D01*
X138811000Y-110236000D02*
X138811000Y-111760000D01*
X151765000Y-110236000D02*
X151765000Y-111760000D01*
X149479000Y-110236000D02*
X149479000Y-111760000D01*
X103759000Y-108267500D02*
X104013000Y-108267500D01*
X103759000Y-108267500D02*
X103505000Y-108267500D01*
X103759000Y-107378500D02*
X103505000Y-107378500D01*
X103759000Y-107378500D02*
X104013000Y-107378500D01*
X103759000Y-103314500D02*
X104013000Y-103314500D01*
X103759000Y-103314500D02*
X103505000Y-103314500D01*
X103759000Y-104203500D02*
X103505000Y-104203500D01*
X103759000Y-104203500D02*
X104013000Y-104203500D01*
X103759000Y-101663500D02*
X104013000Y-101663500D01*
X103759000Y-101663500D02*
X103505000Y-101663500D01*
X103759000Y-100774500D02*
X103505000Y-100774500D01*
X103759000Y-100774500D02*
X104013000Y-100774500D01*
X98869500Y-86868000D02*
X98869500Y-87122000D01*
X98869500Y-86868000D02*
X98869500Y-86614000D01*
X97980500Y-86868000D02*
X97980500Y-86614000D01*
X97980500Y-86868000D02*
X97980500Y-87122000D01*
X92646500Y-89916000D02*
X92646500Y-89662000D01*
X92646500Y-89916000D02*
X92646500Y-90170000D01*
X91757500Y-89916000D02*
X91757500Y-90170000D01*
X91757500Y-89916000D02*
X91757500Y-89662000D01*
X103759000Y-95567500D02*
X104013000Y-95567500D01*
X103759000Y-95567500D02*
X103505000Y-95567500D01*
X103759000Y-94678500D02*
X103505000Y-94678500D01*
X103759000Y-94678500D02*
X104013000Y-94678500D01*
X103759000Y-102044500D02*
X104013000Y-102044500D01*
X103759000Y-102044500D02*
X103505000Y-102044500D01*
X103759000Y-102933500D02*
X103505000Y-102933500D01*
X103759000Y-102933500D02*
X104013000Y-102933500D01*
X103759000Y-104584500D02*
X104013000Y-104584500D01*
X103759000Y-104584500D02*
X103505000Y-104584500D01*
X103759000Y-105473500D02*
X103505000Y-105473500D01*
X103759000Y-105473500D02*
X104013000Y-105473500D01*
X94551500Y-89916000D02*
X94551500Y-90170000D01*
X94551500Y-89916000D02*
X94551500Y-89662000D01*
X95440500Y-89916000D02*
X95440500Y-89662000D01*
X95440500Y-89916000D02*
X95440500Y-90170000D01*
X103759000Y-106997500D02*
X104013000Y-106997500D01*
X103759000Y-106997500D02*
X103505000Y-106997500D01*
X103759000Y-106108500D02*
X103505000Y-106108500D01*
X103759000Y-106108500D02*
X104013000Y-106108500D01*
X112331500Y-97790000D02*
X112331500Y-97536000D01*
X112331500Y-97790000D02*
X112331500Y-98044000D01*
X111442500Y-97790000D02*
X111442500Y-98044000D01*
X111442500Y-97790000D02*
X111442500Y-97536000D01*
X113474500Y-97790000D02*
X113474500Y-97536000D01*
X113474500Y-97790000D02*
X113474500Y-98044000D01*
X112585500Y-97790000D02*
X112585500Y-98044000D01*
X112585500Y-97790000D02*
X112585500Y-97536000D01*
X118491000Y-100647500D02*
X118237000Y-100647500D01*
X118491000Y-100647500D02*
X118745000Y-100647500D01*
X118491000Y-101536500D02*
X118745000Y-101536500D01*
X118491000Y-101536500D02*
X118237000Y-101536500D01*
X131127500Y-100584000D02*
X131127500Y-100838000D01*
X131127500Y-100584000D02*
X131127500Y-100330000D01*
X130238500Y-100584000D02*
X130238500Y-100330000D01*
X130238500Y-100584000D02*
X130238500Y-100838000D01*
X156908500Y-100584000D02*
X156908500Y-100838000D01*
X156908500Y-100584000D02*
X156908500Y-100330000D01*
X156019500Y-100584000D02*
X156019500Y-100330000D01*
X156019500Y-100584000D02*
X156019500Y-100838000D01*
X179832000Y-92773500D02*
X180086000Y-92773500D01*
X179832000Y-92773500D02*
X179578000Y-92773500D01*
X179832000Y-91884500D02*
X179578000Y-91884500D01*
X179832000Y-91884500D02*
X180086000Y-91884500D01*
X179641500Y-120523000D02*
X179641500Y-120269000D01*
X179641500Y-120523000D02*
X179641500Y-120777000D01*
X180530500Y-120523000D02*
X180530500Y-120777000D01*
X180530500Y-120523000D02*
X180530500Y-120269000D01*
X180784500Y-120523000D02*
X180784500Y-120269000D01*
X180784500Y-120523000D02*
X180784500Y-120777000D01*
X181673500Y-120523000D02*
X181673500Y-120777000D01*
X181673500Y-120523000D02*
X181673500Y-120269000D01*
X124460000Y-89725500D02*
X124206000Y-89725500D01*
X124460000Y-89725500D02*
X124714000Y-89725500D01*
X124460000Y-90614500D02*
X124714000Y-90614500D01*
X124460000Y-90614500D02*
X124206000Y-90614500D01*
X140335000Y-89725500D02*
X140081000Y-89725500D01*
X140335000Y-89725500D02*
X140589000Y-89725500D01*
X140335000Y-90614500D02*
X140589000Y-90614500D01*
X140335000Y-90614500D02*
X140081000Y-90614500D01*
X158369000Y-89725500D02*
X158115000Y-89725500D01*
X158369000Y-89725500D02*
X158623000Y-89725500D01*
X158369000Y-90614500D02*
X158623000Y-90614500D01*
X158369000Y-90614500D02*
X158115000Y-90614500D01*
X175006000Y-90614500D02*
X174752000Y-90614500D01*
X175006000Y-90614500D02*
X175260000Y-90614500D01*
X175006000Y-89725500D02*
X175260000Y-89725500D01*
X175006000Y-89725500D02*
X174752000Y-89725500D01*
X97282000Y-112712500D02*
X97536000Y-112712500D01*
X97282000Y-112712500D02*
X97028000Y-112712500D01*
X97282000Y-113601500D02*
X97028000Y-113601500D01*
X97282000Y-113601500D02*
X97536000Y-113601500D01*
X90800000Y-67100000D02*
X90800000Y-62900000D01*
X90800000Y-62900000D02*
X90900000Y-62900000D01*
X90800000Y-67100000D02*
X90900000Y-67100000D01*
X94100000Y-67100000D02*
X94200000Y-67100000D01*
X94200000Y-67100000D02*
X94200000Y-62900000D01*
X94200000Y-62900000D02*
X94100000Y-62900000D01*
X93000000Y-62900000D02*
X92000000Y-62900000D01*
X93000000Y-67100000D02*
X92000000Y-67100000D01*
X118872000Y-91592400D02*
X118872000Y-90881200D01*
X118033800Y-91592400D02*
X118872000Y-91592400D01*
X118033800Y-88747600D02*
X118872000Y-88747600D01*
X118872000Y-89458800D02*
X118872000Y-88747600D01*
X134747000Y-91592400D02*
X134747000Y-90881200D01*
X133908800Y-91592400D02*
X134747000Y-91592400D01*
X133908800Y-88747600D02*
X134747000Y-88747600D01*
X134747000Y-89458800D02*
X134747000Y-88747600D01*
X152781000Y-89458800D02*
X152781000Y-88747600D01*
X151942800Y-88747600D02*
X152781000Y-88747600D01*
X151942800Y-91592400D02*
X152781000Y-91592400D01*
X152781000Y-91592400D02*
X152781000Y-90881200D01*
X169418000Y-89458800D02*
X169418000Y-88747600D01*
X168579800Y-88747600D02*
X169418000Y-88747600D01*
X168579800Y-91592400D02*
X169418000Y-91592400D01*
X169418000Y-91592400D02*
X169418000Y-90881200D01*
X96607000Y-86963000D02*
X96607000Y-82963000D01*
X91607000Y-86963000D02*
X91607000Y-82963000D01*
X115392200Y-94361000D02*
X116522500Y-94361000D01*
X115392200Y-97167700D02*
X116522500Y-97167700D01*
X92825000Y-107850000D02*
X92571000Y-107850000D01*
X99429000Y-107850000D02*
X99175000Y-107850000D01*
X99429000Y-95150000D02*
X99175000Y-95150000D01*
X92825000Y-95150000D02*
X92571000Y-95150000D01*
X100445000Y-107850000D02*
X100445000Y-111660000D01*
X99429000Y-110644000D02*
X99429000Y-107850000D01*
X92571000Y-110644000D02*
X99429000Y-110644000D01*
X92571000Y-107850000D02*
X92571000Y-110644000D01*
X92571000Y-92356000D02*
X92571000Y-95150000D01*
X99429000Y-92356000D02*
X92571000Y-92356000D01*
X99429000Y-95150000D02*
X99429000Y-92356000D01*
X91555000Y-109120000D02*
X91555000Y-107850000D01*
X91301000Y-109120000D02*
X91555000Y-109120000D01*
X91301000Y-110390000D02*
X91555000Y-110390000D01*
X91301000Y-109120000D02*
X91301000Y-110390000D01*
X91555000Y-95150000D02*
X91555000Y-93880000D01*
X91555000Y-92610000D02*
X91555000Y-91340000D01*
X91555000Y-93880000D02*
X91301000Y-93880000D01*
X91301000Y-92610000D02*
X91301000Y-93880000D01*
X91555000Y-92610000D02*
X91301000Y-92610000D01*
X99175000Y-107850000D02*
X99175000Y-110390000D01*
X99175000Y-92610000D02*
X99175000Y-95150000D01*
X91555000Y-111660000D02*
X100445000Y-111660000D01*
X100445000Y-91340000D02*
X91555000Y-91340000D01*
X100445000Y-91340000D02*
X100445000Y-95150000D01*
X91555000Y-111660000D02*
X91555000Y-110390000D01*
X92825000Y-110390000D02*
X99175000Y-110390000D01*
X99175000Y-92610000D02*
X92825000Y-92610000D01*
X92825000Y-95150000D02*
X92825000Y-92610000D01*
X92825000Y-110390000D02*
X92825000Y-107850000D01*
X92698000Y-110136000D02*
X92698000Y-110517000D01*
X99302000Y-110136000D02*
X99302000Y-110517000D01*
X99302000Y-92737000D02*
X99302000Y-92483000D01*
X92698000Y-92864000D02*
X92698000Y-92356000D01*
D18*
X99650000Y-117750000D02*
X99750000Y-118000000D01*
X99650000Y-117750000D02*
X99550000Y-118000000D01*
X99650000Y-118500000D02*
X99650000Y-117750000D01*
X100600000Y-117750000D02*
X100700000Y-118000000D01*
X100600000Y-117750000D02*
X100500000Y-118000000D01*
X101250000Y-117750000D02*
X101350000Y-118000000D01*
X100600000Y-118500000D02*
X100600000Y-117750000D01*
X101250000Y-120250000D02*
X101250000Y-117750000D01*
X101250000Y-117750000D02*
X101150000Y-118000000D01*
X101750000Y-118500000D02*
X101750000Y-117750000D01*
X102250000Y-120250000D02*
X102250000Y-117750000D01*
X102250000Y-117750000D02*
X102150000Y-118000000D01*
X101750000Y-117750000D02*
X101850000Y-118000000D01*
X102250000Y-117750000D02*
X102350000Y-118000000D01*
X101750000Y-117750000D02*
X101650000Y-118000000D01*
X102750000Y-118500000D02*
X102750000Y-117750000D01*
X102750000Y-117750000D02*
X102650000Y-118000000D01*
X102750000Y-117750000D02*
X102850000Y-118000000D01*
X103250000Y-120250000D02*
X103250000Y-117750000D01*
X103250000Y-117750000D02*
X103350000Y-118000000D01*
X103250000Y-117750000D02*
X103150000Y-118000000D01*
X103750000Y-117750000D02*
X103850000Y-118000000D01*
X103750000Y-118500000D02*
X103750000Y-117750000D01*
X103750000Y-117750000D02*
X103650000Y-118000000D01*
X104250000Y-117750000D02*
X104350000Y-118000000D01*
X104250000Y-120250000D02*
X104250000Y-117750000D01*
X104250000Y-117750000D02*
X104150000Y-118000000D01*
X106350000Y-117750000D02*
X106450000Y-118000000D01*
X106350000Y-118500000D02*
X106350000Y-117750000D01*
X106350000Y-117750000D02*
X106250000Y-118000000D01*
X105400000Y-117750000D02*
X105500000Y-118000000D01*
X105400000Y-117750000D02*
X105300000Y-118000000D01*
X104750000Y-117750000D02*
X104650000Y-118000000D01*
X104750000Y-117750000D02*
X104850000Y-118000000D01*
X105400000Y-117750000D02*
X105400000Y-118500000D01*
X104750000Y-118500000D02*
X104750000Y-117750000D01*
D11*
X98530000Y-122950000D02*
X98530000Y-124818000D01*
X107470000Y-124818000D02*
X107470000Y-122950000D01*
X98530000Y-124818000D02*
X107470000Y-124818000D01*
X107470000Y-118950000D02*
X107470000Y-120250000D01*
X98530000Y-118950000D02*
X98530000Y-120250000D01*
D18*
X179103000Y-121915800D02*
X180119000Y-121915800D01*
X180119000Y-123135000D02*
X179103000Y-123135000D01*
D19*
X180760000Y-122500000D02*
X180240000Y-122500000D01*
X180590000Y-122610000D02*
X180590000Y-122390000D01*
X180590000Y-122610000D02*
X180480000Y-122510000D01*
X180590000Y-122390000D02*
X180490000Y-122490000D01*
X180400000Y-122610000D02*
X180400000Y-122390000D01*
D20*
X180322200Y-122254400D02*
X180452200Y-122144400D01*
X180453800Y-122145400D02*
X180373800Y-122155400D01*
X180453800Y-122145400D02*
X180453800Y-122225400D01*
X180669200Y-122145400D02*
X180669200Y-122225400D01*
X180669200Y-122145400D02*
X180589200Y-122155400D01*
X180529200Y-122275400D02*
X180659200Y-122165400D01*
D11*
X179090300Y-123071500D02*
X178937900Y-122944500D01*
X179090300Y-121979300D02*
X178950600Y-122106300D01*
X178937900Y-122944500D02*
X178937900Y-122119000D01*
X179103000Y-122017400D02*
X179103000Y-123058800D01*
X168211500Y-117094000D02*
X168211500Y-116840000D01*
X168211500Y-117094000D02*
X168211500Y-117348000D01*
X167322500Y-117094000D02*
X167322500Y-117348000D01*
X167322500Y-117094000D02*
X167322500Y-116840000D01*
X168465500Y-117094000D02*
X168465500Y-116840000D01*
X168465500Y-117094000D02*
X168465500Y-117348000D01*
X169354500Y-117094000D02*
X169354500Y-117348000D01*
X169354500Y-117094000D02*
X169354500Y-116840000D01*
X164640380Y-93792523D02*
X164640380Y-94820619D01*
X164700857Y-94941571D01*
X164761333Y-95002047D01*
X164882285Y-95062523D01*
X165124190Y-95062523D01*
X165245142Y-95002047D01*
X165305619Y-94941571D01*
X165366095Y-94820619D01*
X165366095Y-93792523D01*
X165849904Y-93792523D02*
X166636095Y-93792523D01*
X166212761Y-94276333D01*
X166394190Y-94276333D01*
X166515142Y-94336809D01*
X166575619Y-94397285D01*
X166636095Y-94518238D01*
X166636095Y-94820619D01*
X166575619Y-94941571D01*
X166515142Y-95002047D01*
X166394190Y-95062523D01*
X166031333Y-95062523D01*
X165910380Y-95002047D01*
X165849904Y-94941571D01*
X165078095Y-112424523D02*
X164352380Y-112424523D01*
X164715238Y-112424523D02*
X164715238Y-111154523D01*
X164594285Y-111335952D01*
X164473333Y-111456904D01*
X164352380Y-111517380D01*
X166227142Y-111154523D02*
X165622380Y-111154523D01*
X165561904Y-111759285D01*
X165622380Y-111698809D01*
X165743333Y-111638333D01*
X166045714Y-111638333D01*
X166166666Y-111698809D01*
X166227142Y-111759285D01*
X166287619Y-111880238D01*
X166287619Y-112182619D01*
X166227142Y-112303571D01*
X166166666Y-112364047D01*
X166045714Y-112424523D01*
X165743333Y-112424523D01*
X165622380Y-112364047D01*
X165561904Y-112303571D01*
X165078095Y-99724523D02*
X164352380Y-99724523D01*
X164715238Y-99724523D02*
X164715238Y-98454523D01*
X164594285Y-98635952D01*
X164473333Y-98756904D01*
X164352380Y-98817380D01*
X166166666Y-98877857D02*
X166166666Y-99724523D01*
X165864285Y-98394047D02*
X165561904Y-99301190D01*
X166348095Y-99301190D01*
X181087380Y-111275476D02*
X181147857Y-111215000D01*
X181268809Y-111154523D01*
X181571190Y-111154523D01*
X181692142Y-111215000D01*
X181752619Y-111275476D01*
X181813095Y-111396428D01*
X181813095Y-111517380D01*
X181752619Y-111698809D01*
X181026904Y-112424523D01*
X181813095Y-112424523D01*
X182538809Y-111698809D02*
X182417857Y-111638333D01*
X182357380Y-111577857D01*
X182296904Y-111456904D01*
X182296904Y-111396428D01*
X182357380Y-111275476D01*
X182417857Y-111215000D01*
X182538809Y-111154523D01*
X182780714Y-111154523D01*
X182901666Y-111215000D01*
X182962142Y-111275476D01*
X183022619Y-111396428D01*
X183022619Y-111456904D01*
X182962142Y-111577857D01*
X182901666Y-111638333D01*
X182780714Y-111698809D01*
X182538809Y-111698809D01*
X182417857Y-111759285D01*
X182357380Y-111819761D01*
X182296904Y-111940714D01*
X182296904Y-112182619D01*
X182357380Y-112303571D01*
X182417857Y-112364047D01*
X182538809Y-112424523D01*
X182780714Y-112424523D01*
X182901666Y-112364047D01*
X182962142Y-112303571D01*
X183022619Y-112182619D01*
X183022619Y-111940714D01*
X182962142Y-111819761D01*
X182901666Y-111759285D01*
X182780714Y-111698809D01*
X182417857Y-99089523D02*
X181692142Y-99089523D01*
X182055000Y-99089523D02*
X182055000Y-97819523D01*
X181934047Y-98000952D01*
X181813095Y-98121904D01*
X181692142Y-98182380D01*
X186211666Y-109007619D02*
X186211666Y-108402857D01*
X186574523Y-109128571D02*
X185304523Y-108705238D01*
X186574523Y-108281904D01*
X185727857Y-107858571D02*
X186574523Y-107858571D01*
X185848809Y-107858571D02*
X185788333Y-107798095D01*
X185727857Y-107677142D01*
X185727857Y-107495714D01*
X185788333Y-107374761D01*
X185909285Y-107314285D01*
X186574523Y-107314285D01*
X185727857Y-106890952D02*
X185727857Y-106407142D01*
X185304523Y-106709523D02*
X186393095Y-106709523D01*
X186514047Y-106649047D01*
X186574523Y-106528095D01*
X186574523Y-106407142D01*
X186514047Y-105500000D02*
X186574523Y-105620952D01*
X186574523Y-105862857D01*
X186514047Y-105983809D01*
X186393095Y-106044285D01*
X185909285Y-106044285D01*
X185788333Y-105983809D01*
X185727857Y-105862857D01*
X185727857Y-105620952D01*
X185788333Y-105500000D01*
X185909285Y-105439523D01*
X186030238Y-105439523D01*
X186151190Y-106044285D01*
X185727857Y-104895238D02*
X186574523Y-104895238D01*
X185848809Y-104895238D02*
X185788333Y-104834761D01*
X185727857Y-104713809D01*
X185727857Y-104532380D01*
X185788333Y-104411428D01*
X185909285Y-104350952D01*
X186574523Y-104350952D01*
X185727857Y-103746190D02*
X186574523Y-103746190D01*
X185848809Y-103746190D02*
X185788333Y-103685714D01*
X185727857Y-103564761D01*
X185727857Y-103383333D01*
X185788333Y-103262380D01*
X185909285Y-103201904D01*
X186574523Y-103201904D01*
X186574523Y-102052857D02*
X185909285Y-102052857D01*
X185788333Y-102113333D01*
X185727857Y-102234285D01*
X185727857Y-102476190D01*
X185788333Y-102597142D01*
X186514047Y-102052857D02*
X186574523Y-102173809D01*
X186574523Y-102476190D01*
X186514047Y-102597142D01*
X186393095Y-102657619D01*
X186272142Y-102657619D01*
X186151190Y-102597142D01*
X186090714Y-102476190D01*
X186090714Y-102173809D01*
X186030238Y-102052857D01*
X183039523Y-95340714D02*
X182979047Y-95461666D01*
X182918571Y-95522142D01*
X182797619Y-95582619D01*
X182434761Y-95582619D01*
X182313809Y-95522142D01*
X182253333Y-95461666D01*
X182192857Y-95340714D01*
X182192857Y-95159285D01*
X182253333Y-95038333D01*
X182313809Y-94977857D01*
X182434761Y-94917380D01*
X182797619Y-94917380D01*
X182918571Y-94977857D01*
X182979047Y-95038333D01*
X183039523Y-95159285D01*
X183039523Y-95340714D01*
X114015761Y-86553523D02*
X113592428Y-85948761D01*
X113290047Y-86553523D02*
X113290047Y-85283523D01*
X113773857Y-85283523D01*
X113894809Y-85344000D01*
X113955285Y-85404476D01*
X114015761Y-85525428D01*
X114015761Y-85706857D01*
X113955285Y-85827809D01*
X113894809Y-85888285D01*
X113773857Y-85948761D01*
X113290047Y-85948761D01*
X114560047Y-85888285D02*
X114983380Y-85888285D01*
X115164809Y-86553523D02*
X114560047Y-86553523D01*
X114560047Y-85283523D01*
X115164809Y-85283523D01*
X116313857Y-86553523D02*
X115709095Y-86553523D01*
X115709095Y-85283523D01*
X117402428Y-86553523D02*
X116676714Y-86553523D01*
X117039571Y-86553523D02*
X117039571Y-85283523D01*
X116918619Y-85464952D01*
X116797666Y-85585904D01*
X116676714Y-85646380D01*
X131922761Y-86553523D02*
X131499428Y-85948761D01*
X131197047Y-86553523D02*
X131197047Y-85283523D01*
X131680857Y-85283523D01*
X131801809Y-85344000D01*
X131862285Y-85404476D01*
X131922761Y-85525428D01*
X131922761Y-85706857D01*
X131862285Y-85827809D01*
X131801809Y-85888285D01*
X131680857Y-85948761D01*
X131197047Y-85948761D01*
X132467047Y-85888285D02*
X132890380Y-85888285D01*
X133071809Y-86553523D02*
X132467047Y-86553523D01*
X132467047Y-85283523D01*
X133071809Y-85283523D01*
X134220857Y-86553523D02*
X133616095Y-86553523D01*
X133616095Y-85283523D01*
X134583714Y-85404476D02*
X134644190Y-85344000D01*
X134765142Y-85283523D01*
X135067523Y-85283523D01*
X135188476Y-85344000D01*
X135248952Y-85404476D01*
X135309428Y-85525428D01*
X135309428Y-85646380D01*
X135248952Y-85827809D01*
X134523238Y-86553523D01*
X135309428Y-86553523D01*
X149956761Y-86553523D02*
X149533428Y-85948761D01*
X149231047Y-86553523D02*
X149231047Y-85283523D01*
X149714857Y-85283523D01*
X149835809Y-85344000D01*
X149896285Y-85404476D01*
X149956761Y-85525428D01*
X149956761Y-85706857D01*
X149896285Y-85827809D01*
X149835809Y-85888285D01*
X149714857Y-85948761D01*
X149231047Y-85948761D01*
X150501047Y-85888285D02*
X150924380Y-85888285D01*
X151105809Y-86553523D02*
X150501047Y-86553523D01*
X150501047Y-85283523D01*
X151105809Y-85283523D01*
X152254857Y-86553523D02*
X151650095Y-86553523D01*
X151650095Y-85283523D01*
X152557238Y-85283523D02*
X153343428Y-85283523D01*
X152920095Y-85767333D01*
X153101523Y-85767333D01*
X153222476Y-85827809D01*
X153282952Y-85888285D01*
X153343428Y-86009238D01*
X153343428Y-86311619D01*
X153282952Y-86432571D01*
X153222476Y-86493047D01*
X153101523Y-86553523D01*
X152738666Y-86553523D01*
X152617714Y-86493047D01*
X152557238Y-86432571D01*
X167990761Y-86553523D02*
X167567428Y-85948761D01*
X167265047Y-86553523D02*
X167265047Y-85283523D01*
X167748857Y-85283523D01*
X167869809Y-85344000D01*
X167930285Y-85404476D01*
X167990761Y-85525428D01*
X167990761Y-85706857D01*
X167930285Y-85827809D01*
X167869809Y-85888285D01*
X167748857Y-85948761D01*
X167265047Y-85948761D01*
X168535047Y-85888285D02*
X168958380Y-85888285D01*
X169139809Y-86553523D02*
X168535047Y-86553523D01*
X168535047Y-85283523D01*
X169139809Y-85283523D01*
X170288857Y-86553523D02*
X169684095Y-86553523D01*
X169684095Y-85283523D01*
X171256476Y-85706857D02*
X171256476Y-86553523D01*
X170954095Y-85223047D02*
X170651714Y-86130190D01*
X171437904Y-86130190D01*
X103201904Y-66551523D02*
X103201904Y-65281523D01*
X103685714Y-65281523D01*
X103806666Y-65342000D01*
X103867142Y-65402476D01*
X103927619Y-65523428D01*
X103927619Y-65704857D01*
X103867142Y-65825809D01*
X103806666Y-65886285D01*
X103685714Y-65946761D01*
X103201904Y-65946761D01*
X104350952Y-65281523D02*
X104653333Y-66551523D01*
X104895238Y-65644380D01*
X105137142Y-66551523D01*
X105439523Y-65281523D01*
X106649047Y-66551523D02*
X106225714Y-65946761D01*
X105923333Y-66551523D02*
X105923333Y-65281523D01*
X106407142Y-65281523D01*
X106528095Y-65342000D01*
X106588571Y-65402476D01*
X106649047Y-65523428D01*
X106649047Y-65704857D01*
X106588571Y-65825809D01*
X106528095Y-65886285D01*
X106407142Y-65946761D01*
X105923333Y-65946761D01*
X107132857Y-65402476D02*
X107193333Y-65342000D01*
X107314285Y-65281523D01*
X107616666Y-65281523D01*
X107737619Y-65342000D01*
X107798095Y-65402476D01*
X107858571Y-65523428D01*
X107858571Y-65644380D01*
X107798095Y-65825809D01*
X107072380Y-66551523D01*
X107858571Y-66551523D01*
X95697523Y-66753619D02*
X95697523Y-65737619D01*
X96084571Y-65737619D01*
X96181333Y-65786000D01*
X96229714Y-65834380D01*
X96278095Y-65931142D01*
X96278095Y-66076285D01*
X96229714Y-66173047D01*
X96181333Y-66221428D01*
X96084571Y-66269809D01*
X95697523Y-66269809D01*
X96616761Y-65737619D02*
X96858666Y-66753619D01*
X97052190Y-66027904D01*
X97245714Y-66753619D01*
X97487619Y-65737619D01*
X98455238Y-66753619D02*
X98116571Y-66269809D01*
X97874666Y-66753619D02*
X97874666Y-65737619D01*
X98261714Y-65737619D01*
X98358476Y-65786000D01*
X98406857Y-65834380D01*
X98455238Y-65931142D01*
X98455238Y-66076285D01*
X98406857Y-66173047D01*
X98358476Y-66221428D01*
X98261714Y-66269809D01*
X97874666Y-66269809D01*
X99422857Y-66753619D02*
X98842285Y-66753619D01*
X99132571Y-66753619D02*
X99132571Y-65737619D01*
X99035809Y-65882761D01*
X98939047Y-65979523D01*
X98842285Y-66027904D01*
X87567571Y-134350571D02*
X87930428Y-134471523D01*
X88051380Y-134592476D01*
X88172333Y-134834380D01*
X88172333Y-135197238D01*
X88051380Y-135439142D01*
X87930428Y-135560095D01*
X87688523Y-135681047D01*
X86720904Y-135681047D01*
X86720904Y-133141047D01*
X87567571Y-133141047D01*
X87809476Y-133262000D01*
X87930428Y-133382952D01*
X88051380Y-133624857D01*
X88051380Y-133866761D01*
X87930428Y-134108666D01*
X87809476Y-134229619D01*
X87567571Y-134350571D01*
X86720904Y-134350571D01*
X89260904Y-134834380D02*
X90349476Y-134834380D01*
X89260904Y-133987714D02*
X89260904Y-135681047D01*
X90349476Y-133987714D02*
X90349476Y-135681047D01*
X91559000Y-133987714D02*
X91559000Y-135681047D01*
X92768523Y-133987714D01*
X92768523Y-135681047D01*
X93978047Y-135681047D02*
X93978047Y-133987714D01*
X94703761Y-135318190D01*
X95429476Y-133987714D01*
X95429476Y-135681047D01*
X97727571Y-135681047D02*
X97727571Y-134350571D01*
X97606619Y-134108666D01*
X97364714Y-133987714D01*
X96880904Y-133987714D01*
X96639000Y-134108666D01*
X97727571Y-135560095D02*
X97485666Y-135681047D01*
X96880904Y-135681047D01*
X96639000Y-135560095D01*
X96518047Y-135318190D01*
X96518047Y-135076285D01*
X96639000Y-134834380D01*
X96880904Y-134713428D01*
X97485666Y-134713428D01*
X97727571Y-134592476D01*
X98937095Y-134834380D02*
X100025666Y-134834380D01*
X98937095Y-133987714D02*
X98937095Y-135681047D01*
X100025666Y-133987714D02*
X100025666Y-135681047D01*
X101235190Y-133987714D02*
X101235190Y-135681047D01*
X102444714Y-133987714D01*
X102444714Y-135681047D01*
X104621857Y-135560095D02*
X104379952Y-135681047D01*
X103896142Y-135681047D01*
X103654238Y-135560095D01*
X103533285Y-135318190D01*
X103533285Y-134350571D01*
X103654238Y-134108666D01*
X103896142Y-133987714D01*
X104379952Y-133987714D01*
X104621857Y-134108666D01*
X104742809Y-134350571D01*
X104742809Y-134592476D01*
X103533285Y-134834380D01*
X105831380Y-135439142D02*
X105952333Y-135560095D01*
X105831380Y-135681047D01*
X105710428Y-135560095D01*
X105831380Y-135439142D01*
X105831380Y-135681047D01*
X105831380Y-134713428D02*
X105710428Y-133262000D01*
X105831380Y-133141047D01*
X105952333Y-133262000D01*
X105831380Y-134713428D01*
X105831380Y-133141047D01*
X108976142Y-133141047D02*
X108976142Y-135681047D01*
X110427571Y-133141047D01*
X110427571Y-135681047D01*
X111637095Y-135681047D02*
X111637095Y-133987714D01*
X112362809Y-135318190D01*
X113088523Y-133987714D01*
X113088523Y-135681047D01*
X115386619Y-135681047D02*
X115386619Y-134350571D01*
X115265666Y-134108666D01*
X115023761Y-133987714D01*
X114539952Y-133987714D01*
X114298047Y-134108666D01*
X115386619Y-135560095D02*
X115144714Y-135681047D01*
X114539952Y-135681047D01*
X114298047Y-135560095D01*
X114177095Y-135318190D01*
X114177095Y-135076285D01*
X114298047Y-134834380D01*
X114539952Y-134713428D01*
X115144714Y-134713428D01*
X115386619Y-134592476D01*
X119257095Y-133141047D02*
X119257095Y-136527714D01*
X119015190Y-133987714D02*
X119499000Y-133987714D01*
X119740904Y-134108666D01*
X119982809Y-134350571D01*
X120103761Y-134592476D01*
X120103761Y-135076285D01*
X119982809Y-135318190D01*
X119740904Y-135560095D01*
X119499000Y-135681047D01*
X119015190Y-135681047D01*
X118773285Y-135560095D01*
X118531380Y-135318190D01*
X118410428Y-135076285D01*
X118410428Y-134592476D01*
X118531380Y-134350571D01*
X118773285Y-134108666D01*
X119015190Y-133987714D01*
X121192333Y-133987714D02*
X121192333Y-136527714D01*
X121192333Y-134108666D02*
X121434238Y-133987714D01*
X121918047Y-133987714D01*
X122159952Y-134108666D01*
X122280904Y-134229619D01*
X122401857Y-134471523D01*
X122401857Y-135197238D01*
X122280904Y-135439142D01*
X122159952Y-135560095D01*
X121918047Y-135681047D01*
X121434238Y-135681047D01*
X121192333Y-135560095D01*
X124458047Y-135560095D02*
X124216142Y-135681047D01*
X123732333Y-135681047D01*
X123490428Y-135560095D01*
X123369476Y-135318190D01*
X123369476Y-134350571D01*
X123490428Y-134108666D01*
X123732333Y-133987714D01*
X124216142Y-133987714D01*
X124458047Y-134108666D01*
X124579000Y-134350571D01*
X124579000Y-134592476D01*
X123369476Y-134834380D01*
X125909476Y-134834380D02*
X126151380Y-134834380D01*
X125425666Y-134108666D02*
X125667571Y-133987714D01*
X126151380Y-133987714D01*
X126393285Y-134108666D01*
X126514238Y-134350571D01*
X126514238Y-134471523D01*
X126393285Y-134713428D01*
X126151380Y-134834380D01*
X126393285Y-134955333D01*
X126514238Y-135197238D01*
X126514238Y-135318190D01*
X126393285Y-135560095D01*
X126151380Y-135681047D01*
X125667571Y-135681047D01*
X125425666Y-135560095D01*
X127965666Y-135681047D02*
X127723761Y-135560095D01*
X127602809Y-135439142D01*
X127481857Y-135197238D01*
X127481857Y-134471523D01*
X127602809Y-134229619D01*
X127723761Y-134108666D01*
X127965666Y-133987714D01*
X128328523Y-133987714D01*
X128570428Y-134108666D01*
X128691380Y-134229619D01*
X128812333Y-134471523D01*
X128812333Y-135197238D01*
X128691380Y-135439142D01*
X128570428Y-135560095D01*
X128328523Y-135681047D01*
X127965666Y-135681047D01*
X130505666Y-134834380D02*
X130868523Y-134955333D01*
X130989476Y-135197238D01*
X130989476Y-135318190D01*
X130868523Y-135560095D01*
X130626619Y-135681047D01*
X129900904Y-135681047D01*
X129900904Y-133987714D01*
X130505666Y-133987714D01*
X130747571Y-134108666D01*
X130868523Y-134350571D01*
X130868523Y-134471523D01*
X130747571Y-134713428D01*
X130505666Y-134834380D01*
X129900904Y-134834380D01*
X133166619Y-135681047D02*
X133166619Y-134350571D01*
X133045666Y-134108666D01*
X132803761Y-133987714D01*
X132319952Y-133987714D01*
X132078047Y-134108666D01*
X133166619Y-135560095D02*
X132924714Y-135681047D01*
X132319952Y-135681047D01*
X132078047Y-135560095D01*
X131957095Y-135318190D01*
X131957095Y-135076285D01*
X132078047Y-134834380D01*
X132319952Y-134713428D01*
X132924714Y-134713428D01*
X133166619Y-134592476D01*
X134376142Y-134834380D02*
X135464714Y-134834380D01*
X134376142Y-133987714D02*
X134376142Y-135681047D01*
X135464714Y-133987714D02*
X135464714Y-135681047D01*
X137641857Y-135560095D02*
X137399952Y-135681047D01*
X136916142Y-135681047D01*
X136674238Y-135560095D01*
X136553285Y-135318190D01*
X136553285Y-134350571D01*
X136674238Y-134108666D01*
X136916142Y-133987714D01*
X137399952Y-133987714D01*
X137641857Y-134108666D01*
X137762809Y-134350571D01*
X137762809Y-134592476D01*
X136553285Y-134834380D01*
X140786619Y-134834380D02*
X141875190Y-134834380D01*
X140786619Y-133987714D02*
X140786619Y-135681047D01*
X141875190Y-133987714D02*
X141875190Y-135681047D01*
X144173285Y-135681047D02*
X144173285Y-134350571D01*
X144052333Y-134108666D01*
X143810428Y-133987714D01*
X143326619Y-133987714D01*
X143084714Y-134108666D01*
X144173285Y-135560095D02*
X143931380Y-135681047D01*
X143326619Y-135681047D01*
X143084714Y-135560095D01*
X142963761Y-135318190D01*
X142963761Y-135076285D01*
X143084714Y-134834380D01*
X143326619Y-134713428D01*
X143931380Y-134713428D01*
X144173285Y-134592476D01*
X145382809Y-135681047D02*
X145382809Y-133987714D01*
X146471380Y-133987714D01*
X146471380Y-135681047D01*
X147680904Y-133987714D02*
X147680904Y-136527714D01*
X147680904Y-134108666D02*
X147922809Y-133987714D01*
X148406619Y-133987714D01*
X148648523Y-134108666D01*
X148769476Y-134229619D01*
X148890428Y-134471523D01*
X148890428Y-135197238D01*
X148769476Y-135439142D01*
X148648523Y-135560095D01*
X148406619Y-135681047D01*
X147922809Y-135681047D01*
X147680904Y-135560095D01*
X151067571Y-135681047D02*
X151067571Y-134350571D01*
X150946619Y-134108666D01*
X150704714Y-133987714D01*
X150220904Y-133987714D01*
X149979000Y-134108666D01*
X151067571Y-135560095D02*
X150825666Y-135681047D01*
X150220904Y-135681047D01*
X149979000Y-135560095D01*
X149858047Y-135318190D01*
X149858047Y-135076285D01*
X149979000Y-134834380D01*
X150220904Y-134713428D01*
X150825666Y-134713428D01*
X151067571Y-134592476D01*
X152881857Y-134834380D02*
X153244714Y-134955333D01*
X153365666Y-135197238D01*
X153365666Y-135318190D01*
X153244714Y-135560095D01*
X153002809Y-135681047D01*
X152277095Y-135681047D01*
X152277095Y-133987714D01*
X152881857Y-133987714D01*
X153123761Y-134108666D01*
X153244714Y-134350571D01*
X153244714Y-134471523D01*
X153123761Y-134713428D01*
X152881857Y-134834380D01*
X152277095Y-134834380D01*
X155421857Y-135560095D02*
X155179952Y-135681047D01*
X154696142Y-135681047D01*
X154454238Y-135560095D01*
X154333285Y-135318190D01*
X154333285Y-134350571D01*
X154454238Y-134108666D01*
X154696142Y-133987714D01*
X155179952Y-133987714D01*
X155421857Y-134108666D01*
X155542809Y-134350571D01*
X155542809Y-134592476D01*
X154333285Y-134834380D01*
X156631380Y-134834380D02*
X157719952Y-134834380D01*
X156631380Y-133987714D02*
X156631380Y-135681047D01*
X157719952Y-133987714D02*
X157719952Y-135681047D01*
X159292333Y-135681047D02*
X159050428Y-135560095D01*
X158929476Y-135439142D01*
X158808523Y-135197238D01*
X158808523Y-134471523D01*
X158929476Y-134229619D01*
X159050428Y-134108666D01*
X159292333Y-133987714D01*
X159655190Y-133987714D01*
X159897095Y-134108666D01*
X160018047Y-134229619D01*
X160139000Y-134471523D01*
X160139000Y-135197238D01*
X160018047Y-135439142D01*
X159897095Y-135560095D01*
X159655190Y-135681047D01*
X159292333Y-135681047D01*
X164251380Y-135560095D02*
X164009476Y-135681047D01*
X163525666Y-135681047D01*
X163283761Y-135560095D01*
X163162809Y-135439142D01*
X163041857Y-135197238D01*
X163041857Y-134471523D01*
X163162809Y-134229619D01*
X163283761Y-134108666D01*
X163525666Y-133987714D01*
X164009476Y-133987714D01*
X164251380Y-134108666D01*
X167275190Y-135681047D02*
X167275190Y-133141047D01*
X167879952Y-133141047D01*
X168242809Y-133262000D01*
X168484714Y-133503904D01*
X168605666Y-133745809D01*
X168726619Y-134229619D01*
X168726619Y-134592476D01*
X168605666Y-135076285D01*
X168484714Y-135318190D01*
X168242809Y-135560095D01*
X167879952Y-135681047D01*
X167275190Y-135681047D01*
X169815190Y-135681047D02*
X169815190Y-133987714D01*
X169815190Y-134471523D02*
X169936142Y-134229619D01*
X170057095Y-134108666D01*
X170299000Y-133987714D01*
X170540904Y-133987714D01*
X171387571Y-135681047D02*
X171387571Y-133987714D01*
X171387571Y-133141047D02*
X171266619Y-133262000D01*
X171387571Y-133382952D01*
X171508523Y-133262000D01*
X171387571Y-133141047D01*
X171387571Y-133382952D01*
X172959952Y-135681047D02*
X172718047Y-135560095D01*
X172597095Y-135318190D01*
X172597095Y-133141047D01*
X174290428Y-135681047D02*
X174048523Y-135560095D01*
X173927571Y-135318190D01*
X173927571Y-133141047D01*
X175258047Y-134713428D02*
X177193285Y-134713428D01*
X178281857Y-135560095D02*
X178644714Y-135681047D01*
X179249476Y-135681047D01*
X179491380Y-135560095D01*
X179612333Y-135439142D01*
X179733285Y-135197238D01*
X179733285Y-134955333D01*
X179612333Y-134713428D01*
X179491380Y-134592476D01*
X179249476Y-134471523D01*
X178765666Y-134350571D01*
X178523761Y-134229619D01*
X178402809Y-134108666D01*
X178281857Y-133866761D01*
X178281857Y-133624857D01*
X178402809Y-133382952D01*
X178523761Y-133262000D01*
X178765666Y-133141047D01*
X179370428Y-133141047D01*
X179733285Y-133262000D01*
X181184714Y-135681047D02*
X180942809Y-135560095D01*
X180821857Y-135318190D01*
X180821857Y-133141047D01*
X182515190Y-135681047D02*
X182273285Y-135560095D01*
X182152333Y-135439142D01*
X182031380Y-135197238D01*
X182031380Y-134471523D01*
X182152333Y-134229619D01*
X182273285Y-134108666D01*
X182515190Y-133987714D01*
X182878047Y-133987714D01*
X183119952Y-134108666D01*
X183240904Y-134229619D01*
X183361857Y-134471523D01*
X183361857Y-135197238D01*
X183240904Y-135439142D01*
X183119952Y-135560095D01*
X182878047Y-135681047D01*
X182515190Y-135681047D01*
X184087571Y-133987714D02*
X185055190Y-133987714D01*
X184450428Y-133141047D02*
X184450428Y-135318190D01*
X184571380Y-135560095D01*
X184813285Y-135681047D01*
X185055190Y-135681047D01*
X185780904Y-135560095D02*
X186022809Y-135681047D01*
X186506619Y-135681047D01*
X186748523Y-135560095D01*
X186869476Y-135318190D01*
X186869476Y-135197238D01*
X186748523Y-134955333D01*
X186506619Y-134834380D01*
X186143761Y-134834380D01*
X185901857Y-134713428D01*
X185780904Y-134471523D01*
X185780904Y-134350571D01*
X185901857Y-134108666D01*
X186143761Y-133987714D01*
X186506619Y-133987714D01*
X186748523Y-134108666D01*
X187958047Y-135439142D02*
X188079000Y-135560095D01*
X187958047Y-135681047D01*
X187837095Y-135560095D01*
X187958047Y-135439142D01*
X187958047Y-135681047D01*
X187958047Y-134713428D02*
X187837095Y-133262000D01*
X187958047Y-133141047D01*
X188079000Y-133262000D01*
X187958047Y-134713428D01*
X187958047Y-133141047D01*
X189167571Y-135439142D02*
X189288523Y-135560095D01*
X189167571Y-135681047D01*
X189046619Y-135560095D01*
X189167571Y-135439142D01*
X189167571Y-135681047D01*
X189167571Y-134713428D02*
X189046619Y-133262000D01*
X189167571Y-133141047D01*
X189288523Y-133262000D01*
X189167571Y-134713428D01*
X189167571Y-133141047D01*
X190377095Y-135439142D02*
X190498047Y-135560095D01*
X190377095Y-135681047D01*
X190256142Y-135560095D01*
X190377095Y-135439142D01*
X190377095Y-135681047D01*
X190377095Y-134713428D02*
X190256142Y-133262000D01*
X190377095Y-133141047D01*
X190498047Y-133262000D01*
X190377095Y-134713428D01*
X190377095Y-133141047D01*
X160836428Y-116029619D02*
X160836428Y-116852095D01*
X160884809Y-116948857D01*
X160933190Y-116997238D01*
X161029952Y-117045619D01*
X161223476Y-117045619D01*
X161320238Y-116997238D01*
X161368619Y-116948857D01*
X161417000Y-116852095D01*
X161417000Y-116029619D01*
X161900809Y-116513428D02*
X162239476Y-116513428D01*
X162384619Y-117045619D02*
X161900809Y-117045619D01*
X161900809Y-116029619D01*
X162384619Y-116029619D01*
X162723285Y-116029619D02*
X163400619Y-117045619D01*
X163400619Y-116029619D02*
X162723285Y-117045619D01*
X163642523Y-116029619D02*
X164223095Y-116029619D01*
X163932809Y-117045619D02*
X163932809Y-116029619D01*
X164513380Y-116126380D02*
X164561761Y-116078000D01*
X164658523Y-116029619D01*
X164900428Y-116029619D01*
X164997190Y-116078000D01*
X165045571Y-116126380D01*
X165093952Y-116223142D01*
X165093952Y-116319904D01*
X165045571Y-116465047D01*
X164465000Y-117045619D01*
X165093952Y-117045619D01*
D10*
X163156714Y-119250714D02*
X162721285Y-119250714D01*
X162939000Y-119250714D02*
X162939000Y-118488714D01*
X162866428Y-118597571D01*
X162793857Y-118670142D01*
X162721285Y-118706428D01*
X166896142Y-115769571D02*
X167150142Y-115769571D01*
X167259000Y-116168714D02*
X166896142Y-116168714D01*
X166896142Y-115406714D01*
X167259000Y-115406714D01*
X167549285Y-116132428D02*
X167658142Y-116168714D01*
X167839571Y-116168714D01*
X167912142Y-116132428D01*
X167948428Y-116096142D01*
X167984714Y-116023571D01*
X167984714Y-115951000D01*
X167948428Y-115878428D01*
X167912142Y-115842142D01*
X167839571Y-115805857D01*
X167694428Y-115769571D01*
X167621857Y-115733285D01*
X167585571Y-115697000D01*
X167549285Y-115624428D01*
X167549285Y-115551857D01*
X167585571Y-115479285D01*
X167621857Y-115443000D01*
X167694428Y-115406714D01*
X167875857Y-115406714D01*
X167984714Y-115443000D01*
X168311285Y-116168714D02*
X168311285Y-115406714D01*
X168601571Y-115406714D01*
X168674142Y-115443000D01*
X168710428Y-115479285D01*
X168746714Y-115551857D01*
X168746714Y-115660714D01*
X168710428Y-115733285D01*
X168674142Y-115769571D01*
X168601571Y-115805857D01*
X168311285Y-115805857D01*
X169073285Y-115878428D02*
X169653857Y-115878428D01*
X170016714Y-116168714D02*
X170016714Y-115406714D01*
X170307000Y-115406714D01*
X170379571Y-115443000D01*
X170415857Y-115479285D01*
X170452142Y-115551857D01*
X170452142Y-115660714D01*
X170415857Y-115733285D01*
X170379571Y-115769571D01*
X170307000Y-115805857D01*
X170016714Y-115805857D01*
X171214142Y-116168714D02*
X170960142Y-115805857D01*
X170778714Y-116168714D02*
X170778714Y-115406714D01*
X171069000Y-115406714D01*
X171141571Y-115443000D01*
X171177857Y-115479285D01*
X171214142Y-115551857D01*
X171214142Y-115660714D01*
X171177857Y-115733285D01*
X171141571Y-115769571D01*
X171069000Y-115805857D01*
X170778714Y-115805857D01*
X171685857Y-115406714D02*
X171831000Y-115406714D01*
X171903571Y-115443000D01*
X171976142Y-115515571D01*
X172012428Y-115660714D01*
X172012428Y-115914714D01*
X171976142Y-116059857D01*
X171903571Y-116132428D01*
X171831000Y-116168714D01*
X171685857Y-116168714D01*
X171613285Y-116132428D01*
X171540714Y-116059857D01*
X171504428Y-115914714D01*
X171504428Y-115660714D01*
X171540714Y-115515571D01*
X171613285Y-115443000D01*
X171685857Y-115406714D01*
X172738142Y-115443000D02*
X172665571Y-115406714D01*
X172556714Y-115406714D01*
X172447857Y-115443000D01*
X172375285Y-115515571D01*
X172339000Y-115588142D01*
X172302714Y-115733285D01*
X172302714Y-115842142D01*
X172339000Y-115987285D01*
X172375285Y-116059857D01*
X172447857Y-116132428D01*
X172556714Y-116168714D01*
X172629285Y-116168714D01*
X172738142Y-116132428D01*
X172774428Y-116096142D01*
X172774428Y-115842142D01*
X172629285Y-115842142D01*
X173500142Y-116168714D02*
X173064714Y-116168714D01*
X173282428Y-116168714D02*
X173282428Y-115406714D01*
X173209857Y-115515571D01*
X173137285Y-115588142D01*
X173064714Y-115624428D01*
D11*
X141205857Y-101043619D02*
X140867190Y-100559809D01*
X140625285Y-101043619D02*
X140625285Y-100027619D01*
X141012333Y-100027619D01*
X141109095Y-100076000D01*
X141157476Y-100124380D01*
X141205857Y-100221142D01*
X141205857Y-100366285D01*
X141157476Y-100463047D01*
X141109095Y-100511428D01*
X141012333Y-100559809D01*
X140625285Y-100559809D01*
X141592904Y-100124380D02*
X141641285Y-100076000D01*
X141738047Y-100027619D01*
X141979952Y-100027619D01*
X142076714Y-100076000D01*
X142125095Y-100124380D01*
X142173476Y-100221142D01*
X142173476Y-100317904D01*
X142125095Y-100463047D01*
X141544523Y-101043619D01*
X142173476Y-101043619D01*
X142512142Y-100027619D02*
X143141095Y-100027619D01*
X142802428Y-100414666D01*
X142947571Y-100414666D01*
X143044333Y-100463047D01*
X143092714Y-100511428D01*
X143141095Y-100608190D01*
X143141095Y-100850095D01*
X143092714Y-100946857D01*
X143044333Y-100995238D01*
X142947571Y-101043619D01*
X142657285Y-101043619D01*
X142560523Y-100995238D01*
X142512142Y-100946857D01*
X112062380Y-102440619D02*
X112255904Y-102440619D01*
X112352666Y-102489000D01*
X112449428Y-102585761D01*
X112497809Y-102779285D01*
X112497809Y-103117952D01*
X112449428Y-103311476D01*
X112352666Y-103408238D01*
X112255904Y-103456619D01*
X112062380Y-103456619D01*
X111965619Y-103408238D01*
X111868857Y-103311476D01*
X111820476Y-103117952D01*
X111820476Y-102779285D01*
X111868857Y-102585761D01*
X111965619Y-102489000D01*
X112062380Y-102440619D01*
X112933238Y-103456619D02*
X112933238Y-102440619D01*
X113320285Y-102440619D01*
X113417047Y-102489000D01*
X113465428Y-102537380D01*
X113513809Y-102634142D01*
X113513809Y-102779285D01*
X113465428Y-102876047D01*
X113417047Y-102924428D01*
X113320285Y-102972809D01*
X112933238Y-102972809D01*
X113804095Y-102440619D02*
X114384666Y-102440619D01*
X114094380Y-103456619D02*
X114094380Y-102440619D01*
X115255523Y-103456619D02*
X114674952Y-103456619D01*
X114965238Y-103456619D02*
X114965238Y-102440619D01*
X114868476Y-102585761D01*
X114771714Y-102682523D01*
X114674952Y-102730904D01*
X115378428Y-111601619D02*
X115281666Y-111553238D01*
X115233285Y-111504857D01*
X115184904Y-111408095D01*
X115184904Y-111117809D01*
X115233285Y-111021047D01*
X115281666Y-110972666D01*
X115378428Y-110924285D01*
X115523571Y-110924285D01*
X115620333Y-110972666D01*
X115668714Y-111021047D01*
X115717095Y-111117809D01*
X115717095Y-111408095D01*
X115668714Y-111504857D01*
X115620333Y-111553238D01*
X115523571Y-111601619D01*
X115378428Y-111601619D01*
X117462904Y-105137857D02*
X117462904Y-105984523D01*
X117160523Y-104654047D02*
X116858142Y-105561190D01*
X117644333Y-105561190D01*
X119337666Y-104714523D02*
X120123857Y-104714523D01*
X119700523Y-105198333D01*
X119881952Y-105198333D01*
X120002904Y-105258809D01*
X120063380Y-105319285D01*
X120123857Y-105440238D01*
X120123857Y-105742619D01*
X120063380Y-105863571D01*
X120002904Y-105924047D01*
X119881952Y-105984523D01*
X119519095Y-105984523D01*
X119398142Y-105924047D01*
X119337666Y-105863571D01*
X119398142Y-109153476D02*
X119458619Y-109093000D01*
X119579571Y-109032523D01*
X119881952Y-109032523D01*
X120002904Y-109093000D01*
X120063380Y-109153476D01*
X120123857Y-109274428D01*
X120123857Y-109395380D01*
X120063380Y-109576809D01*
X119337666Y-110302523D01*
X120123857Y-110302523D01*
X118091857Y-110302523D02*
X117366142Y-110302523D01*
X117729000Y-110302523D02*
X117729000Y-109032523D01*
X117608047Y-109213952D01*
X117487095Y-109334904D01*
X117366142Y-109395380D01*
X126600857Y-99864333D02*
X126649238Y-99912714D01*
X126697619Y-100057857D01*
X126697619Y-100154619D01*
X126649238Y-100299761D01*
X126552476Y-100396523D01*
X126455714Y-100444904D01*
X126262190Y-100493285D01*
X126117047Y-100493285D01*
X125923523Y-100444904D01*
X125826761Y-100396523D01*
X125730000Y-100299761D01*
X125681619Y-100154619D01*
X125681619Y-100057857D01*
X125730000Y-99912714D01*
X125778380Y-99864333D01*
X125681619Y-99525666D02*
X125681619Y-98848333D01*
X126697619Y-99283761D01*
X124568857Y-99864333D02*
X124617238Y-99912714D01*
X124665619Y-100057857D01*
X124665619Y-100154619D01*
X124617238Y-100299761D01*
X124520476Y-100396523D01*
X124423714Y-100444904D01*
X124230190Y-100493285D01*
X124085047Y-100493285D01*
X123891523Y-100444904D01*
X123794761Y-100396523D01*
X123698000Y-100299761D01*
X123649619Y-100154619D01*
X123649619Y-100057857D01*
X123698000Y-99912714D01*
X123746380Y-99864333D01*
X124085047Y-99283761D02*
X124036666Y-99380523D01*
X123988285Y-99428904D01*
X123891523Y-99477285D01*
X123843142Y-99477285D01*
X123746380Y-99428904D01*
X123698000Y-99380523D01*
X123649619Y-99283761D01*
X123649619Y-99090238D01*
X123698000Y-98993476D01*
X123746380Y-98945095D01*
X123843142Y-98896714D01*
X123891523Y-98896714D01*
X123988285Y-98945095D01*
X124036666Y-98993476D01*
X124085047Y-99090238D01*
X124085047Y-99283761D01*
X124133428Y-99380523D01*
X124181809Y-99428904D01*
X124278571Y-99477285D01*
X124472095Y-99477285D01*
X124568857Y-99428904D01*
X124617238Y-99380523D01*
X124665619Y-99283761D01*
X124665619Y-99090238D01*
X124617238Y-98993476D01*
X124568857Y-98945095D01*
X124472095Y-98896714D01*
X124278571Y-98896714D01*
X124181809Y-98945095D01*
X124133428Y-98993476D01*
X124085047Y-99090238D01*
D10*
X175586571Y-121793000D02*
X175514000Y-121756714D01*
X175405142Y-121756714D01*
X175296285Y-121793000D01*
X175223714Y-121865571D01*
X175187428Y-121938142D01*
X175151142Y-122083285D01*
X175151142Y-122192142D01*
X175187428Y-122337285D01*
X175223714Y-122409857D01*
X175296285Y-122482428D01*
X175405142Y-122518714D01*
X175477714Y-122518714D01*
X175586571Y-122482428D01*
X175622857Y-122446142D01*
X175622857Y-122192142D01*
X175477714Y-122192142D01*
X175949428Y-122518714D02*
X175949428Y-121756714D01*
X176384857Y-122518714D01*
X176384857Y-121756714D01*
X176747714Y-122518714D02*
X176747714Y-121756714D01*
X176929142Y-121756714D01*
X177038000Y-121793000D01*
X177110571Y-121865571D01*
X177146857Y-121938142D01*
X177183142Y-122083285D01*
X177183142Y-122192142D01*
X177146857Y-122337285D01*
X177110571Y-122409857D01*
X177038000Y-122482428D01*
X176929142Y-122518714D01*
X176747714Y-122518714D01*
X177908857Y-122518714D02*
X177473428Y-122518714D01*
X177691142Y-122518714D02*
X177691142Y-121756714D01*
X177618571Y-121865571D01*
X177546000Y-121938142D01*
X177473428Y-121974428D01*
D11*
X91270666Y-68942857D02*
X91222285Y-68991238D01*
X91077142Y-69039619D01*
X90980380Y-69039619D01*
X90835238Y-68991238D01*
X90738476Y-68894476D01*
X90690095Y-68797714D01*
X90641714Y-68604190D01*
X90641714Y-68459047D01*
X90690095Y-68265523D01*
X90738476Y-68168761D01*
X90835238Y-68072000D01*
X90980380Y-68023619D01*
X91077142Y-68023619D01*
X91222285Y-68072000D01*
X91270666Y-68120380D01*
X92238285Y-69039619D02*
X91657714Y-69039619D01*
X91948000Y-69039619D02*
X91948000Y-68023619D01*
X91851238Y-68168761D01*
X91754476Y-68265523D01*
X91657714Y-68313904D01*
X101497190Y-74893714D02*
X102464809Y-74893714D01*
X101981000Y-75377523D02*
X101981000Y-74409904D01*
X98536190Y-74230714D02*
X99503809Y-74230714D01*
X99020000Y-74714523D02*
X99020000Y-73746904D01*
D10*
X175042285Y-120613714D02*
X175514000Y-120613714D01*
X175260000Y-120904000D01*
X175368857Y-120904000D01*
X175441428Y-120940285D01*
X175477714Y-120976571D01*
X175514000Y-121049142D01*
X175514000Y-121230571D01*
X175477714Y-121303142D01*
X175441428Y-121339428D01*
X175368857Y-121375714D01*
X175151142Y-121375714D01*
X175078571Y-121339428D01*
X175042285Y-121303142D01*
X175840571Y-121303142D02*
X175876857Y-121339428D01*
X175840571Y-121375714D01*
X175804285Y-121339428D01*
X175840571Y-121303142D01*
X175840571Y-121375714D01*
X176130857Y-120613714D02*
X176602571Y-120613714D01*
X176348571Y-120904000D01*
X176457428Y-120904000D01*
X176530000Y-120940285D01*
X176566285Y-120976571D01*
X176602571Y-121049142D01*
X176602571Y-121230571D01*
X176566285Y-121303142D01*
X176530000Y-121339428D01*
X176457428Y-121375714D01*
X176239714Y-121375714D01*
X176167142Y-121339428D01*
X176130857Y-121303142D01*
X176820285Y-120613714D02*
X177074285Y-121375714D01*
X177328285Y-120613714D01*
X177400857Y-121448285D02*
X177981428Y-121448285D01*
X178162857Y-120976571D02*
X178416857Y-120976571D01*
X178525714Y-121375714D02*
X178162857Y-121375714D01*
X178162857Y-120613714D01*
X178525714Y-120613714D01*
X179251428Y-121375714D02*
X178816000Y-121375714D01*
X179033714Y-121375714D02*
X179033714Y-120613714D01*
X178961142Y-120722571D01*
X178888571Y-120795142D01*
X178816000Y-120831428D01*
D11*
X95177428Y-116330476D02*
X95225809Y-116185333D01*
X95274190Y-116136952D01*
X95370952Y-116088571D01*
X95516095Y-116088571D01*
X95612857Y-116136952D01*
X95661238Y-116185333D01*
X95709619Y-116282095D01*
X95709619Y-116669142D01*
X94693619Y-116669142D01*
X94693619Y-116330476D01*
X94742000Y-116233714D01*
X94790380Y-116185333D01*
X94887142Y-116136952D01*
X94983904Y-116136952D01*
X95080666Y-116185333D01*
X95129047Y-116233714D01*
X95177428Y-116330476D01*
X95177428Y-116669142D01*
X94693619Y-115653142D02*
X95516095Y-115653142D01*
X95612857Y-115604761D01*
X95661238Y-115556380D01*
X95709619Y-115459619D01*
X95709619Y-115266095D01*
X95661238Y-115169333D01*
X95612857Y-115120952D01*
X95516095Y-115072571D01*
X94693619Y-115072571D01*
X94693619Y-114733904D02*
X94693619Y-114153333D01*
X95709619Y-114443619D02*
X94693619Y-114443619D01*
X95709619Y-113282476D02*
X95709619Y-113863047D01*
X95709619Y-113572761D02*
X94693619Y-113572761D01*
X94838761Y-113669523D01*
X94935523Y-113766285D01*
X94983904Y-113863047D01*
X91524666Y-77324857D02*
X91476285Y-77373238D01*
X91331142Y-77421619D01*
X91234380Y-77421619D01*
X91089238Y-77373238D01*
X90992476Y-77276476D01*
X90944095Y-77179714D01*
X90895714Y-76986190D01*
X90895714Y-76841047D01*
X90944095Y-76647523D01*
X90992476Y-76550761D01*
X91089238Y-76454000D01*
X91234380Y-76405619D01*
X91331142Y-76405619D01*
X91476285Y-76454000D01*
X91524666Y-76502380D01*
X91911714Y-76502380D02*
X91960095Y-76454000D01*
X92056857Y-76405619D01*
X92298761Y-76405619D01*
X92395523Y-76454000D01*
X92443904Y-76502380D01*
X92492285Y-76599142D01*
X92492285Y-76695904D01*
X92443904Y-76841047D01*
X91863333Y-77421619D01*
X92492285Y-77421619D01*
X112860666Y-93072857D02*
X112812285Y-93121238D01*
X112667142Y-93169619D01*
X112570380Y-93169619D01*
X112425238Y-93121238D01*
X112328476Y-93024476D01*
X112280095Y-92927714D01*
X112231714Y-92734190D01*
X112231714Y-92589047D01*
X112280095Y-92395523D01*
X112328476Y-92298761D01*
X112425238Y-92202000D01*
X112570380Y-92153619D01*
X112667142Y-92153619D01*
X112812285Y-92202000D01*
X112860666Y-92250380D01*
X113199333Y-92153619D02*
X113828285Y-92153619D01*
X113489619Y-92540666D01*
X113634761Y-92540666D01*
X113731523Y-92589047D01*
X113779904Y-92637428D01*
X113828285Y-92734190D01*
X113828285Y-92976095D01*
X113779904Y-93072857D01*
X113731523Y-93121238D01*
X113634761Y-93169619D01*
X113344476Y-93169619D01*
X113247714Y-93121238D01*
X113199333Y-93072857D01*
X98255666Y-82023857D02*
X98207285Y-82072238D01*
X98062142Y-82120619D01*
X97965380Y-82120619D01*
X97820238Y-82072238D01*
X97723476Y-81975476D01*
X97675095Y-81878714D01*
X97626714Y-81685190D01*
X97626714Y-81540047D01*
X97675095Y-81346523D01*
X97723476Y-81249761D01*
X97820238Y-81153000D01*
X97965380Y-81104619D01*
X98062142Y-81104619D01*
X98207285Y-81153000D01*
X98255666Y-81201380D01*
X99126523Y-81443285D02*
X99126523Y-82120619D01*
X98884619Y-81056238D02*
X98642714Y-81781952D01*
X99271666Y-81781952D01*
X96755857Y-90085333D02*
X96804238Y-90133714D01*
X96852619Y-90278857D01*
X96852619Y-90375619D01*
X96804238Y-90520761D01*
X96707476Y-90617523D01*
X96610714Y-90665904D01*
X96417190Y-90714285D01*
X96272047Y-90714285D01*
X96078523Y-90665904D01*
X95981761Y-90617523D01*
X95885000Y-90520761D01*
X95836619Y-90375619D01*
X95836619Y-90278857D01*
X95885000Y-90133714D01*
X95933380Y-90085333D01*
X95836619Y-89166095D02*
X95836619Y-89649904D01*
X96320428Y-89698285D01*
X96272047Y-89649904D01*
X96223666Y-89553142D01*
X96223666Y-89311238D01*
X96272047Y-89214476D01*
X96320428Y-89166095D01*
X96417190Y-89117714D01*
X96659095Y-89117714D01*
X96755857Y-89166095D01*
X96804238Y-89214476D01*
X96852619Y-89311238D01*
X96852619Y-89553142D01*
X96804238Y-89649904D01*
X96755857Y-89698285D01*
X101684666Y-94088857D02*
X101636285Y-94137238D01*
X101491142Y-94185619D01*
X101394380Y-94185619D01*
X101249238Y-94137238D01*
X101152476Y-94040476D01*
X101104095Y-93943714D01*
X101055714Y-93750190D01*
X101055714Y-93605047D01*
X101104095Y-93411523D01*
X101152476Y-93314761D01*
X101249238Y-93218000D01*
X101394380Y-93169619D01*
X101491142Y-93169619D01*
X101636285Y-93218000D01*
X101684666Y-93266380D01*
X102555523Y-93169619D02*
X102362000Y-93169619D01*
X102265238Y-93218000D01*
X102216857Y-93266380D01*
X102120095Y-93411523D01*
X102071714Y-93605047D01*
X102071714Y-93992095D01*
X102120095Y-94088857D01*
X102168476Y-94137238D01*
X102265238Y-94185619D01*
X102458761Y-94185619D01*
X102555523Y-94137238D01*
X102603904Y-94088857D01*
X102652285Y-93992095D01*
X102652285Y-93750190D01*
X102603904Y-93653428D01*
X102555523Y-93605047D01*
X102458761Y-93556666D01*
X102265238Y-93556666D01*
X102168476Y-93605047D01*
X102120095Y-93653428D01*
X102071714Y-93750190D01*
X105307190Y-93054714D02*
X106274809Y-93054714D01*
X105791000Y-93538523D02*
X105791000Y-92570904D01*
X104194190Y-91479714D02*
X105161809Y-91479714D01*
X104678000Y-91963523D02*
X104678000Y-90995904D01*
X181567666Y-91294857D02*
X181519285Y-91343238D01*
X181374142Y-91391619D01*
X181277380Y-91391619D01*
X181132238Y-91343238D01*
X181035476Y-91246476D01*
X180987095Y-91149714D01*
X180938714Y-90956190D01*
X180938714Y-90811047D01*
X180987095Y-90617523D01*
X181035476Y-90520761D01*
X181132238Y-90424000D01*
X181277380Y-90375619D01*
X181374142Y-90375619D01*
X181519285Y-90424000D01*
X181567666Y-90472380D01*
X182051476Y-91391619D02*
X182245000Y-91391619D01*
X182341761Y-91343238D01*
X182390142Y-91294857D01*
X182486904Y-91149714D01*
X182535285Y-90956190D01*
X182535285Y-90569142D01*
X182486904Y-90472380D01*
X182438523Y-90424000D01*
X182341761Y-90375619D01*
X182148238Y-90375619D01*
X182051476Y-90424000D01*
X182003095Y-90472380D01*
X181954714Y-90569142D01*
X181954714Y-90811047D01*
X182003095Y-90907809D01*
X182051476Y-90956190D01*
X182148238Y-91004571D01*
X182341761Y-91004571D01*
X182438523Y-90956190D01*
X182486904Y-90907809D01*
X182535285Y-90811047D01*
X180575857Y-89643857D02*
X180527476Y-89692238D01*
X180382333Y-89740619D01*
X180285571Y-89740619D01*
X180140428Y-89692238D01*
X180043666Y-89595476D01*
X179995285Y-89498714D01*
X179946904Y-89305190D01*
X179946904Y-89160047D01*
X179995285Y-88966523D01*
X180043666Y-88869761D01*
X180140428Y-88773000D01*
X180285571Y-88724619D01*
X180382333Y-88724619D01*
X180527476Y-88773000D01*
X180575857Y-88821380D01*
X181543476Y-89740619D02*
X180962904Y-89740619D01*
X181253190Y-89740619D02*
X181253190Y-88724619D01*
X181156428Y-88869761D01*
X181059666Y-88966523D01*
X180962904Y-89014904D01*
X182172428Y-88724619D02*
X182269190Y-88724619D01*
X182365952Y-88773000D01*
X182414333Y-88821380D01*
X182462714Y-88918142D01*
X182511095Y-89111666D01*
X182511095Y-89353571D01*
X182462714Y-89547095D01*
X182414333Y-89643857D01*
X182365952Y-89692238D01*
X182269190Y-89740619D01*
X182172428Y-89740619D01*
X182075666Y-89692238D01*
X182027285Y-89643857D01*
X181978904Y-89547095D01*
X181930523Y-89353571D01*
X181930523Y-89111666D01*
X181978904Y-88918142D01*
X182027285Y-88821380D01*
X182075666Y-88773000D01*
X182172428Y-88724619D01*
X173463857Y-94215857D02*
X173415476Y-94264238D01*
X173270333Y-94312619D01*
X173173571Y-94312619D01*
X173028428Y-94264238D01*
X172931666Y-94167476D01*
X172883285Y-94070714D01*
X172834904Y-93877190D01*
X172834904Y-93732047D01*
X172883285Y-93538523D01*
X172931666Y-93441761D01*
X173028428Y-93345000D01*
X173173571Y-93296619D01*
X173270333Y-93296619D01*
X173415476Y-93345000D01*
X173463857Y-93393380D01*
X174431476Y-94312619D02*
X173850904Y-94312619D01*
X174141190Y-94312619D02*
X174141190Y-93296619D01*
X174044428Y-93441761D01*
X173947666Y-93538523D01*
X173850904Y-93586904D01*
X175399095Y-94312619D02*
X174818523Y-94312619D01*
X175108809Y-94312619D02*
X175108809Y-93296619D01*
X175012047Y-93441761D01*
X174915285Y-93538523D01*
X174818523Y-93586904D01*
X112546571Y-59542142D02*
X112607047Y-59602619D01*
X112667523Y-59784047D01*
X112667523Y-59905000D01*
X112607047Y-60086428D01*
X112486095Y-60207380D01*
X112365142Y-60267857D01*
X112123238Y-60328333D01*
X111941809Y-60328333D01*
X111699904Y-60267857D01*
X111578952Y-60207380D01*
X111458000Y-60086428D01*
X111397523Y-59905000D01*
X111397523Y-59784047D01*
X111458000Y-59602619D01*
X111518476Y-59542142D01*
X111397523Y-58755952D02*
X111397523Y-58514047D01*
X111458000Y-58393095D01*
X111578952Y-58272142D01*
X111820857Y-58211666D01*
X112244190Y-58211666D01*
X112486095Y-58272142D01*
X112607047Y-58393095D01*
X112667523Y-58514047D01*
X112667523Y-58755952D01*
X112607047Y-58876904D01*
X112486095Y-58997857D01*
X112244190Y-59058333D01*
X111820857Y-59058333D01*
X111578952Y-58997857D01*
X111458000Y-58876904D01*
X111397523Y-58755952D01*
X112667523Y-57667380D02*
X111397523Y-57667380D01*
X112667523Y-56941666D01*
X111397523Y-56941666D01*
X112667523Y-55671666D02*
X112667523Y-56397380D01*
X112667523Y-56034523D02*
X111397523Y-56034523D01*
X111578952Y-56155476D01*
X111699904Y-56276428D01*
X111760380Y-56397380D01*
X130546571Y-59542142D02*
X130607047Y-59602619D01*
X130667523Y-59784047D01*
X130667523Y-59905000D01*
X130607047Y-60086428D01*
X130486095Y-60207380D01*
X130365142Y-60267857D01*
X130123238Y-60328333D01*
X129941809Y-60328333D01*
X129699904Y-60267857D01*
X129578952Y-60207380D01*
X129458000Y-60086428D01*
X129397523Y-59905000D01*
X129397523Y-59784047D01*
X129458000Y-59602619D01*
X129518476Y-59542142D01*
X129397523Y-58755952D02*
X129397523Y-58514047D01*
X129458000Y-58393095D01*
X129578952Y-58272142D01*
X129820857Y-58211666D01*
X130244190Y-58211666D01*
X130486095Y-58272142D01*
X130607047Y-58393095D01*
X130667523Y-58514047D01*
X130667523Y-58755952D01*
X130607047Y-58876904D01*
X130486095Y-58997857D01*
X130244190Y-59058333D01*
X129820857Y-59058333D01*
X129578952Y-58997857D01*
X129458000Y-58876904D01*
X129397523Y-58755952D01*
X130667523Y-57667380D02*
X129397523Y-57667380D01*
X130667523Y-56941666D01*
X129397523Y-56941666D01*
X129518476Y-56397380D02*
X129458000Y-56336904D01*
X129397523Y-56215952D01*
X129397523Y-55913571D01*
X129458000Y-55792619D01*
X129518476Y-55732142D01*
X129639428Y-55671666D01*
X129760380Y-55671666D01*
X129941809Y-55732142D01*
X130667523Y-56457857D01*
X130667523Y-55671666D01*
X148546571Y-59542142D02*
X148607047Y-59602619D01*
X148667523Y-59784047D01*
X148667523Y-59905000D01*
X148607047Y-60086428D01*
X148486095Y-60207380D01*
X148365142Y-60267857D01*
X148123238Y-60328333D01*
X147941809Y-60328333D01*
X147699904Y-60267857D01*
X147578952Y-60207380D01*
X147458000Y-60086428D01*
X147397523Y-59905000D01*
X147397523Y-59784047D01*
X147458000Y-59602619D01*
X147518476Y-59542142D01*
X147397523Y-58755952D02*
X147397523Y-58514047D01*
X147458000Y-58393095D01*
X147578952Y-58272142D01*
X147820857Y-58211666D01*
X148244190Y-58211666D01*
X148486095Y-58272142D01*
X148607047Y-58393095D01*
X148667523Y-58514047D01*
X148667523Y-58755952D01*
X148607047Y-58876904D01*
X148486095Y-58997857D01*
X148244190Y-59058333D01*
X147820857Y-59058333D01*
X147578952Y-58997857D01*
X147458000Y-58876904D01*
X147397523Y-58755952D01*
X148667523Y-57667380D02*
X147397523Y-57667380D01*
X148667523Y-56941666D01*
X147397523Y-56941666D01*
X147397523Y-56457857D02*
X147397523Y-55671666D01*
X147881333Y-56095000D01*
X147881333Y-55913571D01*
X147941809Y-55792619D01*
X148002285Y-55732142D01*
X148123238Y-55671666D01*
X148425619Y-55671666D01*
X148546571Y-55732142D01*
X148607047Y-55792619D01*
X148667523Y-55913571D01*
X148667523Y-56276428D01*
X148607047Y-56397380D01*
X148546571Y-56457857D01*
X166546571Y-59542142D02*
X166607047Y-59602619D01*
X166667523Y-59784047D01*
X166667523Y-59905000D01*
X166607047Y-60086428D01*
X166486095Y-60207380D01*
X166365142Y-60267857D01*
X166123238Y-60328333D01*
X165941809Y-60328333D01*
X165699904Y-60267857D01*
X165578952Y-60207380D01*
X165458000Y-60086428D01*
X165397523Y-59905000D01*
X165397523Y-59784047D01*
X165458000Y-59602619D01*
X165518476Y-59542142D01*
X165397523Y-58755952D02*
X165397523Y-58514047D01*
X165458000Y-58393095D01*
X165578952Y-58272142D01*
X165820857Y-58211666D01*
X166244190Y-58211666D01*
X166486095Y-58272142D01*
X166607047Y-58393095D01*
X166667523Y-58514047D01*
X166667523Y-58755952D01*
X166607047Y-58876904D01*
X166486095Y-58997857D01*
X166244190Y-59058333D01*
X165820857Y-59058333D01*
X165578952Y-58997857D01*
X165458000Y-58876904D01*
X165397523Y-58755952D01*
X166667523Y-57667380D02*
X165397523Y-57667380D01*
X166667523Y-56941666D01*
X165397523Y-56941666D01*
X165820857Y-55792619D02*
X166667523Y-55792619D01*
X165337047Y-56095000D02*
X166244190Y-56397380D01*
X166244190Y-55611190D01*
X109740095Y-72849619D02*
X109740095Y-71833619D01*
X109982000Y-71833619D01*
X110127142Y-71882000D01*
X110223904Y-71978761D01*
X110272285Y-72075523D01*
X110320666Y-72269047D01*
X110320666Y-72414190D01*
X110272285Y-72607714D01*
X110223904Y-72704476D01*
X110127142Y-72801238D01*
X109982000Y-72849619D01*
X109740095Y-72849619D01*
X111288285Y-72849619D02*
X110707714Y-72849619D01*
X110998000Y-72849619D02*
X110998000Y-71833619D01*
X110901238Y-71978761D01*
X110804476Y-72075523D01*
X110707714Y-72123904D01*
X112407095Y-105996619D02*
X112407095Y-104980619D01*
X112649000Y-104980619D01*
X112794142Y-105029000D01*
X112890904Y-105125761D01*
X112939285Y-105222523D01*
X112987666Y-105416047D01*
X112987666Y-105561190D01*
X112939285Y-105754714D01*
X112890904Y-105851476D01*
X112794142Y-105948238D01*
X112649000Y-105996619D01*
X112407095Y-105996619D01*
X113374714Y-105077380D02*
X113423095Y-105029000D01*
X113519857Y-104980619D01*
X113761761Y-104980619D01*
X113858523Y-105029000D01*
X113906904Y-105077380D01*
X113955285Y-105174142D01*
X113955285Y-105270904D01*
X113906904Y-105416047D01*
X113326333Y-105996619D01*
X113955285Y-105996619D01*
X125361095Y-105996619D02*
X125361095Y-104980619D01*
X125603000Y-104980619D01*
X125748142Y-105029000D01*
X125844904Y-105125761D01*
X125893285Y-105222523D01*
X125941666Y-105416047D01*
X125941666Y-105561190D01*
X125893285Y-105754714D01*
X125844904Y-105851476D01*
X125748142Y-105948238D01*
X125603000Y-105996619D01*
X125361095Y-105996619D01*
X126280333Y-104980619D02*
X126909285Y-104980619D01*
X126570619Y-105367666D01*
X126715761Y-105367666D01*
X126812523Y-105416047D01*
X126860904Y-105464428D01*
X126909285Y-105561190D01*
X126909285Y-105803095D01*
X126860904Y-105899857D01*
X126812523Y-105948238D01*
X126715761Y-105996619D01*
X126425476Y-105996619D01*
X126328714Y-105948238D01*
X126280333Y-105899857D01*
X138442095Y-105996619D02*
X138442095Y-104980619D01*
X138684000Y-104980619D01*
X138829142Y-105029000D01*
X138925904Y-105125761D01*
X138974285Y-105222523D01*
X139022666Y-105416047D01*
X139022666Y-105561190D01*
X138974285Y-105754714D01*
X138925904Y-105851476D01*
X138829142Y-105948238D01*
X138684000Y-105996619D01*
X138442095Y-105996619D01*
X139893523Y-105319285D02*
X139893523Y-105996619D01*
X139651619Y-104932238D02*
X139409714Y-105657952D01*
X140038666Y-105657952D01*
X151396095Y-105996619D02*
X151396095Y-104980619D01*
X151638000Y-104980619D01*
X151783142Y-105029000D01*
X151879904Y-105125761D01*
X151928285Y-105222523D01*
X151976666Y-105416047D01*
X151976666Y-105561190D01*
X151928285Y-105754714D01*
X151879904Y-105851476D01*
X151783142Y-105948238D01*
X151638000Y-105996619D01*
X151396095Y-105996619D01*
X152895904Y-104980619D02*
X152412095Y-104980619D01*
X152363714Y-105464428D01*
X152412095Y-105416047D01*
X152508857Y-105367666D01*
X152750761Y-105367666D01*
X152847523Y-105416047D01*
X152895904Y-105464428D01*
X152944285Y-105561190D01*
X152944285Y-105803095D01*
X152895904Y-105899857D01*
X152847523Y-105948238D01*
X152750761Y-105996619D01*
X152508857Y-105996619D01*
X152412095Y-105948238D01*
X152363714Y-105899857D01*
X102440619Y-78981904D02*
X101424619Y-78981904D01*
X101424619Y-78740000D01*
X101473000Y-78594857D01*
X101569761Y-78498095D01*
X101666523Y-78449714D01*
X101860047Y-78401333D01*
X102005190Y-78401333D01*
X102198714Y-78449714D01*
X102295476Y-78498095D01*
X102392238Y-78594857D01*
X102440619Y-78740000D01*
X102440619Y-78981904D01*
X101424619Y-77530476D02*
X101424619Y-77724000D01*
X101473000Y-77820761D01*
X101521380Y-77869142D01*
X101666523Y-77965904D01*
X101860047Y-78014285D01*
X102247095Y-78014285D01*
X102343857Y-77965904D01*
X102392238Y-77917523D01*
X102440619Y-77820761D01*
X102440619Y-77627238D01*
X102392238Y-77530476D01*
X102343857Y-77482095D01*
X102247095Y-77433714D01*
X102005190Y-77433714D01*
X101908428Y-77482095D01*
X101860047Y-77530476D01*
X101811666Y-77627238D01*
X101811666Y-77820761D01*
X101860047Y-77917523D01*
X101908428Y-77965904D01*
X102005190Y-78014285D01*
X113677095Y-88470619D02*
X113677095Y-87454619D01*
X113919000Y-87454619D01*
X114064142Y-87503000D01*
X114160904Y-87599761D01*
X114209285Y-87696523D01*
X114257666Y-87890047D01*
X114257666Y-88035190D01*
X114209285Y-88228714D01*
X114160904Y-88325476D01*
X114064142Y-88422238D01*
X113919000Y-88470619D01*
X113677095Y-88470619D01*
X114596333Y-87454619D02*
X115273666Y-87454619D01*
X114838238Y-88470619D01*
X126250095Y-88597619D02*
X126250095Y-87581619D01*
X126492000Y-87581619D01*
X126637142Y-87630000D01*
X126733904Y-87726761D01*
X126782285Y-87823523D01*
X126830666Y-88017047D01*
X126830666Y-88162190D01*
X126782285Y-88355714D01*
X126733904Y-88452476D01*
X126637142Y-88549238D01*
X126492000Y-88597619D01*
X126250095Y-88597619D01*
X127411238Y-88017047D02*
X127314476Y-87968666D01*
X127266095Y-87920285D01*
X127217714Y-87823523D01*
X127217714Y-87775142D01*
X127266095Y-87678380D01*
X127314476Y-87630000D01*
X127411238Y-87581619D01*
X127604761Y-87581619D01*
X127701523Y-87630000D01*
X127749904Y-87678380D01*
X127798285Y-87775142D01*
X127798285Y-87823523D01*
X127749904Y-87920285D01*
X127701523Y-87968666D01*
X127604761Y-88017047D01*
X127411238Y-88017047D01*
X127314476Y-88065428D01*
X127266095Y-88113809D01*
X127217714Y-88210571D01*
X127217714Y-88404095D01*
X127266095Y-88500857D01*
X127314476Y-88549238D01*
X127411238Y-88597619D01*
X127604761Y-88597619D01*
X127701523Y-88549238D01*
X127749904Y-88500857D01*
X127798285Y-88404095D01*
X127798285Y-88210571D01*
X127749904Y-88113809D01*
X127701523Y-88065428D01*
X127604761Y-88017047D01*
X141871095Y-88597619D02*
X141871095Y-87581619D01*
X142113000Y-87581619D01*
X142258142Y-87630000D01*
X142354904Y-87726761D01*
X142403285Y-87823523D01*
X142451666Y-88017047D01*
X142451666Y-88162190D01*
X142403285Y-88355714D01*
X142354904Y-88452476D01*
X142258142Y-88549238D01*
X142113000Y-88597619D01*
X141871095Y-88597619D01*
X142935476Y-88597619D02*
X143129000Y-88597619D01*
X143225761Y-88549238D01*
X143274142Y-88500857D01*
X143370904Y-88355714D01*
X143419285Y-88162190D01*
X143419285Y-87775142D01*
X143370904Y-87678380D01*
X143322523Y-87630000D01*
X143225761Y-87581619D01*
X143032238Y-87581619D01*
X142935476Y-87630000D01*
X142887095Y-87678380D01*
X142838714Y-87775142D01*
X142838714Y-88017047D01*
X142887095Y-88113809D01*
X142935476Y-88162190D01*
X143032238Y-88210571D01*
X143225761Y-88210571D01*
X143322523Y-88162190D01*
X143370904Y-88113809D01*
X143419285Y-88017047D01*
X160056285Y-88597619D02*
X160056285Y-87581619D01*
X160298190Y-87581619D01*
X160443333Y-87630000D01*
X160540095Y-87726761D01*
X160588476Y-87823523D01*
X160636857Y-88017047D01*
X160636857Y-88162190D01*
X160588476Y-88355714D01*
X160540095Y-88452476D01*
X160443333Y-88549238D01*
X160298190Y-88597619D01*
X160056285Y-88597619D01*
X161604476Y-88597619D02*
X161023904Y-88597619D01*
X161314190Y-88597619D02*
X161314190Y-87581619D01*
X161217428Y-87726761D01*
X161120666Y-87823523D01*
X161023904Y-87871904D01*
X162233428Y-87581619D02*
X162330190Y-87581619D01*
X162426952Y-87630000D01*
X162475333Y-87678380D01*
X162523714Y-87775142D01*
X162572095Y-87968666D01*
X162572095Y-88210571D01*
X162523714Y-88404095D01*
X162475333Y-88500857D01*
X162426952Y-88549238D01*
X162330190Y-88597619D01*
X162233428Y-88597619D01*
X162136666Y-88549238D01*
X162088285Y-88500857D01*
X162039904Y-88404095D01*
X161991523Y-88210571D01*
X161991523Y-87968666D01*
X162039904Y-87775142D01*
X162088285Y-87678380D01*
X162136666Y-87630000D01*
X162233428Y-87581619D01*
X176439285Y-88597619D02*
X176439285Y-87581619D01*
X176681190Y-87581619D01*
X176826333Y-87630000D01*
X176923095Y-87726761D01*
X176971476Y-87823523D01*
X177019857Y-88017047D01*
X177019857Y-88162190D01*
X176971476Y-88355714D01*
X176923095Y-88452476D01*
X176826333Y-88549238D01*
X176681190Y-88597619D01*
X176439285Y-88597619D01*
X177987476Y-88597619D02*
X177406904Y-88597619D01*
X177697190Y-88597619D02*
X177697190Y-87581619D01*
X177600428Y-87726761D01*
X177503666Y-87823523D01*
X177406904Y-87871904D01*
X178955095Y-88597619D02*
X178374523Y-88597619D01*
X178664809Y-88597619D02*
X178664809Y-87581619D01*
X178568047Y-87726761D01*
X178471285Y-87823523D01*
X178374523Y-87871904D01*
D12*
X185837285Y-76133476D02*
X185837285Y-75710142D01*
X186502523Y-75528714D02*
X186502523Y-76133476D01*
X185232523Y-76133476D01*
X185232523Y-75528714D01*
X185232523Y-75105380D02*
X186502523Y-74258714D01*
X185232523Y-74258714D02*
X186502523Y-75105380D01*
X185232523Y-73956333D02*
X185232523Y-73230619D01*
X186502523Y-73593476D02*
X185232523Y-73593476D01*
X186502523Y-72142047D02*
X186502523Y-72867761D01*
X186502523Y-72504904D02*
X185232523Y-72504904D01*
X185413952Y-72625857D01*
X185534904Y-72746809D01*
X185595380Y-72867761D01*
D11*
X105875666Y-94542428D02*
X105537000Y-94542428D01*
X105537000Y-95074619D02*
X105537000Y-94058619D01*
X106020809Y-94058619D01*
X106407857Y-94542428D02*
X106746523Y-94542428D01*
X106891666Y-95074619D02*
X106407857Y-95074619D01*
X106407857Y-94058619D01*
X106891666Y-94058619D01*
X107181952Y-94058619D02*
X107762523Y-94058619D01*
X107472238Y-95074619D02*
X107472238Y-94058619D01*
X108633380Y-95074619D02*
X108052809Y-95074619D01*
X108343095Y-95074619D02*
X108343095Y-94058619D01*
X108246333Y-94203761D01*
X108149571Y-94300523D01*
X108052809Y-94348904D01*
X118364000Y-114620523D02*
X118364000Y-113350523D01*
X118968761Y-114620523D02*
X118968761Y-113350523D01*
X119694476Y-114620523D01*
X119694476Y-113350523D01*
X120964476Y-114620523D02*
X120238761Y-114620523D01*
X120601619Y-114620523D02*
X120601619Y-113350523D01*
X120480666Y-113531952D01*
X120359714Y-113652904D01*
X120238761Y-113713380D01*
X131318000Y-114620523D02*
X131318000Y-113350523D01*
X131922761Y-114620523D02*
X131922761Y-113350523D01*
X132648476Y-114620523D01*
X132648476Y-113350523D01*
X133192761Y-113471476D02*
X133253238Y-113411000D01*
X133374190Y-113350523D01*
X133676571Y-113350523D01*
X133797523Y-113411000D01*
X133858000Y-113471476D01*
X133918476Y-113592428D01*
X133918476Y-113713380D01*
X133858000Y-113894809D01*
X133132285Y-114620523D01*
X133918476Y-114620523D01*
X144399000Y-114620523D02*
X144399000Y-113350523D01*
X145003761Y-114620523D02*
X145003761Y-113350523D01*
X145729476Y-114620523D01*
X145729476Y-113350523D01*
X146213285Y-113350523D02*
X146999476Y-113350523D01*
X146576142Y-113834333D01*
X146757571Y-113834333D01*
X146878523Y-113894809D01*
X146939000Y-113955285D01*
X146999476Y-114076238D01*
X146999476Y-114378619D01*
X146939000Y-114499571D01*
X146878523Y-114560047D01*
X146757571Y-114620523D01*
X146394714Y-114620523D01*
X146273761Y-114560047D01*
X146213285Y-114499571D01*
X157353000Y-114620523D02*
X157353000Y-113350523D01*
X157957761Y-114620523D02*
X157957761Y-113350523D01*
X158683476Y-114620523D01*
X158683476Y-113350523D01*
X159832523Y-113773857D02*
X159832523Y-114620523D01*
X159530142Y-113290047D02*
X159227761Y-114197190D01*
X160013952Y-114197190D01*
X111717666Y-74881619D02*
X111233857Y-74881619D01*
X111233857Y-73865619D01*
X112588523Y-74881619D02*
X112007952Y-74881619D01*
X112298238Y-74881619D02*
X112298238Y-73865619D01*
X112201476Y-74010761D01*
X112104714Y-74107523D01*
X112007952Y-74155904D01*
X120988666Y-98503619D02*
X120504857Y-98503619D01*
X120504857Y-97487619D01*
X121278952Y-97584380D02*
X121327333Y-97536000D01*
X121424095Y-97487619D01*
X121666000Y-97487619D01*
X121762761Y-97536000D01*
X121811142Y-97584380D01*
X121859523Y-97681142D01*
X121859523Y-97777904D01*
X121811142Y-97923047D01*
X121230571Y-98503619D01*
X121859523Y-98503619D01*
X114433047Y-114505619D02*
X113949238Y-114505619D01*
X113949238Y-113489619D01*
X114771714Y-113973428D02*
X115110380Y-113973428D01*
X115255523Y-114505619D02*
X114771714Y-114505619D01*
X114771714Y-113489619D01*
X115255523Y-113489619D01*
X115690952Y-114505619D02*
X115690952Y-113489619D01*
X115932857Y-113489619D01*
X116078000Y-113538000D01*
X116174761Y-113634761D01*
X116223142Y-113731523D01*
X116271523Y-113925047D01*
X116271523Y-114070190D01*
X116223142Y-114263714D01*
X116174761Y-114360476D01*
X116078000Y-114457238D01*
X115932857Y-114505619D01*
X115690952Y-114505619D01*
X117239142Y-114505619D02*
X116658571Y-114505619D01*
X116948857Y-114505619D02*
X116948857Y-113489619D01*
X116852095Y-113634761D01*
X116755333Y-113731523D01*
X116658571Y-113779904D01*
X127387047Y-114505619D02*
X126903238Y-114505619D01*
X126903238Y-113489619D01*
X127725714Y-113973428D02*
X128064380Y-113973428D01*
X128209523Y-114505619D02*
X127725714Y-114505619D01*
X127725714Y-113489619D01*
X128209523Y-113489619D01*
X128644952Y-114505619D02*
X128644952Y-113489619D01*
X128886857Y-113489619D01*
X129032000Y-113538000D01*
X129128761Y-113634761D01*
X129177142Y-113731523D01*
X129225523Y-113925047D01*
X129225523Y-114070190D01*
X129177142Y-114263714D01*
X129128761Y-114360476D01*
X129032000Y-114457238D01*
X128886857Y-114505619D01*
X128644952Y-114505619D01*
X129612571Y-113586380D02*
X129660952Y-113538000D01*
X129757714Y-113489619D01*
X129999619Y-113489619D01*
X130096380Y-113538000D01*
X130144761Y-113586380D01*
X130193142Y-113683142D01*
X130193142Y-113779904D01*
X130144761Y-113925047D01*
X129564190Y-114505619D01*
X130193142Y-114505619D01*
X140468047Y-114505619D02*
X139984238Y-114505619D01*
X139984238Y-113489619D01*
X140806714Y-113973428D02*
X141145380Y-113973428D01*
X141290523Y-114505619D02*
X140806714Y-114505619D01*
X140806714Y-113489619D01*
X141290523Y-113489619D01*
X141725952Y-114505619D02*
X141725952Y-113489619D01*
X141967857Y-113489619D01*
X142113000Y-113538000D01*
X142209761Y-113634761D01*
X142258142Y-113731523D01*
X142306523Y-113925047D01*
X142306523Y-114070190D01*
X142258142Y-114263714D01*
X142209761Y-114360476D01*
X142113000Y-114457238D01*
X141967857Y-114505619D01*
X141725952Y-114505619D01*
X142645190Y-113489619D02*
X143274142Y-113489619D01*
X142935476Y-113876666D01*
X143080619Y-113876666D01*
X143177380Y-113925047D01*
X143225761Y-113973428D01*
X143274142Y-114070190D01*
X143274142Y-114312095D01*
X143225761Y-114408857D01*
X143177380Y-114457238D01*
X143080619Y-114505619D01*
X142790333Y-114505619D01*
X142693571Y-114457238D01*
X142645190Y-114408857D01*
X153422047Y-114505619D02*
X152938238Y-114505619D01*
X152938238Y-113489619D01*
X153760714Y-113973428D02*
X154099380Y-113973428D01*
X154244523Y-114505619D02*
X153760714Y-114505619D01*
X153760714Y-113489619D01*
X154244523Y-113489619D01*
X154679952Y-114505619D02*
X154679952Y-113489619D01*
X154921857Y-113489619D01*
X155067000Y-113538000D01*
X155163761Y-113634761D01*
X155212142Y-113731523D01*
X155260523Y-113925047D01*
X155260523Y-114070190D01*
X155212142Y-114263714D01*
X155163761Y-114360476D01*
X155067000Y-114457238D01*
X154921857Y-114505619D01*
X154679952Y-114505619D01*
X156131380Y-113828285D02*
X156131380Y-114505619D01*
X155889476Y-113441238D02*
X155647571Y-114166952D01*
X156276523Y-114166952D01*
X120783047Y-92280619D02*
X120299238Y-92280619D01*
X120299238Y-91264619D01*
X121121714Y-91748428D02*
X121460380Y-91748428D01*
X121605523Y-92280619D02*
X121121714Y-92280619D01*
X121121714Y-91264619D01*
X121605523Y-91264619D01*
X122040952Y-92280619D02*
X122040952Y-91264619D01*
X122282857Y-91264619D01*
X122428000Y-91313000D01*
X122524761Y-91409761D01*
X122573142Y-91506523D01*
X122621523Y-91700047D01*
X122621523Y-91845190D01*
X122573142Y-92038714D01*
X122524761Y-92135476D01*
X122428000Y-92232238D01*
X122282857Y-92280619D01*
X122040952Y-92280619D01*
X123540761Y-91264619D02*
X123056952Y-91264619D01*
X123008571Y-91748428D01*
X123056952Y-91700047D01*
X123153714Y-91651666D01*
X123395619Y-91651666D01*
X123492380Y-91700047D01*
X123540761Y-91748428D01*
X123589142Y-91845190D01*
X123589142Y-92087095D01*
X123540761Y-92183857D01*
X123492380Y-92232238D01*
X123395619Y-92280619D01*
X123153714Y-92280619D01*
X123056952Y-92232238D01*
X123008571Y-92183857D01*
X136658047Y-92280619D02*
X136174238Y-92280619D01*
X136174238Y-91264619D01*
X136996714Y-91748428D02*
X137335380Y-91748428D01*
X137480523Y-92280619D02*
X136996714Y-92280619D01*
X136996714Y-91264619D01*
X137480523Y-91264619D01*
X137915952Y-92280619D02*
X137915952Y-91264619D01*
X138157857Y-91264619D01*
X138303000Y-91313000D01*
X138399761Y-91409761D01*
X138448142Y-91506523D01*
X138496523Y-91700047D01*
X138496523Y-91845190D01*
X138448142Y-92038714D01*
X138399761Y-92135476D01*
X138303000Y-92232238D01*
X138157857Y-92280619D01*
X137915952Y-92280619D01*
X139367380Y-91264619D02*
X139173857Y-91264619D01*
X139077095Y-91313000D01*
X139028714Y-91361380D01*
X138931952Y-91506523D01*
X138883571Y-91700047D01*
X138883571Y-92087095D01*
X138931952Y-92183857D01*
X138980333Y-92232238D01*
X139077095Y-92280619D01*
X139270619Y-92280619D01*
X139367380Y-92232238D01*
X139415761Y-92183857D01*
X139464142Y-92087095D01*
X139464142Y-91845190D01*
X139415761Y-91748428D01*
X139367380Y-91700047D01*
X139270619Y-91651666D01*
X139077095Y-91651666D01*
X138980333Y-91700047D01*
X138931952Y-91748428D01*
X138883571Y-91845190D01*
X154692047Y-92280619D02*
X154208238Y-92280619D01*
X154208238Y-91264619D01*
X155030714Y-91748428D02*
X155369380Y-91748428D01*
X155514523Y-92280619D02*
X155030714Y-92280619D01*
X155030714Y-91264619D01*
X155514523Y-91264619D01*
X155949952Y-92280619D02*
X155949952Y-91264619D01*
X156191857Y-91264619D01*
X156337000Y-91313000D01*
X156433761Y-91409761D01*
X156482142Y-91506523D01*
X156530523Y-91700047D01*
X156530523Y-91845190D01*
X156482142Y-92038714D01*
X156433761Y-92135476D01*
X156337000Y-92232238D01*
X156191857Y-92280619D01*
X155949952Y-92280619D01*
X156869190Y-91264619D02*
X157546523Y-91264619D01*
X157111095Y-92280619D01*
X171329047Y-92280619D02*
X170845238Y-92280619D01*
X170845238Y-91264619D01*
X171667714Y-91748428D02*
X172006380Y-91748428D01*
X172151523Y-92280619D02*
X171667714Y-92280619D01*
X171667714Y-91264619D01*
X172151523Y-91264619D01*
X172586952Y-92280619D02*
X172586952Y-91264619D01*
X172828857Y-91264619D01*
X172974000Y-91313000D01*
X173070761Y-91409761D01*
X173119142Y-91506523D01*
X173167523Y-91700047D01*
X173167523Y-91845190D01*
X173119142Y-92038714D01*
X173070761Y-92135476D01*
X172974000Y-92232238D01*
X172828857Y-92280619D01*
X172586952Y-92280619D01*
X173748095Y-91700047D02*
X173651333Y-91651666D01*
X173602952Y-91603285D01*
X173554571Y-91506523D01*
X173554571Y-91458142D01*
X173602952Y-91361380D01*
X173651333Y-91313000D01*
X173748095Y-91264619D01*
X173941619Y-91264619D01*
X174038380Y-91313000D01*
X174086761Y-91361380D01*
X174135142Y-91458142D01*
X174135142Y-91506523D01*
X174086761Y-91603285D01*
X174038380Y-91651666D01*
X173941619Y-91700047D01*
X173748095Y-91700047D01*
X173651333Y-91748428D01*
X173602952Y-91796809D01*
X173554571Y-91893571D01*
X173554571Y-92087095D01*
X173602952Y-92183857D01*
X173651333Y-92232238D01*
X173748095Y-92280619D01*
X173941619Y-92280619D01*
X174038380Y-92232238D01*
X174086761Y-92183857D01*
X174135142Y-92087095D01*
X174135142Y-91893571D01*
X174086761Y-91796809D01*
X174038380Y-91748428D01*
X173941619Y-91700047D01*
X125016380Y-102440619D02*
X125209904Y-102440619D01*
X125306666Y-102489000D01*
X125403428Y-102585761D01*
X125451809Y-102779285D01*
X125451809Y-103117952D01*
X125403428Y-103311476D01*
X125306666Y-103408238D01*
X125209904Y-103456619D01*
X125016380Y-103456619D01*
X124919619Y-103408238D01*
X124822857Y-103311476D01*
X124774476Y-103117952D01*
X124774476Y-102779285D01*
X124822857Y-102585761D01*
X124919619Y-102489000D01*
X125016380Y-102440619D01*
X125887238Y-103456619D02*
X125887238Y-102440619D01*
X126274285Y-102440619D01*
X126371047Y-102489000D01*
X126419428Y-102537380D01*
X126467809Y-102634142D01*
X126467809Y-102779285D01*
X126419428Y-102876047D01*
X126371047Y-102924428D01*
X126274285Y-102972809D01*
X125887238Y-102972809D01*
X126758095Y-102440619D02*
X127338666Y-102440619D01*
X127048380Y-103456619D02*
X127048380Y-102440619D01*
X127628952Y-102537380D02*
X127677333Y-102489000D01*
X127774095Y-102440619D01*
X128016000Y-102440619D01*
X128112761Y-102489000D01*
X128161142Y-102537380D01*
X128209523Y-102634142D01*
X128209523Y-102730904D01*
X128161142Y-102876047D01*
X127580571Y-103456619D01*
X128209523Y-103456619D01*
X131045857Y-110302523D02*
X130320142Y-110302523D01*
X130683000Y-110302523D02*
X130683000Y-109032523D01*
X130562047Y-109213952D01*
X130441095Y-109334904D01*
X130320142Y-109395380D01*
X132352142Y-109153476D02*
X132412619Y-109093000D01*
X132533571Y-109032523D01*
X132835952Y-109032523D01*
X132956904Y-109093000D01*
X133017380Y-109153476D01*
X133077857Y-109274428D01*
X133077857Y-109395380D01*
X133017380Y-109576809D01*
X132291666Y-110302523D01*
X133077857Y-110302523D01*
X132291666Y-104714523D02*
X133077857Y-104714523D01*
X132654523Y-105198333D01*
X132835952Y-105198333D01*
X132956904Y-105258809D01*
X133017380Y-105319285D01*
X133077857Y-105440238D01*
X133077857Y-105742619D01*
X133017380Y-105863571D01*
X132956904Y-105924047D01*
X132835952Y-105984523D01*
X132473095Y-105984523D01*
X132352142Y-105924047D01*
X132291666Y-105863571D01*
X130416904Y-105137857D02*
X130416904Y-105984523D01*
X130114523Y-104654047D02*
X129812142Y-105561190D01*
X130598333Y-105561190D01*
X128332428Y-111601619D02*
X128235666Y-111553238D01*
X128187285Y-111504857D01*
X128138904Y-111408095D01*
X128138904Y-111117809D01*
X128187285Y-111021047D01*
X128235666Y-110972666D01*
X128332428Y-110924285D01*
X128477571Y-110924285D01*
X128574333Y-110972666D01*
X128622714Y-111021047D01*
X128671095Y-111117809D01*
X128671095Y-111408095D01*
X128622714Y-111504857D01*
X128574333Y-111553238D01*
X128477571Y-111601619D01*
X128332428Y-111601619D01*
X138097380Y-102440619D02*
X138290904Y-102440619D01*
X138387666Y-102489000D01*
X138484428Y-102585761D01*
X138532809Y-102779285D01*
X138532809Y-103117952D01*
X138484428Y-103311476D01*
X138387666Y-103408238D01*
X138290904Y-103456619D01*
X138097380Y-103456619D01*
X138000619Y-103408238D01*
X137903857Y-103311476D01*
X137855476Y-103117952D01*
X137855476Y-102779285D01*
X137903857Y-102585761D01*
X138000619Y-102489000D01*
X138097380Y-102440619D01*
X138968238Y-103456619D02*
X138968238Y-102440619D01*
X139355285Y-102440619D01*
X139452047Y-102489000D01*
X139500428Y-102537380D01*
X139548809Y-102634142D01*
X139548809Y-102779285D01*
X139500428Y-102876047D01*
X139452047Y-102924428D01*
X139355285Y-102972809D01*
X138968238Y-102972809D01*
X139839095Y-102440619D02*
X140419666Y-102440619D01*
X140129380Y-103456619D02*
X140129380Y-102440619D01*
X140661571Y-102440619D02*
X141290523Y-102440619D01*
X140951857Y-102827666D01*
X141097000Y-102827666D01*
X141193761Y-102876047D01*
X141242142Y-102924428D01*
X141290523Y-103021190D01*
X141290523Y-103263095D01*
X141242142Y-103359857D01*
X141193761Y-103408238D01*
X141097000Y-103456619D01*
X140806714Y-103456619D01*
X140709952Y-103408238D01*
X140661571Y-103359857D01*
X141413428Y-111601619D02*
X141316666Y-111553238D01*
X141268285Y-111504857D01*
X141219904Y-111408095D01*
X141219904Y-111117809D01*
X141268285Y-111021047D01*
X141316666Y-110972666D01*
X141413428Y-110924285D01*
X141558571Y-110924285D01*
X141655333Y-110972666D01*
X141703714Y-111021047D01*
X141752095Y-111117809D01*
X141752095Y-111408095D01*
X141703714Y-111504857D01*
X141655333Y-111553238D01*
X141558571Y-111601619D01*
X141413428Y-111601619D01*
X143497904Y-105137857D02*
X143497904Y-105984523D01*
X143195523Y-104654047D02*
X142893142Y-105561190D01*
X143679333Y-105561190D01*
X145372666Y-104714523D02*
X146158857Y-104714523D01*
X145735523Y-105198333D01*
X145916952Y-105198333D01*
X146037904Y-105258809D01*
X146098380Y-105319285D01*
X146158857Y-105440238D01*
X146158857Y-105742619D01*
X146098380Y-105863571D01*
X146037904Y-105924047D01*
X145916952Y-105984523D01*
X145554095Y-105984523D01*
X145433142Y-105924047D01*
X145372666Y-105863571D01*
X145433142Y-109153476D02*
X145493619Y-109093000D01*
X145614571Y-109032523D01*
X145916952Y-109032523D01*
X146037904Y-109093000D01*
X146098380Y-109153476D01*
X146158857Y-109274428D01*
X146158857Y-109395380D01*
X146098380Y-109576809D01*
X145372666Y-110302523D01*
X146158857Y-110302523D01*
X144126857Y-110302523D02*
X143401142Y-110302523D01*
X143764000Y-110302523D02*
X143764000Y-109032523D01*
X143643047Y-109213952D01*
X143522095Y-109334904D01*
X143401142Y-109395380D01*
X150924380Y-102440619D02*
X151117904Y-102440619D01*
X151214666Y-102489000D01*
X151311428Y-102585761D01*
X151359809Y-102779285D01*
X151359809Y-103117952D01*
X151311428Y-103311476D01*
X151214666Y-103408238D01*
X151117904Y-103456619D01*
X150924380Y-103456619D01*
X150827619Y-103408238D01*
X150730857Y-103311476D01*
X150682476Y-103117952D01*
X150682476Y-102779285D01*
X150730857Y-102585761D01*
X150827619Y-102489000D01*
X150924380Y-102440619D01*
X151795238Y-103456619D02*
X151795238Y-102440619D01*
X152182285Y-102440619D01*
X152279047Y-102489000D01*
X152327428Y-102537380D01*
X152375809Y-102634142D01*
X152375809Y-102779285D01*
X152327428Y-102876047D01*
X152279047Y-102924428D01*
X152182285Y-102972809D01*
X151795238Y-102972809D01*
X152666095Y-102440619D02*
X153246666Y-102440619D01*
X152956380Y-103456619D02*
X152956380Y-102440619D01*
X154020761Y-102779285D02*
X154020761Y-103456619D01*
X153778857Y-102392238D02*
X153536952Y-103117952D01*
X154165904Y-103117952D01*
X157080857Y-110302523D02*
X156355142Y-110302523D01*
X156718000Y-110302523D02*
X156718000Y-109032523D01*
X156597047Y-109213952D01*
X156476095Y-109334904D01*
X156355142Y-109395380D01*
X158387142Y-109153476D02*
X158447619Y-109093000D01*
X158568571Y-109032523D01*
X158870952Y-109032523D01*
X158991904Y-109093000D01*
X159052380Y-109153476D01*
X159112857Y-109274428D01*
X159112857Y-109395380D01*
X159052380Y-109576809D01*
X158326666Y-110302523D01*
X159112857Y-110302523D01*
X158326666Y-104714523D02*
X159112857Y-104714523D01*
X158689523Y-105198333D01*
X158870952Y-105198333D01*
X158991904Y-105258809D01*
X159052380Y-105319285D01*
X159112857Y-105440238D01*
X159112857Y-105742619D01*
X159052380Y-105863571D01*
X158991904Y-105924047D01*
X158870952Y-105984523D01*
X158508095Y-105984523D01*
X158387142Y-105924047D01*
X158326666Y-105863571D01*
X156451904Y-105137857D02*
X156451904Y-105984523D01*
X156149523Y-104654047D02*
X155847142Y-105561190D01*
X156633333Y-105561190D01*
X154367428Y-111601619D02*
X154270666Y-111553238D01*
X154222285Y-111504857D01*
X154173904Y-111408095D01*
X154173904Y-111117809D01*
X154222285Y-111021047D01*
X154270666Y-110972666D01*
X154367428Y-110924285D01*
X154512571Y-110924285D01*
X154609333Y-110972666D01*
X154657714Y-111021047D01*
X154706095Y-111117809D01*
X154706095Y-111408095D01*
X154657714Y-111504857D01*
X154609333Y-111553238D01*
X154512571Y-111601619D01*
X154367428Y-111601619D01*
X98122619Y-62786380D02*
X97106619Y-62786380D01*
X97106619Y-62399333D01*
X97155000Y-62302571D01*
X97203380Y-62254190D01*
X97300142Y-62205809D01*
X97445285Y-62205809D01*
X97542047Y-62254190D01*
X97590428Y-62302571D01*
X97638809Y-62399333D01*
X97638809Y-62786380D01*
X97106619Y-61867142D02*
X98122619Y-61625238D01*
X97396904Y-61431714D01*
X98122619Y-61238190D01*
X97106619Y-60996285D01*
X98122619Y-60028666D02*
X97638809Y-60367333D01*
X98122619Y-60609238D02*
X97106619Y-60609238D01*
X97106619Y-60222190D01*
X97155000Y-60125428D01*
X97203380Y-60077047D01*
X97300142Y-60028666D01*
X97445285Y-60028666D01*
X97542047Y-60077047D01*
X97590428Y-60125428D01*
X97638809Y-60222190D01*
X97638809Y-60609238D01*
X98219380Y-59835142D02*
X98219380Y-59061047D01*
X98122619Y-58335333D02*
X98122619Y-58819142D01*
X97106619Y-58819142D01*
X97590428Y-57996666D02*
X97590428Y-57658000D01*
X98122619Y-57512857D02*
X98122619Y-57996666D01*
X97106619Y-57996666D01*
X97106619Y-57512857D01*
X98122619Y-57077428D02*
X97106619Y-57077428D01*
X97106619Y-56835523D01*
X97155000Y-56690380D01*
X97251761Y-56593619D01*
X97348523Y-56545238D01*
X97542047Y-56496857D01*
X97687190Y-56496857D01*
X97880714Y-56545238D01*
X97977476Y-56593619D01*
X98074238Y-56690380D01*
X98122619Y-56835523D01*
X98122619Y-57077428D01*
X98122619Y-55529238D02*
X98122619Y-56109809D01*
X98122619Y-55819523D02*
X97106619Y-55819523D01*
X97251761Y-55916285D01*
X97348523Y-56013047D01*
X97396904Y-56109809D01*
X108663619Y-112691333D02*
X108179809Y-113030000D01*
X108663619Y-113271904D02*
X107647619Y-113271904D01*
X107647619Y-112884857D01*
X107696000Y-112788095D01*
X107744380Y-112739714D01*
X107841142Y-112691333D01*
X107986285Y-112691333D01*
X108083047Y-112739714D01*
X108131428Y-112788095D01*
X108179809Y-112884857D01*
X108179809Y-113271904D01*
X108663619Y-111723714D02*
X108663619Y-112304285D01*
X108663619Y-112014000D02*
X107647619Y-112014000D01*
X107792761Y-112110761D01*
X107889523Y-112207523D01*
X107937904Y-112304285D01*
X104472619Y-112691333D02*
X103988809Y-113030000D01*
X104472619Y-113271904D02*
X103456619Y-113271904D01*
X103456619Y-112884857D01*
X103505000Y-112788095D01*
X103553380Y-112739714D01*
X103650142Y-112691333D01*
X103795285Y-112691333D01*
X103892047Y-112739714D01*
X103940428Y-112788095D01*
X103988809Y-112884857D01*
X103988809Y-113271904D01*
X103553380Y-112304285D02*
X103505000Y-112255904D01*
X103456619Y-112159142D01*
X103456619Y-111917238D01*
X103505000Y-111820476D01*
X103553380Y-111772095D01*
X103650142Y-111723714D01*
X103746904Y-111723714D01*
X103892047Y-111772095D01*
X104472619Y-112352666D01*
X104472619Y-111723714D01*
X98509666Y-64975619D02*
X98171000Y-64491809D01*
X97929095Y-64975619D02*
X97929095Y-63959619D01*
X98316142Y-63959619D01*
X98412904Y-64008000D01*
X98461285Y-64056380D01*
X98509666Y-64153142D01*
X98509666Y-64298285D01*
X98461285Y-64395047D01*
X98412904Y-64443428D01*
X98316142Y-64491809D01*
X97929095Y-64491809D01*
X98848333Y-63959619D02*
X99477285Y-63959619D01*
X99138619Y-64346666D01*
X99283761Y-64346666D01*
X99380523Y-64395047D01*
X99428904Y-64443428D01*
X99477285Y-64540190D01*
X99477285Y-64782095D01*
X99428904Y-64878857D01*
X99380523Y-64927238D01*
X99283761Y-64975619D01*
X98993476Y-64975619D01*
X98896714Y-64927238D01*
X98848333Y-64878857D01*
X99779666Y-78437619D02*
X99441000Y-77953809D01*
X99199095Y-78437619D02*
X99199095Y-77421619D01*
X99586142Y-77421619D01*
X99682904Y-77470000D01*
X99731285Y-77518380D01*
X99779666Y-77615142D01*
X99779666Y-77760285D01*
X99731285Y-77857047D01*
X99682904Y-77905428D01*
X99586142Y-77953809D01*
X99199095Y-77953809D01*
X100650523Y-77760285D02*
X100650523Y-78437619D01*
X100408619Y-77373238D02*
X100166714Y-78098952D01*
X100795666Y-78098952D01*
X111463666Y-114505619D02*
X111125000Y-114021809D01*
X110883095Y-114505619D02*
X110883095Y-113489619D01*
X111270142Y-113489619D01*
X111366904Y-113538000D01*
X111415285Y-113586380D01*
X111463666Y-113683142D01*
X111463666Y-113828285D01*
X111415285Y-113925047D01*
X111366904Y-113973428D01*
X111270142Y-114021809D01*
X110883095Y-114021809D01*
X112382904Y-113489619D02*
X111899095Y-113489619D01*
X111850714Y-113973428D01*
X111899095Y-113925047D01*
X111995857Y-113876666D01*
X112237761Y-113876666D01*
X112334523Y-113925047D01*
X112382904Y-113973428D01*
X112431285Y-114070190D01*
X112431285Y-114312095D01*
X112382904Y-114408857D01*
X112334523Y-114457238D01*
X112237761Y-114505619D01*
X111995857Y-114505619D01*
X111899095Y-114457238D01*
X111850714Y-114408857D01*
X124417666Y-114505619D02*
X124079000Y-114021809D01*
X123837095Y-114505619D02*
X123837095Y-113489619D01*
X124224142Y-113489619D01*
X124320904Y-113538000D01*
X124369285Y-113586380D01*
X124417666Y-113683142D01*
X124417666Y-113828285D01*
X124369285Y-113925047D01*
X124320904Y-113973428D01*
X124224142Y-114021809D01*
X123837095Y-114021809D01*
X125288523Y-113489619D02*
X125095000Y-113489619D01*
X124998238Y-113538000D01*
X124949857Y-113586380D01*
X124853095Y-113731523D01*
X124804714Y-113925047D01*
X124804714Y-114312095D01*
X124853095Y-114408857D01*
X124901476Y-114457238D01*
X124998238Y-114505619D01*
X125191761Y-114505619D01*
X125288523Y-114457238D01*
X125336904Y-114408857D01*
X125385285Y-114312095D01*
X125385285Y-114070190D01*
X125336904Y-113973428D01*
X125288523Y-113925047D01*
X125191761Y-113876666D01*
X124998238Y-113876666D01*
X124901476Y-113925047D01*
X124853095Y-113973428D01*
X124804714Y-114070190D01*
X137498666Y-114505619D02*
X137160000Y-114021809D01*
X136918095Y-114505619D02*
X136918095Y-113489619D01*
X137305142Y-113489619D01*
X137401904Y-113538000D01*
X137450285Y-113586380D01*
X137498666Y-113683142D01*
X137498666Y-113828285D01*
X137450285Y-113925047D01*
X137401904Y-113973428D01*
X137305142Y-114021809D01*
X136918095Y-114021809D01*
X137837333Y-113489619D02*
X138514666Y-113489619D01*
X138079238Y-114505619D01*
X150452666Y-114505619D02*
X150114000Y-114021809D01*
X149872095Y-114505619D02*
X149872095Y-113489619D01*
X150259142Y-113489619D01*
X150355904Y-113538000D01*
X150404285Y-113586380D01*
X150452666Y-113683142D01*
X150452666Y-113828285D01*
X150404285Y-113925047D01*
X150355904Y-113973428D01*
X150259142Y-114021809D01*
X149872095Y-114021809D01*
X151033238Y-113925047D02*
X150936476Y-113876666D01*
X150888095Y-113828285D01*
X150839714Y-113731523D01*
X150839714Y-113683142D01*
X150888095Y-113586380D01*
X150936476Y-113538000D01*
X151033238Y-113489619D01*
X151226761Y-113489619D01*
X151323523Y-113538000D01*
X151371904Y-113586380D01*
X151420285Y-113683142D01*
X151420285Y-113731523D01*
X151371904Y-113828285D01*
X151323523Y-113876666D01*
X151226761Y-113925047D01*
X151033238Y-113925047D01*
X150936476Y-113973428D01*
X150888095Y-114021809D01*
X150839714Y-114118571D01*
X150839714Y-114312095D01*
X150888095Y-114408857D01*
X150936476Y-114457238D01*
X151033238Y-114505619D01*
X151226761Y-114505619D01*
X151323523Y-114457238D01*
X151371904Y-114408857D01*
X151420285Y-114312095D01*
X151420285Y-114118571D01*
X151371904Y-114021809D01*
X151323523Y-113973428D01*
X151226761Y-113925047D01*
X106129666Y-108536619D02*
X105791000Y-108052809D01*
X105549095Y-108536619D02*
X105549095Y-107520619D01*
X105936142Y-107520619D01*
X106032904Y-107569000D01*
X106081285Y-107617380D01*
X106129666Y-107714142D01*
X106129666Y-107859285D01*
X106081285Y-107956047D01*
X106032904Y-108004428D01*
X105936142Y-108052809D01*
X105549095Y-108052809D01*
X106613476Y-108536619D02*
X106807000Y-108536619D01*
X106903761Y-108488238D01*
X106952142Y-108439857D01*
X107048904Y-108294714D01*
X107097285Y-108101190D01*
X107097285Y-107714142D01*
X107048904Y-107617380D01*
X107000523Y-107569000D01*
X106903761Y-107520619D01*
X106710238Y-107520619D01*
X106613476Y-107569000D01*
X106565095Y-107617380D01*
X106516714Y-107714142D01*
X106516714Y-107956047D01*
X106565095Y-108052809D01*
X106613476Y-108101190D01*
X106710238Y-108149571D01*
X106903761Y-108149571D01*
X107000523Y-108101190D01*
X107048904Y-108052809D01*
X107097285Y-107956047D01*
X106153857Y-103964619D02*
X105815190Y-103480809D01*
X105573285Y-103964619D02*
X105573285Y-102948619D01*
X105960333Y-102948619D01*
X106057095Y-102997000D01*
X106105476Y-103045380D01*
X106153857Y-103142142D01*
X106153857Y-103287285D01*
X106105476Y-103384047D01*
X106057095Y-103432428D01*
X105960333Y-103480809D01*
X105573285Y-103480809D01*
X107121476Y-103964619D02*
X106540904Y-103964619D01*
X106831190Y-103964619D02*
X106831190Y-102948619D01*
X106734428Y-103093761D01*
X106637666Y-103190523D01*
X106540904Y-103238904D01*
X107750428Y-102948619D02*
X107847190Y-102948619D01*
X107943952Y-102997000D01*
X107992333Y-103045380D01*
X108040714Y-103142142D01*
X108089095Y-103335666D01*
X108089095Y-103577571D01*
X108040714Y-103771095D01*
X107992333Y-103867857D01*
X107943952Y-103916238D01*
X107847190Y-103964619D01*
X107750428Y-103964619D01*
X107653666Y-103916238D01*
X107605285Y-103867857D01*
X107556904Y-103771095D01*
X107508523Y-103577571D01*
X107508523Y-103335666D01*
X107556904Y-103142142D01*
X107605285Y-103045380D01*
X107653666Y-102997000D01*
X107750428Y-102948619D01*
X106153857Y-100789619D02*
X105815190Y-100305809D01*
X105573285Y-100789619D02*
X105573285Y-99773619D01*
X105960333Y-99773619D01*
X106057095Y-99822000D01*
X106105476Y-99870380D01*
X106153857Y-99967142D01*
X106153857Y-100112285D01*
X106105476Y-100209047D01*
X106057095Y-100257428D01*
X105960333Y-100305809D01*
X105573285Y-100305809D01*
X107121476Y-100789619D02*
X106540904Y-100789619D01*
X106831190Y-100789619D02*
X106831190Y-99773619D01*
X106734428Y-99918761D01*
X106637666Y-100015523D01*
X106540904Y-100063904D01*
X108089095Y-100789619D02*
X107508523Y-100789619D01*
X107798809Y-100789619D02*
X107798809Y-99773619D01*
X107702047Y-99918761D01*
X107605285Y-100015523D01*
X107508523Y-100063904D01*
X100027619Y-88918142D02*
X99543809Y-89256809D01*
X100027619Y-89498714D02*
X99011619Y-89498714D01*
X99011619Y-89111666D01*
X99060000Y-89014904D01*
X99108380Y-88966523D01*
X99205142Y-88918142D01*
X99350285Y-88918142D01*
X99447047Y-88966523D01*
X99495428Y-89014904D01*
X99543809Y-89111666D01*
X99543809Y-89498714D01*
X100027619Y-87950523D02*
X100027619Y-88531095D01*
X100027619Y-88240809D02*
X99011619Y-88240809D01*
X99156761Y-88337571D01*
X99253523Y-88434333D01*
X99301904Y-88531095D01*
X99108380Y-87563476D02*
X99060000Y-87515095D01*
X99011619Y-87418333D01*
X99011619Y-87176428D01*
X99060000Y-87079666D01*
X99108380Y-87031285D01*
X99205142Y-86982904D01*
X99301904Y-86982904D01*
X99447047Y-87031285D01*
X100027619Y-87611857D01*
X100027619Y-86982904D01*
X91391619Y-90315142D02*
X90907809Y-90653809D01*
X91391619Y-90895714D02*
X90375619Y-90895714D01*
X90375619Y-90508666D01*
X90424000Y-90411904D01*
X90472380Y-90363523D01*
X90569142Y-90315142D01*
X90714285Y-90315142D01*
X90811047Y-90363523D01*
X90859428Y-90411904D01*
X90907809Y-90508666D01*
X90907809Y-90895714D01*
X91391619Y-89347523D02*
X91391619Y-89928095D01*
X91391619Y-89637809D02*
X90375619Y-89637809D01*
X90520761Y-89734571D01*
X90617523Y-89831333D01*
X90665904Y-89928095D01*
X90375619Y-89008857D02*
X90375619Y-88379904D01*
X90762666Y-88718571D01*
X90762666Y-88573428D01*
X90811047Y-88476666D01*
X90859428Y-88428285D01*
X90956190Y-88379904D01*
X91198095Y-88379904D01*
X91294857Y-88428285D01*
X91343238Y-88476666D01*
X91391619Y-88573428D01*
X91391619Y-88863714D01*
X91343238Y-88960476D01*
X91294857Y-89008857D01*
X105518857Y-96852619D02*
X105180190Y-96368809D01*
X104938285Y-96852619D02*
X104938285Y-95836619D01*
X105325333Y-95836619D01*
X105422095Y-95885000D01*
X105470476Y-95933380D01*
X105518857Y-96030142D01*
X105518857Y-96175285D01*
X105470476Y-96272047D01*
X105422095Y-96320428D01*
X105325333Y-96368809D01*
X104938285Y-96368809D01*
X106486476Y-96852619D02*
X105905904Y-96852619D01*
X106196190Y-96852619D02*
X106196190Y-95836619D01*
X106099428Y-95981761D01*
X106002666Y-96078523D01*
X105905904Y-96126904D01*
X107357333Y-96175285D02*
X107357333Y-96852619D01*
X107115428Y-95788238D02*
X106873523Y-96513952D01*
X107502476Y-96513952D01*
X106153857Y-102440619D02*
X105815190Y-101956809D01*
X105573285Y-102440619D02*
X105573285Y-101424619D01*
X105960333Y-101424619D01*
X106057095Y-101473000D01*
X106105476Y-101521380D01*
X106153857Y-101618142D01*
X106153857Y-101763285D01*
X106105476Y-101860047D01*
X106057095Y-101908428D01*
X105960333Y-101956809D01*
X105573285Y-101956809D01*
X107121476Y-102440619D02*
X106540904Y-102440619D01*
X106831190Y-102440619D02*
X106831190Y-101424619D01*
X106734428Y-101569761D01*
X106637666Y-101666523D01*
X106540904Y-101714904D01*
X108040714Y-101424619D02*
X107556904Y-101424619D01*
X107508523Y-101908428D01*
X107556904Y-101860047D01*
X107653666Y-101811666D01*
X107895571Y-101811666D01*
X107992333Y-101860047D01*
X108040714Y-101908428D01*
X108089095Y-102005190D01*
X108089095Y-102247095D01*
X108040714Y-102343857D01*
X107992333Y-102392238D01*
X107895571Y-102440619D01*
X107653666Y-102440619D01*
X107556904Y-102392238D01*
X107508523Y-102343857D01*
X106153857Y-105488619D02*
X105815190Y-105004809D01*
X105573285Y-105488619D02*
X105573285Y-104472619D01*
X105960333Y-104472619D01*
X106057095Y-104521000D01*
X106105476Y-104569380D01*
X106153857Y-104666142D01*
X106153857Y-104811285D01*
X106105476Y-104908047D01*
X106057095Y-104956428D01*
X105960333Y-105004809D01*
X105573285Y-105004809D01*
X107121476Y-105488619D02*
X106540904Y-105488619D01*
X106831190Y-105488619D02*
X106831190Y-104472619D01*
X106734428Y-104617761D01*
X106637666Y-104714523D01*
X106540904Y-104762904D01*
X107992333Y-104472619D02*
X107798809Y-104472619D01*
X107702047Y-104521000D01*
X107653666Y-104569380D01*
X107556904Y-104714523D01*
X107508523Y-104908047D01*
X107508523Y-105295095D01*
X107556904Y-105391857D01*
X107605285Y-105440238D01*
X107702047Y-105488619D01*
X107895571Y-105488619D01*
X107992333Y-105440238D01*
X108040714Y-105391857D01*
X108089095Y-105295095D01*
X108089095Y-105053190D01*
X108040714Y-104956428D01*
X107992333Y-104908047D01*
X107895571Y-104859666D01*
X107702047Y-104859666D01*
X107605285Y-104908047D01*
X107556904Y-104956428D01*
X107508523Y-105053190D01*
X98376619Y-90315142D02*
X97892809Y-90653809D01*
X98376619Y-90895714D02*
X97360619Y-90895714D01*
X97360619Y-90508666D01*
X97409000Y-90411904D01*
X97457380Y-90363523D01*
X97554142Y-90315142D01*
X97699285Y-90315142D01*
X97796047Y-90363523D01*
X97844428Y-90411904D01*
X97892809Y-90508666D01*
X97892809Y-90895714D01*
X98376619Y-89347523D02*
X98376619Y-89928095D01*
X98376619Y-89637809D02*
X97360619Y-89637809D01*
X97505761Y-89734571D01*
X97602523Y-89831333D01*
X97650904Y-89928095D01*
X97360619Y-89008857D02*
X97360619Y-88331523D01*
X98376619Y-88766952D01*
X106153857Y-107012619D02*
X105815190Y-106528809D01*
X105573285Y-107012619D02*
X105573285Y-105996619D01*
X105960333Y-105996619D01*
X106057095Y-106045000D01*
X106105476Y-106093380D01*
X106153857Y-106190142D01*
X106153857Y-106335285D01*
X106105476Y-106432047D01*
X106057095Y-106480428D01*
X105960333Y-106528809D01*
X105573285Y-106528809D01*
X107121476Y-107012619D02*
X106540904Y-107012619D01*
X106831190Y-107012619D02*
X106831190Y-105996619D01*
X106734428Y-106141761D01*
X106637666Y-106238523D01*
X106540904Y-106286904D01*
X107702047Y-106432047D02*
X107605285Y-106383666D01*
X107556904Y-106335285D01*
X107508523Y-106238523D01*
X107508523Y-106190142D01*
X107556904Y-106093380D01*
X107605285Y-106045000D01*
X107702047Y-105996619D01*
X107895571Y-105996619D01*
X107992333Y-106045000D01*
X108040714Y-106093380D01*
X108089095Y-106190142D01*
X108089095Y-106238523D01*
X108040714Y-106335285D01*
X107992333Y-106383666D01*
X107895571Y-106432047D01*
X107702047Y-106432047D01*
X107605285Y-106480428D01*
X107556904Y-106528809D01*
X107508523Y-106625571D01*
X107508523Y-106819095D01*
X107556904Y-106915857D01*
X107605285Y-106964238D01*
X107702047Y-107012619D01*
X107895571Y-107012619D01*
X107992333Y-106964238D01*
X108040714Y-106915857D01*
X108089095Y-106819095D01*
X108089095Y-106625571D01*
X108040714Y-106528809D01*
X107992333Y-106480428D01*
X107895571Y-106432047D01*
X111076619Y-99586142D02*
X110592809Y-99924809D01*
X111076619Y-100166714D02*
X110060619Y-100166714D01*
X110060619Y-99779666D01*
X110109000Y-99682904D01*
X110157380Y-99634523D01*
X110254142Y-99586142D01*
X110399285Y-99586142D01*
X110496047Y-99634523D01*
X110544428Y-99682904D01*
X110592809Y-99779666D01*
X110592809Y-100166714D01*
X111076619Y-98618523D02*
X111076619Y-99199095D01*
X111076619Y-98908809D02*
X110060619Y-98908809D01*
X110205761Y-99005571D01*
X110302523Y-99102333D01*
X110350904Y-99199095D01*
X111076619Y-98134714D02*
X111076619Y-97941190D01*
X111028238Y-97844428D01*
X110979857Y-97796047D01*
X110834714Y-97699285D01*
X110641190Y-97650904D01*
X110254142Y-97650904D01*
X110157380Y-97699285D01*
X110109000Y-97747666D01*
X110060619Y-97844428D01*
X110060619Y-98037952D01*
X110109000Y-98134714D01*
X110157380Y-98183095D01*
X110254142Y-98231476D01*
X110496047Y-98231476D01*
X110592809Y-98183095D01*
X110641190Y-98134714D01*
X110689571Y-98037952D01*
X110689571Y-97844428D01*
X110641190Y-97747666D01*
X110592809Y-97699285D01*
X110496047Y-97650904D01*
X115013619Y-99586142D02*
X114529809Y-99924809D01*
X115013619Y-100166714D02*
X113997619Y-100166714D01*
X113997619Y-99779666D01*
X114046000Y-99682904D01*
X114094380Y-99634523D01*
X114191142Y-99586142D01*
X114336285Y-99586142D01*
X114433047Y-99634523D01*
X114481428Y-99682904D01*
X114529809Y-99779666D01*
X114529809Y-100166714D01*
X114094380Y-99199095D02*
X114046000Y-99150714D01*
X113997619Y-99053952D01*
X113997619Y-98812047D01*
X114046000Y-98715285D01*
X114094380Y-98666904D01*
X114191142Y-98618523D01*
X114287904Y-98618523D01*
X114433047Y-98666904D01*
X115013619Y-99247476D01*
X115013619Y-98618523D01*
X113997619Y-97989571D02*
X113997619Y-97892809D01*
X114046000Y-97796047D01*
X114094380Y-97747666D01*
X114191142Y-97699285D01*
X114384666Y-97650904D01*
X114626571Y-97650904D01*
X114820095Y-97699285D01*
X114916857Y-97747666D01*
X114965238Y-97796047D01*
X115013619Y-97892809D01*
X115013619Y-97989571D01*
X114965238Y-98086333D01*
X114916857Y-98134714D01*
X114820095Y-98183095D01*
X114626571Y-98231476D01*
X114384666Y-98231476D01*
X114191142Y-98183095D01*
X114094380Y-98134714D01*
X114046000Y-98086333D01*
X113997619Y-97989571D01*
X117837857Y-100154619D02*
X117499190Y-99670809D01*
X117257285Y-100154619D02*
X117257285Y-99138619D01*
X117644333Y-99138619D01*
X117741095Y-99187000D01*
X117789476Y-99235380D01*
X117837857Y-99332142D01*
X117837857Y-99477285D01*
X117789476Y-99574047D01*
X117741095Y-99622428D01*
X117644333Y-99670809D01*
X117257285Y-99670809D01*
X118224904Y-99235380D02*
X118273285Y-99187000D01*
X118370047Y-99138619D01*
X118611952Y-99138619D01*
X118708714Y-99187000D01*
X118757095Y-99235380D01*
X118805476Y-99332142D01*
X118805476Y-99428904D01*
X118757095Y-99574047D01*
X118176523Y-100154619D01*
X118805476Y-100154619D01*
X119773095Y-100154619D02*
X119192523Y-100154619D01*
X119482809Y-100154619D02*
X119482809Y-99138619D01*
X119386047Y-99283761D01*
X119289285Y-99380523D01*
X119192523Y-99428904D01*
X132315857Y-101043619D02*
X131977190Y-100559809D01*
X131735285Y-101043619D02*
X131735285Y-100027619D01*
X132122333Y-100027619D01*
X132219095Y-100076000D01*
X132267476Y-100124380D01*
X132315857Y-100221142D01*
X132315857Y-100366285D01*
X132267476Y-100463047D01*
X132219095Y-100511428D01*
X132122333Y-100559809D01*
X131735285Y-100559809D01*
X132702904Y-100124380D02*
X132751285Y-100076000D01*
X132848047Y-100027619D01*
X133089952Y-100027619D01*
X133186714Y-100076000D01*
X133235095Y-100124380D01*
X133283476Y-100221142D01*
X133283476Y-100317904D01*
X133235095Y-100463047D01*
X132654523Y-101043619D01*
X133283476Y-101043619D01*
X133670523Y-100124380D02*
X133718904Y-100076000D01*
X133815666Y-100027619D01*
X134057571Y-100027619D01*
X134154333Y-100076000D01*
X134202714Y-100124380D01*
X134251095Y-100221142D01*
X134251095Y-100317904D01*
X134202714Y-100463047D01*
X133622142Y-101043619D01*
X134251095Y-101043619D01*
X158096857Y-101043619D02*
X157758190Y-100559809D01*
X157516285Y-101043619D02*
X157516285Y-100027619D01*
X157903333Y-100027619D01*
X158000095Y-100076000D01*
X158048476Y-100124380D01*
X158096857Y-100221142D01*
X158096857Y-100366285D01*
X158048476Y-100463047D01*
X158000095Y-100511428D01*
X157903333Y-100559809D01*
X157516285Y-100559809D01*
X158483904Y-100124380D02*
X158532285Y-100076000D01*
X158629047Y-100027619D01*
X158870952Y-100027619D01*
X158967714Y-100076000D01*
X159016095Y-100124380D01*
X159064476Y-100221142D01*
X159064476Y-100317904D01*
X159016095Y-100463047D01*
X158435523Y-101043619D01*
X159064476Y-101043619D01*
X159935333Y-100366285D02*
X159935333Y-101043619D01*
X159693428Y-99979238D02*
X159451523Y-100704952D01*
X160080476Y-100704952D01*
X176765857Y-92534619D02*
X176427190Y-92050809D01*
X176185285Y-92534619D02*
X176185285Y-91518619D01*
X176572333Y-91518619D01*
X176669095Y-91567000D01*
X176717476Y-91615380D01*
X176765857Y-91712142D01*
X176765857Y-91857285D01*
X176717476Y-91954047D01*
X176669095Y-92002428D01*
X176572333Y-92050809D01*
X176185285Y-92050809D01*
X177152904Y-91615380D02*
X177201285Y-91567000D01*
X177298047Y-91518619D01*
X177539952Y-91518619D01*
X177636714Y-91567000D01*
X177685095Y-91615380D01*
X177733476Y-91712142D01*
X177733476Y-91808904D01*
X177685095Y-91954047D01*
X177104523Y-92534619D01*
X177733476Y-92534619D01*
X178652714Y-91518619D02*
X178168904Y-91518619D01*
X178120523Y-92002428D01*
X178168904Y-91954047D01*
X178265666Y-91905666D01*
X178507571Y-91905666D01*
X178604333Y-91954047D01*
X178652714Y-92002428D01*
X178701095Y-92099190D01*
X178701095Y-92341095D01*
X178652714Y-92437857D01*
X178604333Y-92486238D01*
X178507571Y-92534619D01*
X178265666Y-92534619D01*
X178168904Y-92486238D01*
X178120523Y-92437857D01*
D10*
X182843714Y-121012857D02*
X182480857Y-121266857D01*
X182843714Y-121448285D02*
X182081714Y-121448285D01*
X182081714Y-121158000D01*
X182118000Y-121085428D01*
X182154285Y-121049142D01*
X182226857Y-121012857D01*
X182335714Y-121012857D01*
X182408285Y-121049142D01*
X182444571Y-121085428D01*
X182480857Y-121158000D01*
X182480857Y-121448285D01*
X182154285Y-120722571D02*
X182118000Y-120686285D01*
X182081714Y-120613714D01*
X182081714Y-120432285D01*
X182118000Y-120359714D01*
X182154285Y-120323428D01*
X182226857Y-120287142D01*
X182299428Y-120287142D01*
X182408285Y-120323428D01*
X182843714Y-120758857D01*
X182843714Y-120287142D01*
X182081714Y-119634000D02*
X182081714Y-119779142D01*
X182118000Y-119851714D01*
X182154285Y-119888000D01*
X182263142Y-119960571D01*
X182408285Y-119996857D01*
X182698571Y-119996857D01*
X182771142Y-119960571D01*
X182807428Y-119924285D01*
X182843714Y-119851714D01*
X182843714Y-119706571D01*
X182807428Y-119634000D01*
X182771142Y-119597714D01*
X182698571Y-119561428D01*
X182517142Y-119561428D01*
X182444571Y-119597714D01*
X182408285Y-119634000D01*
X182372000Y-119706571D01*
X182372000Y-119851714D01*
X182408285Y-119924285D01*
X182444571Y-119960571D01*
X182517142Y-119996857D01*
X184113714Y-121012857D02*
X183750857Y-121266857D01*
X184113714Y-121448285D02*
X183351714Y-121448285D01*
X183351714Y-121158000D01*
X183388000Y-121085428D01*
X183424285Y-121049142D01*
X183496857Y-121012857D01*
X183605714Y-121012857D01*
X183678285Y-121049142D01*
X183714571Y-121085428D01*
X183750857Y-121158000D01*
X183750857Y-121448285D01*
X183424285Y-120722571D02*
X183388000Y-120686285D01*
X183351714Y-120613714D01*
X183351714Y-120432285D01*
X183388000Y-120359714D01*
X183424285Y-120323428D01*
X183496857Y-120287142D01*
X183569428Y-120287142D01*
X183678285Y-120323428D01*
X184113714Y-120758857D01*
X184113714Y-120287142D01*
X183351714Y-120033142D02*
X183351714Y-119525142D01*
X184113714Y-119851714D01*
D11*
X126473857Y-90756619D02*
X126135190Y-90272809D01*
X125893285Y-90756619D02*
X125893285Y-89740619D01*
X126280333Y-89740619D01*
X126377095Y-89789000D01*
X126425476Y-89837380D01*
X126473857Y-89934142D01*
X126473857Y-90079285D01*
X126425476Y-90176047D01*
X126377095Y-90224428D01*
X126280333Y-90272809D01*
X125893285Y-90272809D01*
X126860904Y-89837380D02*
X126909285Y-89789000D01*
X127006047Y-89740619D01*
X127247952Y-89740619D01*
X127344714Y-89789000D01*
X127393095Y-89837380D01*
X127441476Y-89934142D01*
X127441476Y-90030904D01*
X127393095Y-90176047D01*
X126812523Y-90756619D01*
X127441476Y-90756619D01*
X128022047Y-90176047D02*
X127925285Y-90127666D01*
X127876904Y-90079285D01*
X127828523Y-89982523D01*
X127828523Y-89934142D01*
X127876904Y-89837380D01*
X127925285Y-89789000D01*
X128022047Y-89740619D01*
X128215571Y-89740619D01*
X128312333Y-89789000D01*
X128360714Y-89837380D01*
X128409095Y-89934142D01*
X128409095Y-89982523D01*
X128360714Y-90079285D01*
X128312333Y-90127666D01*
X128215571Y-90176047D01*
X128022047Y-90176047D01*
X127925285Y-90224428D01*
X127876904Y-90272809D01*
X127828523Y-90369571D01*
X127828523Y-90563095D01*
X127876904Y-90659857D01*
X127925285Y-90708238D01*
X128022047Y-90756619D01*
X128215571Y-90756619D01*
X128312333Y-90708238D01*
X128360714Y-90659857D01*
X128409095Y-90563095D01*
X128409095Y-90369571D01*
X128360714Y-90272809D01*
X128312333Y-90224428D01*
X128215571Y-90176047D01*
X142348857Y-90629619D02*
X142010190Y-90145809D01*
X141768285Y-90629619D02*
X141768285Y-89613619D01*
X142155333Y-89613619D01*
X142252095Y-89662000D01*
X142300476Y-89710380D01*
X142348857Y-89807142D01*
X142348857Y-89952285D01*
X142300476Y-90049047D01*
X142252095Y-90097428D01*
X142155333Y-90145809D01*
X141768285Y-90145809D01*
X142735904Y-89710380D02*
X142784285Y-89662000D01*
X142881047Y-89613619D01*
X143122952Y-89613619D01*
X143219714Y-89662000D01*
X143268095Y-89710380D01*
X143316476Y-89807142D01*
X143316476Y-89903904D01*
X143268095Y-90049047D01*
X142687523Y-90629619D01*
X143316476Y-90629619D01*
X143800285Y-90629619D02*
X143993809Y-90629619D01*
X144090571Y-90581238D01*
X144138952Y-90532857D01*
X144235714Y-90387714D01*
X144284095Y-90194190D01*
X144284095Y-89807142D01*
X144235714Y-89710380D01*
X144187333Y-89662000D01*
X144090571Y-89613619D01*
X143897047Y-89613619D01*
X143800285Y-89662000D01*
X143751904Y-89710380D01*
X143703523Y-89807142D01*
X143703523Y-90049047D01*
X143751904Y-90145809D01*
X143800285Y-90194190D01*
X143897047Y-90242571D01*
X144090571Y-90242571D01*
X144187333Y-90194190D01*
X144235714Y-90145809D01*
X144284095Y-90049047D01*
X160382857Y-90629619D02*
X160044190Y-90145809D01*
X159802285Y-90629619D02*
X159802285Y-89613619D01*
X160189333Y-89613619D01*
X160286095Y-89662000D01*
X160334476Y-89710380D01*
X160382857Y-89807142D01*
X160382857Y-89952285D01*
X160334476Y-90049047D01*
X160286095Y-90097428D01*
X160189333Y-90145809D01*
X159802285Y-90145809D01*
X160721523Y-89613619D02*
X161350476Y-89613619D01*
X161011809Y-90000666D01*
X161156952Y-90000666D01*
X161253714Y-90049047D01*
X161302095Y-90097428D01*
X161350476Y-90194190D01*
X161350476Y-90436095D01*
X161302095Y-90532857D01*
X161253714Y-90581238D01*
X161156952Y-90629619D01*
X160866666Y-90629619D01*
X160769904Y-90581238D01*
X160721523Y-90532857D01*
X161979428Y-89613619D02*
X162076190Y-89613619D01*
X162172952Y-89662000D01*
X162221333Y-89710380D01*
X162269714Y-89807142D01*
X162318095Y-90000666D01*
X162318095Y-90242571D01*
X162269714Y-90436095D01*
X162221333Y-90532857D01*
X162172952Y-90581238D01*
X162076190Y-90629619D01*
X161979428Y-90629619D01*
X161882666Y-90581238D01*
X161834285Y-90532857D01*
X161785904Y-90436095D01*
X161737523Y-90242571D01*
X161737523Y-90000666D01*
X161785904Y-89807142D01*
X161834285Y-89710380D01*
X161882666Y-89662000D01*
X161979428Y-89613619D01*
X177019857Y-90502619D02*
X176681190Y-90018809D01*
X176439285Y-90502619D02*
X176439285Y-89486619D01*
X176826333Y-89486619D01*
X176923095Y-89535000D01*
X176971476Y-89583380D01*
X177019857Y-89680142D01*
X177019857Y-89825285D01*
X176971476Y-89922047D01*
X176923095Y-89970428D01*
X176826333Y-90018809D01*
X176439285Y-90018809D01*
X177358523Y-89486619D02*
X177987476Y-89486619D01*
X177648809Y-89873666D01*
X177793952Y-89873666D01*
X177890714Y-89922047D01*
X177939095Y-89970428D01*
X177987476Y-90067190D01*
X177987476Y-90309095D01*
X177939095Y-90405857D01*
X177890714Y-90454238D01*
X177793952Y-90502619D01*
X177503666Y-90502619D01*
X177406904Y-90454238D01*
X177358523Y-90405857D01*
X178955095Y-90502619D02*
X178374523Y-90502619D01*
X178664809Y-90502619D02*
X178664809Y-89486619D01*
X178568047Y-89631761D01*
X178471285Y-89728523D01*
X178374523Y-89776904D01*
X99041857Y-113616619D02*
X98703190Y-113132809D01*
X98461285Y-113616619D02*
X98461285Y-112600619D01*
X98848333Y-112600619D01*
X98945095Y-112649000D01*
X98993476Y-112697380D01*
X99041857Y-112794142D01*
X99041857Y-112939285D01*
X98993476Y-113036047D01*
X98945095Y-113084428D01*
X98848333Y-113132809D01*
X98461285Y-113132809D01*
X99380523Y-112600619D02*
X100009476Y-112600619D01*
X99670809Y-112987666D01*
X99815952Y-112987666D01*
X99912714Y-113036047D01*
X99961095Y-113084428D01*
X100009476Y-113181190D01*
X100009476Y-113423095D01*
X99961095Y-113519857D01*
X99912714Y-113568238D01*
X99815952Y-113616619D01*
X99525666Y-113616619D01*
X99428904Y-113568238D01*
X99380523Y-113519857D01*
X100396523Y-112697380D02*
X100444904Y-112649000D01*
X100541666Y-112600619D01*
X100783571Y-112600619D01*
X100880333Y-112649000D01*
X100928714Y-112697380D01*
X100977095Y-112794142D01*
X100977095Y-112890904D01*
X100928714Y-113036047D01*
X100348142Y-113616619D01*
X100977095Y-113616619D01*
X95836619Y-64413190D02*
X95352809Y-64751857D01*
X95836619Y-64993761D02*
X94820619Y-64993761D01*
X94820619Y-64606714D01*
X94869000Y-64509952D01*
X94917380Y-64461571D01*
X95014142Y-64413190D01*
X95159285Y-64413190D01*
X95256047Y-64461571D01*
X95304428Y-64509952D01*
X95352809Y-64606714D01*
X95352809Y-64993761D01*
X95788238Y-64026142D02*
X95836619Y-63881000D01*
X95836619Y-63639095D01*
X95788238Y-63542333D01*
X95739857Y-63493952D01*
X95643095Y-63445571D01*
X95546333Y-63445571D01*
X95449571Y-63493952D01*
X95401190Y-63542333D01*
X95352809Y-63639095D01*
X95304428Y-63832619D01*
X95256047Y-63929380D01*
X95207666Y-63977761D01*
X95110904Y-64026142D01*
X95014142Y-64026142D01*
X94917380Y-63977761D01*
X94869000Y-63929380D01*
X94820619Y-63832619D01*
X94820619Y-63590714D01*
X94869000Y-63445571D01*
X94820619Y-63155285D02*
X94820619Y-62574714D01*
X95836619Y-62865000D02*
X94820619Y-62865000D01*
X95836619Y-61703857D02*
X95836619Y-62284428D01*
X95836619Y-61994142D02*
X94820619Y-61994142D01*
X94965761Y-62090904D01*
X95062523Y-62187666D01*
X95110904Y-62284428D01*
X117462904Y-87200619D02*
X118043476Y-87200619D01*
X117753190Y-88216619D02*
X117753190Y-87200619D01*
X118914333Y-88216619D02*
X118333761Y-88216619D01*
X118624047Y-88216619D02*
X118624047Y-87200619D01*
X118527285Y-87345761D01*
X118430523Y-87442523D01*
X118333761Y-87490904D01*
X133337904Y-87200619D02*
X133918476Y-87200619D01*
X133628190Y-88216619D02*
X133628190Y-87200619D01*
X134208761Y-87297380D02*
X134257142Y-87249000D01*
X134353904Y-87200619D01*
X134595809Y-87200619D01*
X134692571Y-87249000D01*
X134740952Y-87297380D01*
X134789333Y-87394142D01*
X134789333Y-87490904D01*
X134740952Y-87636047D01*
X134160380Y-88216619D01*
X134789333Y-88216619D01*
X151371904Y-87200619D02*
X151952476Y-87200619D01*
X151662190Y-88216619D02*
X151662190Y-87200619D01*
X152194380Y-87200619D02*
X152823333Y-87200619D01*
X152484666Y-87587666D01*
X152629809Y-87587666D01*
X152726571Y-87636047D01*
X152774952Y-87684428D01*
X152823333Y-87781190D01*
X152823333Y-88023095D01*
X152774952Y-88119857D01*
X152726571Y-88168238D01*
X152629809Y-88216619D01*
X152339523Y-88216619D01*
X152242761Y-88168238D01*
X152194380Y-88119857D01*
X168008904Y-87200619D02*
X168589476Y-87200619D01*
X168299190Y-88216619D02*
X168299190Y-87200619D01*
X169363571Y-87539285D02*
X169363571Y-88216619D01*
X169121666Y-87152238D02*
X168879761Y-87877952D01*
X169508714Y-87877952D01*
X92316904Y-80088619D02*
X92316904Y-80911095D01*
X92365285Y-81007857D01*
X92413666Y-81056238D01*
X92510428Y-81104619D01*
X92703952Y-81104619D01*
X92800714Y-81056238D01*
X92849095Y-81007857D01*
X92897476Y-80911095D01*
X92897476Y-80088619D01*
X93913476Y-81104619D02*
X93332904Y-81104619D01*
X93623190Y-81104619D02*
X93623190Y-80088619D01*
X93526428Y-80233761D01*
X93429666Y-80330523D01*
X93332904Y-80378904D01*
X96683285Y-81219523D02*
X96562333Y-81159047D01*
X96501857Y-81098571D01*
X96441380Y-80977619D01*
X96441380Y-80614761D01*
X96501857Y-80493809D01*
X96562333Y-80433333D01*
X96683285Y-80372857D01*
X96864714Y-80372857D01*
X96985666Y-80433333D01*
X97046142Y-80493809D01*
X97106619Y-80614761D01*
X97106619Y-80977619D01*
X97046142Y-81098571D01*
X96985666Y-81159047D01*
X96864714Y-81219523D01*
X96683285Y-81219523D01*
X115049904Y-92788619D02*
X115049904Y-93611095D01*
X115098285Y-93707857D01*
X115146666Y-93756238D01*
X115243428Y-93804619D01*
X115436952Y-93804619D01*
X115533714Y-93756238D01*
X115582095Y-93707857D01*
X115630476Y-93611095D01*
X115630476Y-92788619D01*
X116065904Y-92885380D02*
X116114285Y-92837000D01*
X116211047Y-92788619D01*
X116452952Y-92788619D01*
X116549714Y-92837000D01*
X116598095Y-92885380D01*
X116646476Y-92982142D01*
X116646476Y-93078904D01*
X116598095Y-93224047D01*
X116017523Y-93804619D01*
X116646476Y-93804619D01*
D12*
X102779285Y-97729523D02*
X102779285Y-98757619D01*
X102839761Y-98878571D01*
X102900238Y-98939047D01*
X103021190Y-98999523D01*
X103263095Y-98999523D01*
X103384047Y-98939047D01*
X103444523Y-98878571D01*
X103505000Y-98757619D01*
X103505000Y-97729523D01*
X104109761Y-98334285D02*
X104533095Y-98334285D01*
X104714523Y-98999523D02*
X104109761Y-98999523D01*
X104109761Y-97729523D01*
X104714523Y-97729523D01*
X105137857Y-97729523D02*
X105984523Y-98999523D01*
X105984523Y-97729523D02*
X105137857Y-98999523D01*
X106286904Y-97729523D02*
X107012619Y-97729523D01*
X106649761Y-98999523D02*
X106649761Y-97729523D01*
X108101190Y-98999523D02*
X107375476Y-98999523D01*
X107738333Y-98999523D02*
X107738333Y-97729523D01*
X107617380Y-97910952D01*
X107496428Y-98031904D01*
X107375476Y-98092380D01*
D11*
X94155476Y-108847857D02*
X94095000Y-108787380D01*
X94034523Y-108666428D01*
X94034523Y-108364047D01*
X94095000Y-108243095D01*
X94155476Y-108182619D01*
X94276428Y-108122142D01*
X94397380Y-108122142D01*
X94578809Y-108182619D01*
X95304523Y-108908333D01*
X95304523Y-108122142D01*
X97844523Y-108122142D02*
X97844523Y-108847857D01*
X97844523Y-108485000D02*
X96574523Y-108485000D01*
X96755952Y-108605952D01*
X96876904Y-108726904D01*
X96937380Y-108847857D01*
X96441380Y-114366523D02*
X96441380Y-115394619D01*
X96501857Y-115515571D01*
X96562333Y-115576047D01*
X96683285Y-115636523D01*
X96925190Y-115636523D01*
X97046142Y-115576047D01*
X97106619Y-115515571D01*
X97167095Y-115394619D01*
X97167095Y-114366523D01*
X97711380Y-115576047D02*
X97892809Y-115636523D01*
X98195190Y-115636523D01*
X98316142Y-115576047D01*
X98376619Y-115515571D01*
X98437095Y-115394619D01*
X98437095Y-115273666D01*
X98376619Y-115152714D01*
X98316142Y-115092238D01*
X98195190Y-115031761D01*
X97953285Y-114971285D01*
X97832333Y-114910809D01*
X97771857Y-114850333D01*
X97711380Y-114729380D01*
X97711380Y-114608428D01*
X97771857Y-114487476D01*
X97832333Y-114427000D01*
X97953285Y-114366523D01*
X98255666Y-114366523D01*
X98437095Y-114427000D01*
X99404714Y-114971285D02*
X99586142Y-115031761D01*
X99646619Y-115092238D01*
X99707095Y-115213190D01*
X99707095Y-115394619D01*
X99646619Y-115515571D01*
X99586142Y-115576047D01*
X99465190Y-115636523D01*
X98981380Y-115636523D01*
X98981380Y-114366523D01*
X99404714Y-114366523D01*
X99525666Y-114427000D01*
X99586142Y-114487476D01*
X99646619Y-114608428D01*
X99646619Y-114729380D01*
X99586142Y-114850333D01*
X99525666Y-114910809D01*
X99404714Y-114971285D01*
X98981380Y-114971285D01*
X100251380Y-115152714D02*
X101219000Y-115152714D01*
X102065666Y-114366523D02*
X102307571Y-114366523D01*
X102428523Y-114427000D01*
X102549476Y-114547952D01*
X102609952Y-114789857D01*
X102609952Y-115213190D01*
X102549476Y-115455095D01*
X102428523Y-115576047D01*
X102307571Y-115636523D01*
X102065666Y-115636523D01*
X101944714Y-115576047D01*
X101823761Y-115455095D01*
X101763285Y-115213190D01*
X101763285Y-114789857D01*
X101823761Y-114547952D01*
X101944714Y-114427000D01*
X102065666Y-114366523D01*
X102972809Y-114366523D02*
X103698523Y-114366523D01*
X103335666Y-115636523D02*
X103335666Y-114366523D01*
X104787095Y-114427000D02*
X104666142Y-114366523D01*
X104484714Y-114366523D01*
X104303285Y-114427000D01*
X104182333Y-114547952D01*
X104121857Y-114668904D01*
X104061380Y-114910809D01*
X104061380Y-115092238D01*
X104121857Y-115334142D01*
X104182333Y-115455095D01*
X104303285Y-115576047D01*
X104484714Y-115636523D01*
X104605666Y-115636523D01*
X104787095Y-115576047D01*
X104847571Y-115515571D01*
X104847571Y-115092238D01*
X104605666Y-115092238D01*
X106057095Y-115636523D02*
X105331380Y-115636523D01*
X105694238Y-115636523D02*
X105694238Y-114366523D01*
X105573285Y-114547952D01*
X105452333Y-114668904D01*
X105331380Y-114729380D01*
D18*
X99056952Y-123584666D02*
X99298857Y-123584666D01*
X99008571Y-123729809D02*
X99177904Y-123221809D01*
X99347238Y-123729809D01*
X99734285Y-123391142D02*
X99734285Y-123729809D01*
X99613333Y-123197619D02*
X99492380Y-123560476D01*
X99806857Y-123560476D01*
X100097142Y-123221809D02*
X100145523Y-123221809D01*
X100193904Y-123246000D01*
X100218095Y-123270190D01*
X100242285Y-123318571D01*
X100266476Y-123415333D01*
X100266476Y-123536285D01*
X100242285Y-123633047D01*
X100218095Y-123681428D01*
X100193904Y-123705619D01*
X100145523Y-123729809D01*
X100097142Y-123729809D01*
X100048761Y-123705619D01*
X100024571Y-123681428D01*
X100000380Y-123633047D01*
X99976190Y-123536285D01*
X99976190Y-123415333D01*
X100000380Y-123318571D01*
X100024571Y-123270190D01*
X100048761Y-123246000D01*
X100097142Y-123221809D01*
X100484190Y-123536285D02*
X100871238Y-123536285D01*
X101209904Y-123221809D02*
X101258285Y-123221809D01*
X101306666Y-123246000D01*
X101330857Y-123270190D01*
X101355047Y-123318571D01*
X101379238Y-123415333D01*
X101379238Y-123536285D01*
X101355047Y-123633047D01*
X101330857Y-123681428D01*
X101306666Y-123705619D01*
X101258285Y-123729809D01*
X101209904Y-123729809D01*
X101161523Y-123705619D01*
X101137333Y-123681428D01*
X101113142Y-123633047D01*
X101088952Y-123536285D01*
X101088952Y-123415333D01*
X101113142Y-123318571D01*
X101137333Y-123270190D01*
X101161523Y-123246000D01*
X101209904Y-123221809D01*
X101693714Y-123221809D02*
X101742095Y-123221809D01*
X101790476Y-123246000D01*
X101814666Y-123270190D01*
X101838857Y-123318571D01*
X101863047Y-123415333D01*
X101863047Y-123536285D01*
X101838857Y-123633047D01*
X101814666Y-123681428D01*
X101790476Y-123705619D01*
X101742095Y-123729809D01*
X101693714Y-123729809D01*
X101645333Y-123705619D01*
X101621142Y-123681428D01*
X101596952Y-123633047D01*
X101572761Y-123536285D01*
X101572761Y-123415333D01*
X101596952Y-123318571D01*
X101621142Y-123270190D01*
X101645333Y-123246000D01*
X101693714Y-123221809D01*
X102346857Y-123729809D02*
X102056571Y-123729809D01*
X102201714Y-123729809D02*
X102201714Y-123221809D01*
X102153333Y-123294380D01*
X102104952Y-123342761D01*
X102056571Y-123366952D01*
X102830666Y-123729809D02*
X102540380Y-123729809D01*
X102685523Y-123729809D02*
X102685523Y-123221809D01*
X102637142Y-123294380D01*
X102588761Y-123342761D01*
X102540380Y-123366952D01*
X103072571Y-123729809D02*
X103169333Y-123729809D01*
X103217714Y-123705619D01*
X103241904Y-123681428D01*
X103290285Y-123608857D01*
X103314476Y-123512095D01*
X103314476Y-123318571D01*
X103290285Y-123270190D01*
X103266095Y-123246000D01*
X103217714Y-123221809D01*
X103120952Y-123221809D01*
X103072571Y-123246000D01*
X103048380Y-123270190D01*
X103024190Y-123318571D01*
X103024190Y-123439523D01*
X103048380Y-123487904D01*
X103072571Y-123512095D01*
X103120952Y-123536285D01*
X103217714Y-123536285D01*
X103266095Y-123512095D01*
X103290285Y-123487904D01*
X103314476Y-123439523D01*
X103532190Y-123536285D02*
X103919238Y-123536285D01*
X104136952Y-123584666D02*
X104378857Y-123584666D01*
X104088571Y-123729809D02*
X104257904Y-123221809D01*
X104427238Y-123729809D01*
X104838476Y-123221809D02*
X104596571Y-123221809D01*
X104572380Y-123463714D01*
X104596571Y-123439523D01*
X104644952Y-123415333D01*
X104765904Y-123415333D01*
X104814285Y-123439523D01*
X104838476Y-123463714D01*
X104862666Y-123512095D01*
X104862666Y-123633047D01*
X104838476Y-123681428D01*
X104814285Y-123705619D01*
X104765904Y-123729809D01*
X104644952Y-123729809D01*
X104596571Y-123705619D01*
X104572380Y-123681428D01*
X105056190Y-123270190D02*
X105080380Y-123246000D01*
X105128761Y-123221809D01*
X105249714Y-123221809D01*
X105298095Y-123246000D01*
X105322285Y-123270190D01*
X105346476Y-123318571D01*
X105346476Y-123366952D01*
X105322285Y-123439523D01*
X105032000Y-123729809D01*
X105346476Y-123729809D01*
X105564190Y-123536285D02*
X105951238Y-123536285D01*
X106459238Y-123729809D02*
X106168952Y-123729809D01*
X106314095Y-123729809D02*
X106314095Y-123221809D01*
X106265714Y-123294380D01*
X106217333Y-123342761D01*
X106168952Y-123366952D01*
X106652761Y-123270190D02*
X106676952Y-123246000D01*
X106725333Y-123221809D01*
X106846285Y-123221809D01*
X106894666Y-123246000D01*
X106918857Y-123270190D01*
X106943047Y-123318571D01*
X106943047Y-123366952D01*
X106918857Y-123439523D01*
X106628571Y-123729809D01*
X106943047Y-123729809D01*
X99496000Y-119887047D02*
X99471809Y-119935428D01*
X99471809Y-120008000D01*
X99496000Y-120080571D01*
X99544380Y-120128952D01*
X99592761Y-120153142D01*
X99689523Y-120177333D01*
X99762095Y-120177333D01*
X99858857Y-120153142D01*
X99907238Y-120128952D01*
X99955619Y-120080571D01*
X99979809Y-120008000D01*
X99979809Y-119959619D01*
X99955619Y-119887047D01*
X99931428Y-119862857D01*
X99762095Y-119862857D01*
X99762095Y-119959619D01*
X99979809Y-119645142D02*
X99471809Y-119645142D01*
X99979809Y-119354857D01*
X99471809Y-119354857D01*
X99979809Y-119112952D02*
X99471809Y-119112952D01*
X99471809Y-118992000D01*
X99496000Y-118919428D01*
X99544380Y-118871047D01*
X99592761Y-118846857D01*
X99689523Y-118822666D01*
X99762095Y-118822666D01*
X99858857Y-118846857D01*
X99907238Y-118871047D01*
X99955619Y-118919428D01*
X99979809Y-118992000D01*
X99979809Y-119112952D01*
X100221809Y-120681333D02*
X100729809Y-120512000D01*
X100221809Y-120342666D01*
X100463714Y-120004000D02*
X100487904Y-119931428D01*
X100512095Y-119907238D01*
X100560476Y-119883047D01*
X100633047Y-119883047D01*
X100681428Y-119907238D01*
X100705619Y-119931428D01*
X100729809Y-119979809D01*
X100729809Y-120173333D01*
X100221809Y-120173333D01*
X100221809Y-120004000D01*
X100246000Y-119955619D01*
X100270190Y-119931428D01*
X100318571Y-119907238D01*
X100366952Y-119907238D01*
X100415333Y-119931428D01*
X100439523Y-119955619D01*
X100463714Y-120004000D01*
X100463714Y-120173333D01*
X100221809Y-119665333D02*
X100633047Y-119665333D01*
X100681428Y-119641142D01*
X100705619Y-119616952D01*
X100729809Y-119568571D01*
X100729809Y-119471809D01*
X100705619Y-119423428D01*
X100681428Y-119399238D01*
X100633047Y-119375047D01*
X100221809Y-119375047D01*
X100705619Y-119157333D02*
X100729809Y-119084761D01*
X100729809Y-118963809D01*
X100705619Y-118915428D01*
X100681428Y-118891238D01*
X100633047Y-118867047D01*
X100584666Y-118867047D01*
X100536285Y-118891238D01*
X100512095Y-118915428D01*
X100487904Y-118963809D01*
X100463714Y-119060571D01*
X100439523Y-119108952D01*
X100415333Y-119133142D01*
X100366952Y-119157333D01*
X100318571Y-119157333D01*
X100270190Y-119133142D01*
X100246000Y-119108952D01*
X100221809Y-119060571D01*
X100221809Y-118939619D01*
X100246000Y-118867047D01*
X101455619Y-122407142D02*
X101479809Y-122334571D01*
X101479809Y-122213619D01*
X101455619Y-122165238D01*
X101431428Y-122141047D01*
X101383047Y-122116857D01*
X101334666Y-122116857D01*
X101286285Y-122141047D01*
X101262095Y-122165238D01*
X101237904Y-122213619D01*
X101213714Y-122310380D01*
X101189523Y-122358761D01*
X101165333Y-122382952D01*
X101116952Y-122407142D01*
X101068571Y-122407142D01*
X101020190Y-122382952D01*
X100996000Y-122358761D01*
X100971809Y-122310380D01*
X100971809Y-122189428D01*
X100996000Y-122116857D01*
X101213714Y-121729809D02*
X101237904Y-121657238D01*
X101262095Y-121633047D01*
X101310476Y-121608857D01*
X101383047Y-121608857D01*
X101431428Y-121633047D01*
X101455619Y-121657238D01*
X101479809Y-121705619D01*
X101479809Y-121899142D01*
X100971809Y-121899142D01*
X100971809Y-121729809D01*
X100996000Y-121681428D01*
X101020190Y-121657238D01*
X101068571Y-121633047D01*
X101116952Y-121633047D01*
X101165333Y-121657238D01*
X101189523Y-121681428D01*
X101213714Y-121729809D01*
X101213714Y-121899142D01*
X100971809Y-121391142D02*
X101383047Y-121391142D01*
X101431428Y-121366952D01*
X101455619Y-121342761D01*
X101479809Y-121294380D01*
X101479809Y-121197619D01*
X101455619Y-121149238D01*
X101431428Y-121125047D01*
X101383047Y-121100857D01*
X100971809Y-121100857D01*
X101020190Y-120883142D02*
X100996000Y-120858952D01*
X100971809Y-120810571D01*
X100971809Y-120689619D01*
X100996000Y-120641238D01*
X101020190Y-120617047D01*
X101068571Y-120592857D01*
X101116952Y-120592857D01*
X101189523Y-120617047D01*
X101479809Y-120907333D01*
X101479809Y-120592857D01*
X101931428Y-119838666D02*
X101955619Y-119862857D01*
X101979809Y-119935428D01*
X101979809Y-119983809D01*
X101955619Y-120056380D01*
X101907238Y-120104761D01*
X101858857Y-120128952D01*
X101762095Y-120153142D01*
X101689523Y-120153142D01*
X101592761Y-120128952D01*
X101544380Y-120104761D01*
X101496000Y-120056380D01*
X101471809Y-119983809D01*
X101471809Y-119935428D01*
X101496000Y-119862857D01*
X101520190Y-119838666D01*
X101931428Y-119330666D02*
X101955619Y-119354857D01*
X101979809Y-119427428D01*
X101979809Y-119475809D01*
X101955619Y-119548380D01*
X101907238Y-119596761D01*
X101858857Y-119620952D01*
X101762095Y-119645142D01*
X101689523Y-119645142D01*
X101592761Y-119620952D01*
X101544380Y-119596761D01*
X101496000Y-119548380D01*
X101471809Y-119475809D01*
X101471809Y-119427428D01*
X101496000Y-119354857D01*
X101520190Y-119330666D01*
X101979809Y-118846857D02*
X101979809Y-119137142D01*
X101979809Y-118992000D02*
X101471809Y-118992000D01*
X101544380Y-119040380D01*
X101592761Y-119088761D01*
X101616952Y-119137142D01*
X102479809Y-121891047D02*
X101971809Y-121891047D01*
X101971809Y-121770095D01*
X101996000Y-121697523D01*
X102044380Y-121649142D01*
X102092761Y-121624952D01*
X102189523Y-121600761D01*
X102262095Y-121600761D01*
X102358857Y-121624952D01*
X102407238Y-121649142D01*
X102455619Y-121697523D01*
X102479809Y-121770095D01*
X102479809Y-121891047D01*
X102479809Y-121383047D02*
X101971809Y-121383047D01*
X102479809Y-121092761D01*
X101971809Y-121092761D01*
X102020190Y-120875047D02*
X101996000Y-120850857D01*
X101971809Y-120802476D01*
X101971809Y-120681523D01*
X101996000Y-120633142D01*
X102020190Y-120608952D01*
X102068571Y-120584761D01*
X102116952Y-120584761D01*
X102189523Y-120608952D01*
X102479809Y-120899238D01*
X102479809Y-120584761D01*
X102979809Y-120128952D02*
X102471809Y-120128952D01*
X102471809Y-120008000D01*
X102496000Y-119935428D01*
X102544380Y-119887047D01*
X102592761Y-119862857D01*
X102689523Y-119838666D01*
X102762095Y-119838666D01*
X102858857Y-119862857D01*
X102907238Y-119887047D01*
X102955619Y-119935428D01*
X102979809Y-120008000D01*
X102979809Y-120128952D01*
X102979809Y-119620952D02*
X102471809Y-119620952D01*
X102471809Y-119427428D01*
X102496000Y-119379047D01*
X102520190Y-119354857D01*
X102568571Y-119330666D01*
X102641142Y-119330666D01*
X102689523Y-119354857D01*
X102713714Y-119379047D01*
X102737904Y-119427428D01*
X102737904Y-119620952D01*
X102979809Y-118846857D02*
X102979809Y-119137142D01*
X102979809Y-118992000D02*
X102471809Y-118992000D01*
X102544380Y-119040380D01*
X102592761Y-119088761D01*
X102616952Y-119137142D01*
X103479809Y-121891047D02*
X102971809Y-121891047D01*
X102971809Y-121770095D01*
X102996000Y-121697523D01*
X103044380Y-121649142D01*
X103092761Y-121624952D01*
X103189523Y-121600761D01*
X103262095Y-121600761D01*
X103358857Y-121624952D01*
X103407238Y-121649142D01*
X103455619Y-121697523D01*
X103479809Y-121770095D01*
X103479809Y-121891047D01*
X103479809Y-121383047D02*
X102971809Y-121383047D01*
X103479809Y-121092761D01*
X102971809Y-121092761D01*
X103479809Y-120584761D02*
X103479809Y-120875047D01*
X103479809Y-120729904D02*
X102971809Y-120729904D01*
X103044380Y-120778285D01*
X103092761Y-120826666D01*
X103116952Y-120875047D01*
X103979809Y-120128952D02*
X103471809Y-120128952D01*
X103471809Y-120008000D01*
X103496000Y-119935428D01*
X103544380Y-119887047D01*
X103592761Y-119862857D01*
X103689523Y-119838666D01*
X103762095Y-119838666D01*
X103858857Y-119862857D01*
X103907238Y-119887047D01*
X103955619Y-119935428D01*
X103979809Y-120008000D01*
X103979809Y-120128952D01*
X103979809Y-119620952D02*
X103471809Y-119620952D01*
X103471809Y-119427428D01*
X103496000Y-119379047D01*
X103520190Y-119354857D01*
X103568571Y-119330666D01*
X103641142Y-119330666D01*
X103689523Y-119354857D01*
X103713714Y-119379047D01*
X103737904Y-119427428D01*
X103737904Y-119620952D01*
X103520190Y-119137142D02*
X103496000Y-119112952D01*
X103471809Y-119064571D01*
X103471809Y-118943619D01*
X103496000Y-118895238D01*
X103520190Y-118871047D01*
X103568571Y-118846857D01*
X103616952Y-118846857D01*
X103689523Y-118871047D01*
X103979809Y-119161333D01*
X103979809Y-118846857D01*
X104455619Y-122407142D02*
X104479809Y-122334571D01*
X104479809Y-122213619D01*
X104455619Y-122165238D01*
X104431428Y-122141047D01*
X104383047Y-122116857D01*
X104334666Y-122116857D01*
X104286285Y-122141047D01*
X104262095Y-122165238D01*
X104237904Y-122213619D01*
X104213714Y-122310380D01*
X104189523Y-122358761D01*
X104165333Y-122382952D01*
X104116952Y-122407142D01*
X104068571Y-122407142D01*
X104020190Y-122382952D01*
X103996000Y-122358761D01*
X103971809Y-122310380D01*
X103971809Y-122189428D01*
X103996000Y-122116857D01*
X104213714Y-121729809D02*
X104237904Y-121657238D01*
X104262095Y-121633047D01*
X104310476Y-121608857D01*
X104383047Y-121608857D01*
X104431428Y-121633047D01*
X104455619Y-121657238D01*
X104479809Y-121705619D01*
X104479809Y-121899142D01*
X103971809Y-121899142D01*
X103971809Y-121729809D01*
X103996000Y-121681428D01*
X104020190Y-121657238D01*
X104068571Y-121633047D01*
X104116952Y-121633047D01*
X104165333Y-121657238D01*
X104189523Y-121681428D01*
X104213714Y-121729809D01*
X104213714Y-121899142D01*
X103971809Y-121391142D02*
X104383047Y-121391142D01*
X104431428Y-121366952D01*
X104455619Y-121342761D01*
X104479809Y-121294380D01*
X104479809Y-121197619D01*
X104455619Y-121149238D01*
X104431428Y-121125047D01*
X104383047Y-121100857D01*
X103971809Y-121100857D01*
X104479809Y-120592857D02*
X104479809Y-120883142D01*
X104479809Y-120738000D02*
X103971809Y-120738000D01*
X104044380Y-120786380D01*
X104092761Y-120834761D01*
X104116952Y-120883142D01*
X104931428Y-119838666D02*
X104955619Y-119862857D01*
X104979809Y-119935428D01*
X104979809Y-119983809D01*
X104955619Y-120056380D01*
X104907238Y-120104761D01*
X104858857Y-120128952D01*
X104762095Y-120153142D01*
X104689523Y-120153142D01*
X104592761Y-120128952D01*
X104544380Y-120104761D01*
X104496000Y-120056380D01*
X104471809Y-119983809D01*
X104471809Y-119935428D01*
X104496000Y-119862857D01*
X104520190Y-119838666D01*
X104931428Y-119330666D02*
X104955619Y-119354857D01*
X104979809Y-119427428D01*
X104979809Y-119475809D01*
X104955619Y-119548380D01*
X104907238Y-119596761D01*
X104858857Y-119620952D01*
X104762095Y-119645142D01*
X104689523Y-119645142D01*
X104592761Y-119620952D01*
X104544380Y-119596761D01*
X104496000Y-119548380D01*
X104471809Y-119475809D01*
X104471809Y-119427428D01*
X104496000Y-119354857D01*
X104520190Y-119330666D01*
X104520190Y-119137142D02*
X104496000Y-119112952D01*
X104471809Y-119064571D01*
X104471809Y-118943619D01*
X104496000Y-118895238D01*
X104520190Y-118871047D01*
X104568571Y-118846857D01*
X104616952Y-118846857D01*
X104689523Y-118871047D01*
X104979809Y-119161333D01*
X104979809Y-118846857D01*
X105221809Y-120681333D02*
X105729809Y-120512000D01*
X105221809Y-120342666D01*
X105463714Y-120004000D02*
X105487904Y-119931428D01*
X105512095Y-119907238D01*
X105560476Y-119883047D01*
X105633047Y-119883047D01*
X105681428Y-119907238D01*
X105705619Y-119931428D01*
X105729809Y-119979809D01*
X105729809Y-120173333D01*
X105221809Y-120173333D01*
X105221809Y-120004000D01*
X105246000Y-119955619D01*
X105270190Y-119931428D01*
X105318571Y-119907238D01*
X105366952Y-119907238D01*
X105415333Y-119931428D01*
X105439523Y-119955619D01*
X105463714Y-120004000D01*
X105463714Y-120173333D01*
X105221809Y-119665333D02*
X105633047Y-119665333D01*
X105681428Y-119641142D01*
X105705619Y-119616952D01*
X105729809Y-119568571D01*
X105729809Y-119471809D01*
X105705619Y-119423428D01*
X105681428Y-119399238D01*
X105633047Y-119375047D01*
X105221809Y-119375047D01*
X105705619Y-119157333D02*
X105729809Y-119084761D01*
X105729809Y-118963809D01*
X105705619Y-118915428D01*
X105681428Y-118891238D01*
X105633047Y-118867047D01*
X105584666Y-118867047D01*
X105536285Y-118891238D01*
X105512095Y-118915428D01*
X105487904Y-118963809D01*
X105463714Y-119060571D01*
X105439523Y-119108952D01*
X105415333Y-119133142D01*
X105366952Y-119157333D01*
X105318571Y-119157333D01*
X105270190Y-119133142D01*
X105246000Y-119108952D01*
X105221809Y-119060571D01*
X105221809Y-118939619D01*
X105246000Y-118867047D01*
X105996000Y-119887047D02*
X105971809Y-119935428D01*
X105971809Y-120008000D01*
X105996000Y-120080571D01*
X106044380Y-120128952D01*
X106092761Y-120153142D01*
X106189523Y-120177333D01*
X106262095Y-120177333D01*
X106358857Y-120153142D01*
X106407238Y-120128952D01*
X106455619Y-120080571D01*
X106479809Y-120008000D01*
X106479809Y-119959619D01*
X106455619Y-119887047D01*
X106431428Y-119862857D01*
X106262095Y-119862857D01*
X106262095Y-119959619D01*
X106479809Y-119645142D02*
X105971809Y-119645142D01*
X106479809Y-119354857D01*
X105971809Y-119354857D01*
X106479809Y-119112952D02*
X105971809Y-119112952D01*
X105971809Y-118992000D01*
X105996000Y-118919428D01*
X106044380Y-118871047D01*
X106092761Y-118846857D01*
X106189523Y-118822666D01*
X106262095Y-118822666D01*
X106358857Y-118846857D01*
X106407238Y-118871047D01*
X106455619Y-118919428D01*
X106479809Y-118992000D01*
X106479809Y-119112952D01*
D11*
X177872571Y-123467619D02*
X177872571Y-124290095D01*
X177920952Y-124386857D01*
X177969333Y-124435238D01*
X178066095Y-124483619D01*
X178259619Y-124483619D01*
X178356380Y-124435238D01*
X178404761Y-124386857D01*
X178453142Y-124290095D01*
X178453142Y-123467619D01*
X178888571Y-124435238D02*
X179033714Y-124483619D01*
X179275619Y-124483619D01*
X179372380Y-124435238D01*
X179420761Y-124386857D01*
X179469142Y-124290095D01*
X179469142Y-124193333D01*
X179420761Y-124096571D01*
X179372380Y-124048190D01*
X179275619Y-123999809D01*
X179082095Y-123951428D01*
X178985333Y-123903047D01*
X178936952Y-123854666D01*
X178888571Y-123757904D01*
X178888571Y-123661142D01*
X178936952Y-123564380D01*
X178985333Y-123516000D01*
X179082095Y-123467619D01*
X179324000Y-123467619D01*
X179469142Y-123516000D01*
X179904571Y-123951428D02*
X180243238Y-123951428D01*
X180388380Y-124483619D02*
X179904571Y-124483619D01*
X179904571Y-123467619D01*
X180388380Y-123467619D01*
X181404380Y-124483619D02*
X181065714Y-123999809D01*
X180823809Y-124483619D02*
X180823809Y-123467619D01*
X181210857Y-123467619D01*
X181307619Y-123516000D01*
X181356000Y-123564380D01*
X181404380Y-123661142D01*
X181404380Y-123806285D01*
X181356000Y-123903047D01*
X181307619Y-123951428D01*
X181210857Y-123999809D01*
X180823809Y-123999809D01*
X181597904Y-124580380D02*
X182372000Y-124580380D01*
X183097714Y-124483619D02*
X182613904Y-124483619D01*
X182613904Y-123467619D01*
X183436380Y-123951428D02*
X183775047Y-123951428D01*
X183920190Y-124483619D02*
X183436380Y-124483619D01*
X183436380Y-123467619D01*
X183920190Y-123467619D01*
X184355619Y-124483619D02*
X184355619Y-123467619D01*
X184597523Y-123467619D01*
X184742666Y-123516000D01*
X184839428Y-123612761D01*
X184887809Y-123709523D01*
X184936190Y-123903047D01*
X184936190Y-124048190D01*
X184887809Y-124241714D01*
X184839428Y-124338476D01*
X184742666Y-124435238D01*
X184597523Y-124483619D01*
X184355619Y-124483619D01*
X185903809Y-124483619D02*
X185323238Y-124483619D01*
X185613523Y-124483619D02*
X185613523Y-123467619D01*
X185516761Y-123612761D01*
X185420000Y-123709523D01*
X185323238Y-123757904D01*
D10*
X162015714Y-114535857D02*
X161652857Y-114789857D01*
X162015714Y-114971285D02*
X161253714Y-114971285D01*
X161253714Y-114681000D01*
X161290000Y-114608428D01*
X161326285Y-114572142D01*
X161398857Y-114535857D01*
X161507714Y-114535857D01*
X161580285Y-114572142D01*
X161616571Y-114608428D01*
X161652857Y-114681000D01*
X161652857Y-114971285D01*
X161253714Y-114281857D02*
X161253714Y-113810142D01*
X161544000Y-114064142D01*
X161544000Y-113955285D01*
X161580285Y-113882714D01*
X161616571Y-113846428D01*
X161689142Y-113810142D01*
X161870571Y-113810142D01*
X161943142Y-113846428D01*
X161979428Y-113882714D01*
X162015714Y-113955285D01*
X162015714Y-114173000D01*
X161979428Y-114245571D01*
X161943142Y-114281857D01*
X161253714Y-113556142D02*
X161253714Y-113084428D01*
X161544000Y-113338428D01*
X161544000Y-113229571D01*
X161580285Y-113157000D01*
X161616571Y-113120714D01*
X161689142Y-113084428D01*
X161870571Y-113084428D01*
X161943142Y-113120714D01*
X161979428Y-113157000D01*
X162015714Y-113229571D01*
X162015714Y-113447285D01*
X161979428Y-113519857D01*
X161943142Y-113556142D01*
X163285714Y-114535857D02*
X162922857Y-114789857D01*
X163285714Y-114971285D02*
X162523714Y-114971285D01*
X162523714Y-114681000D01*
X162560000Y-114608428D01*
X162596285Y-114572142D01*
X162668857Y-114535857D01*
X162777714Y-114535857D01*
X162850285Y-114572142D01*
X162886571Y-114608428D01*
X162922857Y-114681000D01*
X162922857Y-114971285D01*
X162523714Y-114281857D02*
X162523714Y-113810142D01*
X162814000Y-114064142D01*
X162814000Y-113955285D01*
X162850285Y-113882714D01*
X162886571Y-113846428D01*
X162959142Y-113810142D01*
X163140571Y-113810142D01*
X163213142Y-113846428D01*
X163249428Y-113882714D01*
X163285714Y-113955285D01*
X163285714Y-114173000D01*
X163249428Y-114245571D01*
X163213142Y-114281857D01*
X162777714Y-113157000D02*
X163285714Y-113157000D01*
X162487428Y-113338428D02*
X163031714Y-113519857D01*
X163031714Y-113048142D01*
M02*
