G04 #@! TF.GenerationSoftware,KiCad,Pcbnew,5.1.0-rc2-unknown-036be7d~80~ubuntu16.04.1*
G04 #@! TF.CreationDate,2023-03-31T11:14:17+03:00*
G04 #@! TF.ProjectId,ESP32-C6-EVB_Rev_A,45535033-322d-4433-962d-4556425f5265,A*
G04 #@! TF.SameCoordinates,Original*
G04 #@! TF.FileFunction,Soldermask,Top*
G04 #@! TF.FilePolarity,Negative*
%FSLAX46Y46*%
G04 Gerber Fmt 4.6, Leading zero omitted, Abs format (unit mm)*
G04 Created by KiCad (PCBNEW 5.1.0-rc2-unknown-036be7d~80~ubuntu16.04.1) date 2023-03-31 11:14:17*
%MOMM*%
%LPD*%
G04 APERTURE LIST*
%ADD10R,1.001600X1.601600*%
%ADD11R,4.101600X4.101600*%
%ADD12C,1.901600*%
%ADD13C,2.641600*%
%ADD14R,3.149600X3.149600*%
%ADD15C,3.149600*%
%ADD16O,2.101600X5.101600*%
%ADD17O,5.101600X2.101600*%
%ADD18R,1.301600X1.901600*%
%ADD19R,0.601600X1.651600*%
%ADD20O,1.101600X1.601600*%
%ADD21R,0.601600X0.651600*%
%ADD22R,1.879600X1.625600*%
%ADD23R,1.117600X1.117600*%
%ADD24R,1.879600X1.879600*%
%ADD25C,1.625600*%
%ADD26R,1.625600X1.625600*%
%ADD27R,0.609600X0.863600*%
%ADD28R,0.751600X1.151600*%
%ADD29R,0.651600X0.601600*%
%ADD30R,2.101600X1.801600*%
%ADD31R,1.101600X1.501600*%
%ADD32R,1.801600X2.101600*%
%ADD33C,1.879600*%
%ADD34R,1.501600X1.101600*%
%ADD35C,1.254000*%
%ADD36R,2.601600X3.301600*%
%ADD37R,1.701600X3.101600*%
%ADD38R,0.901600X0.901600*%
%ADD39C,3.401601*%
%ADD40R,1.625600X1.879600*%
%ADD41R,3.601600X2.701600*%
%ADD42R,0.701600X1.501600*%
%ADD43R,1.301600X0.651600*%
%ADD44C,1.301600*%
%ADD45R,4.351600X1.101600*%
%ADD46R,0.401600X1.251600*%
%ADD47O,1.301600X2.301600*%
%ADD48C,0.701600*%
%ADD49O,1.401600X2.101600*%
%ADD50R,0.351600X1.251600*%
%ADD51R,1.201600X2.301600*%
%ADD52R,1.201600X2.101600*%
G04 APERTURE END LIST*
D10*
X182010000Y-96750000D03*
X180740000Y-96750000D03*
X179470000Y-96750000D03*
X178200000Y-96750000D03*
X176930000Y-96750000D03*
X175660000Y-96750000D03*
X174390000Y-96750000D03*
X173120000Y-96750000D03*
X171850000Y-96750000D03*
X170580000Y-96750000D03*
X169310000Y-96750000D03*
X168040000Y-96750000D03*
X166770000Y-96750000D03*
X165500000Y-96750000D03*
X165500000Y-114250000D03*
X166770000Y-114250000D03*
X168040000Y-114250000D03*
X169310000Y-114250000D03*
X170580000Y-114250000D03*
X171850000Y-114250000D03*
X173120000Y-114250000D03*
X174390000Y-114250000D03*
X175660000Y-114250000D03*
X176930000Y-114250000D03*
X178200000Y-114250000D03*
X179470000Y-114250000D03*
X180740000Y-114250000D03*
X182010000Y-114250000D03*
D11*
X176290000Y-104000000D03*
D12*
X176290000Y-104000000D03*
D13*
X121000000Y-83300000D03*
X127000000Y-69300000D03*
X115000000Y-69300000D03*
X115000000Y-81300000D03*
X127000000Y-81300000D03*
X139000000Y-83300000D03*
X145000000Y-69300000D03*
X133000000Y-69300000D03*
X133000000Y-81300000D03*
X145000000Y-81300000D03*
X157000000Y-83300000D03*
X163000000Y-69300000D03*
X151000000Y-69300000D03*
X151000000Y-81300000D03*
X163000000Y-81300000D03*
X175000000Y-83300000D03*
X181000000Y-69300000D03*
X169000000Y-69300000D03*
X169000000Y-81300000D03*
X181000000Y-81300000D03*
D14*
X108000000Y-59500000D03*
D15*
X103000000Y-59500000D03*
D16*
X100975000Y-65700000D03*
D17*
X105425000Y-62500000D03*
X105425000Y-69000000D03*
D18*
X174200000Y-123575000D03*
X162600000Y-123575000D03*
D19*
X172900000Y-119700000D03*
X171900000Y-119700000D03*
X170900000Y-119700000D03*
X169900000Y-119700000D03*
X168900000Y-119700000D03*
X167900000Y-119700000D03*
X166900000Y-119700000D03*
X165900000Y-119700000D03*
X164900000Y-119700000D03*
X163900000Y-119700000D03*
D20*
X175407000Y-117983000D03*
X176657000Y-117983000D03*
X177907000Y-117983000D03*
X179157000Y-117983000D03*
X180407000Y-117983000D03*
X181657000Y-117983000D03*
D21*
X144018000Y-101092000D03*
X145034000Y-101092000D03*
D22*
X117221000Y-111887000D03*
X119761000Y-111887000D03*
X119761000Y-102997000D03*
X117221000Y-102997000D03*
D23*
X126111000Y-95885000D03*
X126111000Y-97663000D03*
X124460000Y-97663000D03*
X124460000Y-95885000D03*
D24*
X176530000Y-123571000D03*
D25*
X99020000Y-72390000D03*
D26*
X94020000Y-72390000D03*
D27*
X176657000Y-120015000D03*
X177419000Y-120015000D03*
D28*
X93575000Y-112925000D03*
X93575000Y-117075000D03*
X91425000Y-112925000D03*
X91425000Y-117075000D03*
D23*
X91694000Y-78867000D03*
X93472000Y-78867000D03*
X112776000Y-94107000D03*
X112776000Y-95885000D03*
X98425000Y-84709000D03*
X98425000Y-82931000D03*
D29*
X93599000Y-90424000D03*
X93599000Y-89408000D03*
D25*
X104628000Y-89789000D03*
D26*
X102128000Y-89789000D03*
D23*
X180467000Y-93853000D03*
X182245000Y-93853000D03*
D21*
X181356000Y-92329000D03*
X182372000Y-92329000D03*
D23*
X179070000Y-93853000D03*
X177292000Y-93853000D03*
D15*
X121000000Y-59500000D03*
D14*
X126000000Y-59500000D03*
D15*
X116000000Y-59500000D03*
X139000000Y-59500000D03*
D14*
X144000000Y-59500000D03*
D15*
X134000000Y-59500000D03*
X152000000Y-59500000D03*
D14*
X162000000Y-59500000D03*
D15*
X157000000Y-59500000D03*
X170000000Y-59500000D03*
D14*
X180000000Y-59500000D03*
D15*
X175000000Y-59500000D03*
D30*
X108037000Y-72390000D03*
X103037000Y-72390000D03*
D31*
X111257000Y-107569000D03*
X115057000Y-107569000D03*
X124211000Y-107569000D03*
X128011000Y-107569000D03*
X141092000Y-107569000D03*
X137292000Y-107569000D03*
X150246000Y-107569000D03*
X154046000Y-107569000D03*
D32*
X100965000Y-85558000D03*
X100965000Y-80558000D03*
D30*
X112990000Y-89916000D03*
X107990000Y-89916000D03*
D31*
X121163000Y-88138000D03*
X124963000Y-88138000D03*
X137038000Y-88138000D03*
X140838000Y-88138000D03*
X158872000Y-88138000D03*
X155072000Y-88138000D03*
X171709000Y-88138000D03*
X175509000Y-88138000D03*
D33*
X188500000Y-85680000D03*
X188500000Y-83140000D03*
X188500000Y-78060000D03*
X188500000Y-80600000D03*
X188500000Y-75520000D03*
X188500000Y-72980000D03*
D24*
X188500000Y-62820000D03*
D33*
X188500000Y-65360000D03*
X188500000Y-67900000D03*
X188500000Y-70440000D03*
D34*
X110835440Y-94167960D03*
X110835440Y-92265500D03*
X108625640Y-93220540D03*
D35*
X91500000Y-123500000D03*
X91500000Y-56500000D03*
X188500000Y-123500000D03*
D15*
X118500000Y-120500000D03*
D14*
X113500000Y-120500000D03*
X126500000Y-120500000D03*
D15*
X131500000Y-120500000D03*
D14*
X139500000Y-120500000D03*
D15*
X144500000Y-120500000D03*
X157500000Y-120500000D03*
D14*
X152500000Y-120500000D03*
D36*
X107950000Y-75803000D03*
X107950000Y-86503000D03*
D37*
X122358000Y-95377000D03*
X119958000Y-95377000D03*
D38*
X114300000Y-111760000D03*
X114300000Y-110236000D03*
X127254000Y-111760000D03*
X127254000Y-110236000D03*
X140335000Y-110236000D03*
X140335000Y-111760000D03*
X153289000Y-111760000D03*
X153289000Y-110236000D03*
X121158000Y-90170000D03*
X122682000Y-90170000D03*
X138557000Y-90170000D03*
X137033000Y-90170000D03*
X156591000Y-90170000D03*
X155067000Y-90170000D03*
X173228000Y-90170000D03*
X171704000Y-90170000D03*
D39*
X93500000Y-121500000D03*
X93500000Y-58500000D03*
X186500000Y-58500000D03*
X186500000Y-121500000D03*
D22*
X130175000Y-102997000D03*
X132715000Y-102997000D03*
X132715000Y-111887000D03*
X130175000Y-111887000D03*
X143256000Y-111887000D03*
X145796000Y-111887000D03*
X145796000Y-102997000D03*
X143256000Y-102997000D03*
X156210000Y-102997000D03*
X158750000Y-102997000D03*
X158750000Y-111887000D03*
X156210000Y-111887000D03*
D38*
X99000000Y-58762000D03*
X99000000Y-57238000D03*
D23*
X106299000Y-111887000D03*
X106299000Y-113665000D03*
X102108000Y-111887000D03*
X102108000Y-113665000D03*
D29*
X99000000Y-61492000D03*
X99000000Y-62508000D03*
D40*
X97917000Y-78867000D03*
X95123000Y-78867000D03*
D22*
X111633000Y-109601000D03*
X111633000Y-112395000D03*
X124587000Y-112395000D03*
X124587000Y-109601000D03*
X137668000Y-109601000D03*
X137668000Y-112395000D03*
X150622000Y-112395000D03*
X150622000Y-109601000D03*
D21*
X104267000Y-107823000D03*
X103251000Y-107823000D03*
X103251000Y-103759000D03*
X104267000Y-103759000D03*
X104267000Y-101219000D03*
X103251000Y-101219000D03*
D29*
X98425000Y-86360000D03*
X98425000Y-87376000D03*
X92202000Y-89408000D03*
X92202000Y-90424000D03*
D21*
X104267000Y-95123000D03*
X103251000Y-95123000D03*
X103251000Y-102489000D03*
X104267000Y-102489000D03*
X103251000Y-105029000D03*
X104267000Y-105029000D03*
D29*
X94996000Y-90424000D03*
X94996000Y-89408000D03*
D21*
X104267000Y-106553000D03*
X103251000Y-106553000D03*
D29*
X111887000Y-97282000D03*
X111887000Y-98298000D03*
X113030000Y-97282000D03*
X113030000Y-98298000D03*
D21*
X117983000Y-101092000D03*
X118999000Y-101092000D03*
D29*
X130683000Y-100076000D03*
X130683000Y-101092000D03*
X156464000Y-100076000D03*
X156464000Y-101092000D03*
D21*
X180340000Y-92329000D03*
X179324000Y-92329000D03*
D29*
X180086000Y-121031000D03*
X180086000Y-120015000D03*
X181229000Y-121031000D03*
X181229000Y-120015000D03*
D21*
X123952000Y-90170000D03*
X124968000Y-90170000D03*
X139827000Y-90170000D03*
X140843000Y-90170000D03*
X157861000Y-90170000D03*
X158877000Y-90170000D03*
X175514000Y-90170000D03*
X174498000Y-90170000D03*
X96774000Y-113157000D03*
X97790000Y-113157000D03*
D28*
X93575000Y-62925000D03*
X93575000Y-67075000D03*
X91425000Y-62925000D03*
X91425000Y-67075000D03*
D34*
X117129560Y-89220040D03*
X117129560Y-91122500D03*
X119339360Y-90167460D03*
X133004560Y-89220040D03*
X133004560Y-91122500D03*
X135214360Y-90167460D03*
X153248360Y-90167460D03*
X151038560Y-91122500D03*
X151038560Y-89220040D03*
X169885360Y-90167460D03*
X167675560Y-91122500D03*
X167675560Y-89220040D03*
D41*
X94107000Y-84963000D03*
D42*
X96012000Y-87763000D03*
X94742000Y-87763000D03*
X93472000Y-87763000D03*
X92202000Y-87763000D03*
X92202000Y-82163000D03*
X93472000Y-82163000D03*
X94742000Y-82163000D03*
X96012000Y-82163000D03*
D12*
X94107000Y-84963000D03*
D43*
X117251000Y-96708000D03*
X117251000Y-95758000D03*
X117251000Y-94808000D03*
X114651000Y-96708000D03*
X114651000Y-94808000D03*
D44*
X96000000Y-105310000D03*
D45*
X92875000Y-96420000D03*
X99125000Y-96420000D03*
X92875000Y-98960000D03*
X99125000Y-98960000D03*
X92875000Y-101500000D03*
X99125000Y-101500000D03*
X92875000Y-104040000D03*
X99125000Y-104040000D03*
X92875000Y-106580000D03*
X99125000Y-106580000D03*
D44*
X96000000Y-97690000D03*
D46*
X106325000Y-116568000D03*
X99675000Y-116568000D03*
X106075000Y-116568000D03*
X99925000Y-116568000D03*
X105525000Y-116568000D03*
X100475000Y-116568000D03*
X105275000Y-116568000D03*
X100725000Y-116568000D03*
D47*
X98680000Y-117470000D03*
D48*
X100110000Y-117970000D03*
D49*
X98680000Y-121650000D03*
X107320000Y-121650000D03*
D47*
X107320000Y-117470000D03*
D50*
X102750000Y-116568000D03*
X103750000Y-116568000D03*
X104250000Y-116568000D03*
X103250000Y-116568000D03*
X104750000Y-116568000D03*
X102250000Y-116568000D03*
X101750000Y-116568000D03*
X101250000Y-116568000D03*
D48*
X105890000Y-117970000D03*
D51*
X98072400Y-117470000D03*
D52*
X98072400Y-121650000D03*
D51*
X107927600Y-117470000D03*
D52*
X107927600Y-121650000D03*
D38*
X179738000Y-122500000D03*
X181262000Y-122500000D03*
D29*
X167767000Y-116586000D03*
X167767000Y-117602000D03*
X168910000Y-117602000D03*
X168910000Y-116586000D03*
M02*
