M48
; DRILL file {KiCad 5.1.0-rc2-unknown-036be7d~80~ubuntu16.04.1} date 31.03.2023 (пт) 11:14:21 EEST
; FORMAT={-:-/ absolute / inch / decimal}
; #@! TF.CreationDate,2023-03-31T11:14:21+03:00*
; #@! TF.GenerationSoftware,Kicad,Pcbnew,5.1.0-rc2-unknown-036be7d~80~ubuntu16.04.1
; #@! TF.FileFunction,Plated,1,2,PTH
FMAT,2
INCH
T1C0.0157
T2C0.0236
T3C0.0315
T4C0.0354
T5C0.0394
T6C0.0472
T7C0.0512
%
G90
G05
T1
X3.725Y-2.645
X3.78Y-4.09
X3.785Y-3.555
X3.89Y-2.505
X3.905Y-3.595
X3.96Y-4.365
X4.025Y-3.745
X4.025Y-3.8
X4.025Y-3.88
X4.025Y-3.94
X4.025Y-3.99
X4.025Y-4.045
X4.025Y-4.1
X4.065Y-4.165
X4.105Y-3.775
X4.36Y-3.825
X4.39Y-3.525
X4.555Y-3.51
X4.61Y-3.68
X4.665Y-3.77
X5.18Y-3.51
X5.85Y-3.85
X5.89Y-3.53
X5.9Y-3.86
X6.12Y-3.87
X6.16Y-3.87
X6.445Y-4.35
X6.45Y-4.41
X6.485Y-4.625
X6.505Y-3.955
X6.505Y-4.02
X6.525Y-4.655
X6.535Y-4.295
X6.545Y-3.515
X6.555Y-3.985
X6.555Y-4.05
X6.565Y-4.545
X6.6Y-4.23
X6.61Y-3.75
X6.61Y-4.66
X6.64Y-3.71
X6.645Y-4.76
X6.655Y-4.445
X6.69Y-3.725
X6.69Y-4.66
X6.725Y-4.42
X6.74Y-3.73
X6.785Y-4.425
X6.8Y-4.825
X6.855Y-3.905
X6.935Y-4.34
X6.965Y-4.445
X6.985Y-4.38
X7.06Y-3.61
X7.065Y-4.255
X7.0657Y-3.8693
X6.8913Y-4.0699
X6.8913Y-4.1191
X6.9159Y-4.0453
X6.9159Y-4.1437
X6.9652Y-4.0453
X6.9652Y-4.1437
X6.9898Y-4.0699
X6.9898Y-4.1191
T2
X3.59Y-4.25
X3.595Y-3.225
X3.6Y-4.52
X3.61Y-3.145
X3.61Y-3.185
X3.625Y-3.715
X3.64Y-3.315
X3.64Y-3.375
X3.68Y-4.35
X3.685Y-3.715
X3.745Y-3.715
X3.77Y-3.315
X3.77Y-3.375
X3.785Y-4.64
X3.82Y-3.315
X3.82Y-3.375
X3.85Y-4.265
X3.9Y-3.7
X3.9Y-4.265
X3.94Y-3.67
X3.965Y-4.53
X3.975Y-3.3
X4.02Y-4.36
X4.03Y-3.3
X4.05Y-4.695
X4.05Y-4.835
X4.18Y-4.53
X4.19Y-4.065
X4.19Y-4.115
X4.19Y-4.165
X4.225Y-4.36
X4.27Y-2.79
X4.275Y-3.76
X4.335Y-3.76
X4.395Y-3.76
X4.555Y-3.59
X4.565Y-3.76
X4.78Y-4.065
X4.88Y-3.725
X4.93Y-3.725
X4.98Y-3.725
X5.18Y-3.59
X5.26Y-3.825
X5.29Y-4.065
X5.805Y-4.065
X5.89Y-3.59
X6.315Y-4.065
X6.325Y-3.59
X6.365Y-3.855
X6.4Y-4.635
X6.41Y-3.855
X6.45Y-3.77
X6.5Y-4.785
X6.51Y-4.14
X6.51Y-4.19
X6.545Y-3.59
X6.555Y-4.785
X6.56Y-4.14
X6.56Y-4.19
X6.75Y-3.9
X6.75Y-4.865
X6.795Y-3.9
X6.85Y-4.77
X6.9Y-4.715
X6.92Y-3.7
X7.065Y-3.56
X7.12Y-4.35
X7.165Y-4.32
X6.9058Y-4.645
X6.955Y-4.645
X7.0042Y-4.645
X7.0534Y-4.645
X7.1026Y-4.645
X7.1519Y-4.645
T4
X4.0208Y-3.535
X4.1192Y-3.535
X3.7016Y-2.85
X3.8984Y-2.85
T5
X7.4213Y-2.4732
X7.4213Y-2.5732
X7.4213Y-2.6732
X7.4213Y-2.7732
X7.4213Y-2.8732
X7.4213Y-2.9732
X7.4213Y-3.0732
X7.4213Y-3.1732
X7.4213Y-3.2732
X7.4213Y-3.3732
X6.95Y-4.865
T6
X3.705Y-3.345
X6.9406Y-4.0945
T7
X5.9449Y-2.7283
X5.9449Y-3.2008
X6.1811Y-3.2795
X6.4173Y-2.7283
X6.4173Y-3.2008
X4.5276Y-2.7283
X4.5276Y-3.2008
X4.7638Y-3.2795
X5.0Y-2.7283
X5.0Y-3.2008
X4.4685Y-4.7441
X4.6654Y-4.7441
X5.4921Y-4.7441
X5.689Y-4.7441
X5.2362Y-2.7283
X5.2362Y-3.2008
X5.4724Y-3.2795
X5.7087Y-2.7283
X5.7087Y-3.2008
X6.0039Y-4.7441
X6.2008Y-4.7441
X5.9843Y-2.3425
X6.1811Y-2.3425
X6.378Y-2.3425
X6.6929Y-2.3425
X6.8898Y-2.3425
X7.0866Y-2.3425
X5.2756Y-2.3425
X5.4724Y-2.3425
X5.6693Y-2.3425
X4.0551Y-2.3425
X4.252Y-2.3425
X4.5669Y-2.3425
X4.7638Y-2.3425
X4.9606Y-2.3425
X6.6535Y-2.7283
X6.6535Y-3.2008
X6.8898Y-3.2795
X7.126Y-2.7283
X7.126Y-3.2008
X4.9803Y-4.7441
X5.1772Y-4.7441
T3
G00X3.885Y-4.6071
M15
G01X3.885Y-4.6425
M16
G05
G00X3.885Y-4.7776
M15
G01X3.885Y-4.8012
M16
G05
G00X4.2252Y-4.6071
M15
G01X4.2252Y-4.6425
M16
G05
G00X4.2252Y-4.7776
M15
G01X4.2252Y-4.8012
M16
G05
T5
G00X3.9754Y-2.5276
M15
G01X3.9754Y-2.6457
M16
G05
G00X4.2096Y-2.4606
M15
G01X4.0915Y-2.4606
M16
G05
G00X4.2096Y-2.7165
M15
G01X4.0915Y-2.7165
M16
G05
T0
M30
